<?xml version="1.0" standalone="no"?>
<!DOCTYPE svg PUBLIC "-//W3C//DTD SVG 1.0//EN" "http://www.w3.org/TR/2001/REC-SVG-20010904/DTD/svg10.dtd">
<svg xmlns="http://www.w3.org/2000/svg" xmlns:xlink="http://www.w3.org/1999/xlink" id="body_1" width="768" height="749">

<g transform="matrix(1 0 0 1 0 0)">
    <path transform="matrix(0.9643152 -0.2647568 0.2647568 0.9643152 -29.174072 157.91447)"  d="M571.222 197.183C 571.222 191.66016 575.69916 187.183 581.222 187.183L581.222 187.183L1268.2219 187.183C 1273.7449 187.183 1278.2219 191.66016 1278.2219 197.183L1278.2219 197.183L1278.2219 647.183C 1278.2219 652.7059 1273.7449 657.183 1268.2219 657.183L1268.2219 657.183L581.222 657.183C 575.69916 657.183 571.222 652.7059 571.222 647.183L571.222 647.183L571.222 197.183z" stroke="none" fill="none" />
	<g>
        <path transform="matrix(0.9643152 -0.2647568 0.2647568 0.9643152 -33.439453 164.9525)"  d="M595.198 216.525C 595.198 211.00215 599.6752 206.525 605.198 206.525L605.198 206.525L790.198 206.525C 795.7208 206.525 800.198 211.00215 800.198 216.525L800.198 216.525L800.198 395.525C 800.198 401.04785 795.7208 405.525 790.198 405.525L790.198 405.525L605.198 405.525C 599.6752 405.525 595.198 401.04785 595.198 395.525L595.198 395.525L595.198 216.525z" stroke="none" fill="#FFFFFF" fill-rule="nonzero" />
	</g>
	<g>
        <path d="M778.154 180.386L774.067 181.103C 773.81 181.149 773.549 181.049 773.381 180.838L773.381 180.838L771.004 177.771C 770.619 177.263 769.809 177.486 769.737 178.119L769.737 178.119L769.271 181.966C 769.246 182.231 769.062 182.453 768.817 182.545L768.817 182.545L764.937 184.015C 764.359 184.235 764.323 185.043 764.878 185.32L764.878 185.32L768.603 187.133C 768.844 187.251 768.993 187.48 769.005 187.746L769.005 187.746L769.119 191.692C 769.142 192.312 769.901 192.619 770.341 192.167L770.341 192.167L773.127 189.303C 773.309 189.118 773.572 189.046 773.823 189.112L773.823 189.112L777.681 190.152C 778.29 190.315 778.79 189.675 778.49 189.119L778.49 189.119L776.584 185.666C 776.458 185.43 776.469 185.157 776.616 184.933L776.616 184.933L778.894 181.472C 779.218 180.953 778.763 180.28 778.154 180.386z" stroke="none" fill="#00D7FF" fill-rule="nonzero" />
	</g>
    <path transform="matrix(0.964315 -0.264757 -0.264757 -0.964315 625.925 224.014)"  d="M4 0C 4 1.1045696 3.6094759 2.0473785 2.828427 2.828427C 2.0473785 3.6094759 1.1045696 4 0 4C -1.1045696 4 -2.0473785 3.6094759 -2.828427 2.828427C -3.6094759 2.0473785 -4 1.1045696 -4 0C -4 -1.1045696 -3.6094759 -2.0473785 -2.828427 -2.828427C -2.0473785 -3.6094759 -1.1045696 -4 0 -4C 1.1045696 -4 2.0473785 -3.6094759 2.828427 -2.828427C 3.6094759 -2.0473785 4 -1.1045696 4 0C 4 0.046546843 3.999188 0.09307951 3.9975634 0.13959798" stroke="none" fill="#DB0837" fill-rule="nonzero" />
    <path d="M643.898 213.928L646.537 223.54L645.268 223.888L644.034 219.393L638.958 220.786L640.192 225.282L638.923 225.63L636.284 216.018L637.553 215.67L638.654 219.679L643.73 218.286L642.629 214.276L643.898 213.928zM654.651 220.325L654.896 221.216C 654.686 221.37 654.438 221.487 654.15 221.566C 653.493 221.746 653.061 221.497 652.856 220.818C 652.401 221.736 651.661 222.336 650.635 222.618C 649.951 222.806 649.358 222.78 648.857 222.54C 648.364 222.298 648.034 221.871 647.866 221.259C 647.525 220.017 648.15 219.066 649.74 218.407C 649.843 218.359 649.996 218.298 650.198 218.223C 650.956 217.918 651.409 217.682 651.557 217.516C 651.724 217.315 651.76 217.039 651.664 216.688C 651.454 215.923 650.822 215.685 649.769 215.974C 649.229 216.122 648.85 216.347 648.633 216.649C 648.413 216.942 648.346 217.347 648.43 217.866L648.43 217.866L647.31 218.174C 647.122 217.422 647.229 216.768 647.628 216.214C 648.027 215.659 648.677 215.258 649.577 215.011C 650.558 214.741 651.349 214.766 651.949 215.085C 652.142 215.187 652.306 215.345 652.443 215.56C 652.579 215.774 652.672 215.956 652.723 216.107C 652.772 216.248 652.837 216.467 652.919 216.765C 653.013 217.107 653.146 217.626 653.318 218.324C 653.49 219.022 653.623 219.542 653.717 219.884C 653.786 220.136 653.867 220.308 653.96 220.398C 654.059 220.478 654.199 220.493 654.379 220.443C 654.451 220.423 654.541 220.384 654.651 220.325zM652.06 218.133C 651.996 218.218 651.926 218.295 651.848 218.365C 651.771 218.435 651.663 218.503 651.527 218.569C 651.399 218.633 651.311 218.682 651.262 218.715C 651.219 218.736 651.107 218.786 650.926 218.865C 650.742 218.935 650.645 218.971 650.636 218.974C 650.367 219.086 650.19 219.164 650.105 219.207C 650.026 219.238 649.874 219.318 649.648 219.448C 649.432 219.575 649.285 219.693 649.208 219.801C 649.131 219.909 649.066 220.058 649.011 220.247C 648.963 220.425 648.969 220.622 649.028 220.838C 649.127 221.198 649.326 221.448 649.626 221.588C 649.935 221.726 650.306 221.736 650.738 221.617C 651.287 221.466 651.733 221.17 652.076 220.727C 652.419 220.284 652.53 219.843 652.409 219.402L652.409 219.402L652.06 218.133zM657.929 212.747L658.255 213.935C 658.172 213.948 658.072 213.971 657.955 214.003C 657.586 214.104 657.282 214.25 657.044 214.441C 656.804 214.623 656.627 214.827 656.515 215.051C 656.411 215.273 656.347 215.533 656.322 215.83C 656.297 216.127 656.304 216.416 656.342 216.696C 656.389 216.973 656.46 217.283 656.554 217.625L656.554 217.625L657.362 220.568L656.214 220.883L654.302 213.917L655.395 213.617L655.806 215.115C 655.962 213.882 656.669 213.092 657.929 212.747zM664.422 208.293L667.061 217.905L665.981 218.201L665.699 217.175C 665.48 218.107 664.827 218.722 663.738 219.021C 662.748 219.292 661.87 219.18 661.104 218.684C 660.346 218.176 659.81 217.355 659.499 216.221C 659.21 215.168 659.24 214.221 659.59 213.379C 659.946 212.527 660.637 211.959 661.663 211.678C 662.662 211.403 663.527 211.573 664.256 212.185L664.256 212.185L663.274 208.608L664.422 208.293zM662.083 212.622C 661.426 212.803 660.969 213.185 660.713 213.768C 660.466 214.349 660.455 215.049 660.68 215.868C 660.912 216.714 661.291 217.336 661.816 217.733C 662.348 218.12 662.943 218.223 663.6 218.042C 664.266 217.859 664.722 217.478 664.969 216.897C 665.214 216.307 665.219 215.585 664.984 214.73C 664.774 213.964 664.418 213.375 663.918 212.961C 663.423 212.535 662.812 212.422 662.083 212.622z" stroke="none" fill="#B9C3C8" fill-rule="nonzero" />
    <path d="M673.578 266.929L671.295 267.556C 670.903 266.491 670.059 266.136 668.763 266.492C 668.207 266.644 667.801 266.878 667.545 267.192C 667.295 267.492 667.224 267.838 667.332 268.229C 667.368 268.363 667.421 268.475 667.491 268.567C 667.56 268.658 667.664 268.735 667.803 268.796C 667.938 268.848 668.071 268.889 668.201 268.919C 668.329 268.94 668.51 268.956 668.746 268.969C 668.989 268.968 669.205 268.97 669.394 268.973C 669.594 268.974 669.869 268.97 670.221 268.962C 670.573 268.954 670.882 268.952 671.148 268.956C 672.313 268.968 673.221 269.134 673.873 269.453C 674.535 269.769 674.985 270.359 675.222 271.223C 675.394 271.85 675.417 272.436 675.289 272.98C 675.159 273.513 674.911 273.979 674.545 274.379C 674.187 274.765 673.762 275.091 673.271 275.359C 672.794 275.634 672.262 275.852 671.675 276.013C 670.184 276.422 668.923 276.403 667.893 275.956C 666.871 275.495 666.184 274.644 665.832 273.403L665.832 273.403L668.223 272.746C 668.643 274.113 669.66 274.575 671.275 274.131C 671.902 273.959 672.361 273.695 672.65 273.339C 672.947 272.97 673.033 272.559 672.909 272.107C 672.805 271.726 672.559 271.495 672.171 271.413C 671.794 271.329 671.028 271.279 669.874 271.264C 669.809 271.271 669.76 271.273 669.727 271.271C 669.693 271.27 669.649 271.271 669.595 271.274C 669.538 271.268 669.487 271.265 669.443 271.266C 669.045 271.265 668.768 271.264 668.612 271.262C 668.454 271.25 668.2 271.231 667.85 271.206C 667.511 271.177 667.256 271.137 667.087 271.084C 666.917 271.031 666.702 270.951 666.441 270.846C 666.19 270.738 665.994 270.609 665.853 270.46C 665.71 270.3 665.562 270.103 665.409 269.868C 665.264 269.621 665.149 269.343 665.064 269.034C 664.79 268.036 664.957 267.133 665.564 266.325C 666.172 265.516 667.114 264.937 668.389 264.587C 669.623 264.248 670.712 264.264 671.655 264.636C 672.595 264.998 673.236 265.762 673.578 266.929zM682.635 264.177L684.821 272.138L682.738 272.71L682.429 271.583C 682.06 272.658 681.321 273.348 680.21 273.653C 679.335 273.893 678.586 273.844 677.963 273.507C 677.347 273.156 676.91 272.512 676.653 271.576L676.653 271.576L675.183 266.223L677.39 265.617L678.639 270.168C 678.721 270.467 678.798 270.706 678.869 270.885C 678.948 271.051 679.054 271.216 679.187 271.378C 679.32 271.541 679.492 271.643 679.703 271.685C 679.921 271.714 680.179 271.687 680.477 271.605C 681.629 271.289 681.999 270.38 681.587 268.878L681.587 268.878L680.46 264.774L682.635 264.177zM685.643 260.099L686.741 264.095C 687.146 263.154 687.878 262.538 688.938 262.247C 689.997 261.956 690.936 262.113 691.755 262.718C 692.574 263.323 693.145 264.217 693.47 265.4C 693.82 266.675 693.775 267.799 693.334 268.772C 692.901 269.732 692.16 270.355 691.11 270.643C 690.01 270.946 689.065 270.768 688.276 270.111L688.276 270.111L688.567 271.109L686.484 271.681L683.468 260.696L685.643 260.099zM688.721 264.115C 688.134 264.276 687.727 264.626 687.499 265.164C 687.278 265.689 687.271 266.327 687.477 267.078C 687.689 267.85 688.025 268.41 688.486 268.759C 688.947 269.108 689.475 269.201 690.072 269.037C 690.638 268.882 691.028 268.531 691.243 267.985C 691.469 267.437 691.477 266.782 691.268 266.021C 691.068 265.29 690.732 264.752 690.261 264.406C 689.8 264.057 689.286 263.96 688.721 264.115zM708.198 265.72L705.976 266.33L704.671 261.578C 704.527 261.053 704.335 260.674 704.094 260.442C 703.85 260.199 703.471 260.148 702.957 260.289C 701.939 260.569 701.605 261.347 701.955 262.622L701.955 262.622L703.183 267.096L700.992 267.698L699.662 262.853C 699.527 262.36 699.34 262.002 699.102 261.779C 698.861 261.547 698.504 261.495 698.031 261.625C 696.972 261.916 696.632 262.756 697.014 264.145L697.014 264.145L698.2 268.465L696.009 269.066L693.823 261.105L695.906 260.533L696.207 261.628C 696.594 260.582 697.318 259.913 698.377 259.622C 699.478 259.32 700.349 259.551 700.99 260.315C 701.387 259.266 702.137 258.59 703.237 258.288C 704.111 258.048 704.851 258.121 705.455 258.509C 706.066 258.883 706.491 259.502 706.728 260.366L706.728 260.366L708.198 265.72zM709.151 253.645L709.659 255.496L707.468 256.098L706.96 254.246L709.151 253.645zM709.981 256.669L712.167 264.63L709.976 265.232L707.79 257.27L709.981 256.669zM716.088 254.992L716.495 256.473L714.875 256.918L715.904 260.667C 715.969 260.904 716.022 261.077 716.064 261.188C 716.102 261.288 716.168 261.386 716.261 261.482C 716.353 261.578 716.467 261.63 716.602 261.637C 716.744 261.631 716.933 261.596 717.17 261.531C 717.437 261.457 717.656 261.386 717.825 261.318L717.825 261.318L718.282 262.984C 717.759 263.172 717.322 263.314 716.972 263.41C 716.016 263.673 715.317 263.688 714.877 263.454C 714.445 263.208 714.097 262.607 713.834 261.65L713.834 261.65L712.699 257.515L711.372 257.88L710.966 256.398L712.293 256.034L711.632 253.627L713.807 253.03L714.468 255.437L716.088 254.992zM726.555 251.969L727.11 253.99C 726.785 254.013 726.493 254.06 726.236 254.13C 725.516 254.328 725.05 254.705 724.838 255.261C 724.623 255.807 724.621 256.465 724.833 257.237L724.833 257.237L725.832 260.878L723.641 261.48L721.456 253.518L723.539 252.946L723.941 254.412C 724.163 253.168 724.871 252.381 726.064 252.054C 726.167 252.026 726.331 251.997 726.555 251.969zM736.142 255.393C 736.129 256.314 735.853 257.104 735.315 257.76C 734.786 258.414 734.064 258.867 733.149 259.118C 731.925 259.454 730.833 259.345 729.873 258.79C 728.924 258.232 728.277 257.326 727.932 256.071C 727.593 254.836 727.689 253.715 728.22 252.706C 728.75 251.698 729.597 251.034 730.759 250.715C 731.962 250.385 733.032 250.533 733.968 251.162C 734.9 251.779 735.559 252.788 735.943 254.186L735.943 254.186L736.002 254.402L730.294 255.97C 730.493 256.656 730.802 257.136 731.219 257.408C 731.647 257.678 732.155 257.732 732.741 257.571C 733.512 257.359 733.946 256.825 734.043 255.969L734.043 255.969L736.142 255.393zM733.399 253.624C 733.204 253.113 732.917 252.733 732.539 252.483C 732.157 252.223 731.71 252.163 731.195 252.304C 730.712 252.437 730.354 252.707 730.123 253.113C 729.892 253.519 729.822 254.009 729.912 254.581L729.912 254.581L733.399 253.624zM738.077 248.955L738.349 249.942C 738.704 248.982 739.417 248.355 740.487 248.061C 741.557 247.767 742.521 247.917 743.381 248.511C 744.241 249.104 744.847 250.044 745.2 251.33C 745.542 252.574 745.499 253.665 745.07 254.601C 744.649 255.524 743.919 256.128 742.88 256.413C 741.81 256.707 740.883 256.536 740.1 255.899L740.1 255.899L741.147 259.71L738.971 260.307L736.01 249.522L738.077 248.955zM740.43 249.968C 739.833 250.132 739.424 250.476 739.204 251.002C 738.993 251.524 738.994 252.171 739.206 252.942C 739.417 253.714 739.752 254.269 740.21 254.608C 740.668 254.947 741.196 255.034 741.792 254.87C 742.379 254.709 742.777 254.368 742.988 253.845C 743.208 253.32 743.216 252.682 743.01 251.931C 742.798 251.16 742.461 250.599 742.001 250.25C 741.54 249.901 741.016 249.807 740.43 249.968zM749.298 245.625C 750.522 245.289 751.61 245.405 752.562 245.973C 753.525 246.539 754.18 247.454 754.527 248.719C 754.878 249.994 754.783 251.121 754.244 252.099C 753.715 253.073 752.829 253.732 751.584 254.073C 750.339 254.415 749.236 254.303 748.273 253.738C 747.31 253.173 746.654 252.252 746.304 250.977C 745.956 249.712 746.057 248.589 746.607 247.608C 747.156 246.628 748.053 245.967 749.298 245.625zM749.693 247.309C 749.107 247.469 748.706 247.823 748.491 248.369C 748.276 248.914 748.277 249.583 748.495 250.375C 748.718 251.188 749.061 251.774 749.525 252.133C 749.989 252.493 750.524 252.589 751.131 252.422C 751.738 252.256 752.143 251.901 752.348 251.358C 752.561 250.802 752.555 250.118 752.332 249.305C 752.115 248.513 751.77 247.944 751.299 247.598C 750.836 247.238 750.3 247.142 749.693 247.309zM760.005 242.785L760.56 244.806C 760.234 244.829 759.943 244.876 759.686 244.947C 758.966 245.144 758.5 245.521 758.287 246.077C 758.072 246.623 758.071 247.282 758.282 248.053L758.282 248.053L759.282 251.694L757.091 252.296L754.905 244.335L756.988 243.763L757.391 245.228C 757.613 243.984 758.321 243.198 759.514 242.87C 759.617 242.842 759.781 242.813 760.005 242.785zM765.253 241.493L765.66 242.975L764.04 243.419L765.069 247.169C 765.134 247.405 765.187 247.579 765.229 247.689C 765.267 247.789 765.333 247.887 765.426 247.983C 765.518 248.08 765.632 248.131 765.767 248.139C 765.909 248.133 766.098 248.097 766.335 248.032C 766.602 247.959 766.821 247.888 766.99 247.819L766.99 247.819L767.447 249.486C 766.924 249.674 766.487 249.816 766.137 249.912C 765.181 250.174 764.483 250.189 764.042 249.956C 763.61 249.71 763.262 249.108 763 248.152L763 248.152L761.864 244.017L760.537 244.381L760.131 242.9L761.458 242.536L760.797 240.129L762.972 239.531L763.633 241.938L765.253 241.493z" stroke="none" fill="#282828" fill-rule="nonzero" />
    <path d="M684.479 289.894L684.783 291.001L681.556 291.887L683.891 300.392L682.622 300.741L680.287 292.235L677.061 293.121L676.757 292.014L684.479 289.894zM685.625 293.281C 686.054 292.447 686.795 291.886 687.848 291.597C 688.901 291.308 689.808 291.402 690.569 291.881C 691.329 292.359 691.868 293.174 692.184 294.326C 692.508 295.505 692.467 296.504 692.062 297.321C 691.658 298.139 690.924 298.694 689.862 298.985C 688.8 299.277 687.879 299.181 687.098 298.699C 686.317 298.216 685.768 297.399 685.452 296.247C 685.138 295.104 685.196 294.115 685.625 293.281zM689.882 292.868C 689.359 292.479 688.76 292.377 688.085 292.563C 687.41 292.748 686.942 293.142 686.682 293.746C 686.422 294.35 686.405 295.066 686.633 295.894C 686.868 296.749 687.245 297.366 687.766 297.746C 688.293 298.114 688.907 298.202 689.609 298.009C 690.284 297.824 690.744 297.436 690.988 296.847C 691.242 296.254 691.251 295.531 691.017 294.676C 690.789 293.848 690.411 293.245 689.882 292.868zM698.426 286.065L701.065 295.677L699.985 295.974L699.704 294.947C 699.485 295.879 698.831 296.494 697.742 296.793C 696.752 297.064 695.874 296.952 695.109 296.456C 694.35 295.948 693.815 295.127 693.504 293.993C 693.215 292.94 693.245 291.993 693.595 291.151C 693.951 290.299 694.642 289.731 695.668 289.45C 696.667 289.175 697.531 289.345 698.261 289.957L698.261 289.957L697.279 286.38L698.426 286.065zM696.087 290.394C 695.43 290.575 694.974 290.957 694.718 291.54C 694.471 292.121 694.459 292.821 694.684 293.64C 694.917 294.486 695.295 295.108 695.821 295.505C 696.353 295.892 696.947 295.995 697.604 295.814C 698.27 295.631 698.727 295.25 698.974 294.669C 699.218 294.079 699.223 293.357 698.989 292.502C 698.779 291.736 698.423 291.147 697.922 290.733C 697.428 290.307 696.816 290.194 696.087 290.394zM708.978 292.517L709.223 293.408C 709.013 293.563 708.765 293.679 708.477 293.758C 707.82 293.939 707.388 293.689 707.183 293.01C 706.728 293.929 705.988 294.529 704.962 294.81C 704.278 294.998 703.685 294.972 703.184 294.732C 702.691 294.49 702.361 294.063 702.193 293.451C 701.852 292.209 702.477 291.258 704.067 290.599C 704.17 290.551 704.323 290.49 704.525 290.415C 705.283 290.11 705.736 289.875 705.884 289.708C 706.051 289.507 706.087 289.231 705.991 288.88C 705.781 288.115 705.149 287.877 704.096 288.167C 703.556 288.315 703.177 288.54 702.96 288.841C 702.74 289.134 702.673 289.54 702.757 290.059L702.757 290.059L701.637 290.366C 701.449 289.614 701.556 288.961 701.955 288.406C 702.354 287.851 703.004 287.45 703.904 287.203C 704.885 286.934 705.676 286.959 706.276 287.278C 706.469 287.38 706.633 287.538 706.77 287.752C 706.906 287.966 706.999 288.149 707.05 288.299C 707.099 288.441 707.164 288.66 707.246 288.957C 707.34 289.299 707.473 289.819 707.645 290.517C 707.817 291.215 707.95 291.735 708.044 292.077C 708.113 292.329 708.194 292.5 708.287 292.591C 708.386 292.67 708.526 292.685 708.706 292.636C 708.778 292.616 708.868 292.576 708.978 292.517zM706.387 290.325C 706.323 290.41 706.253 290.488 706.175 290.557C 706.098 290.627 705.99 290.695 705.854 290.762C 705.726 290.826 705.638 290.874 705.589 290.907C 705.546 290.929 705.434 290.979 705.253 291.058C 705.069 291.127 704.972 291.164 704.963 291.166C 704.694 291.279 704.517 291.356 704.432 291.399C 704.353 291.43 704.201 291.511 703.975 291.64C 703.759 291.768 703.612 291.885 703.535 291.994C 703.458 292.102 703.393 292.251 703.338 292.44C 703.29 292.617 703.296 292.814 703.355 293.03C 703.454 293.39 703.653 293.64 703.953 293.781C 704.262 293.919 704.633 293.928 705.065 293.81C 705.614 293.659 706.06 293.362 706.403 292.92C 706.746 292.477 706.857 292.035 706.736 291.594L706.736 291.594L706.387 290.325zM714.434 284.515L713.607 293.192C 713.577 293.539 713.54 293.81 713.497 294.006C 713.465 294.208 713.397 294.435 713.292 294.687C 713.198 294.945 713.051 295.15 712.851 295.301C 712.662 295.46 712.419 295.58 712.122 295.661C 711.897 295.723 711.603 295.76 711.238 295.773L711.238 295.773L710.957 294.747C 711.317 294.755 711.578 294.736 711.74 294.692C 712.118 294.588 712.335 294.32 712.39 293.889L712.39 293.889L712.582 292.471L707.913 286.306L709.209 285.95L712.798 290.931L713.232 284.845L714.434 284.515zM717.943 289.432L718.196 290.35C 718.289 290.692 718.351 290.985 718.379 291.228C 718.418 291.479 718.422 291.739 718.39 292.009C 718.358 292.28 718.26 292.524 718.098 292.743C 717.938 292.971 717.707 293.17 717.405 293.34L717.405 293.34L717.22 292.665C 717.661 292.369 717.788 291.86 717.599 291.138L717.599 291.138L716.856 291.342L716.445 289.843L717.943 289.432zM728.015 278.173L728.286 279.159C 726.853 282.117 726.403 285.256 726.936 288.574L726.936 288.574L725.667 288.922C 725.37 287.417 725.356 285.848 725.624 284.216C 725.901 282.582 726.407 281.039 727.141 279.589L727.141 279.589L722.132 280.964L721.832 279.871L728.015 278.173zM733.77 285.086L734.182 286.585L732.683 286.996L732.272 285.498L733.77 285.086zM732.269 279.619L732.68 281.117L731.182 281.529L730.77 280.03L732.269 279.619zM734.435 279.561C 734.191 278.564 734.255 277.723 734.629 277.04C 735.012 276.354 735.676 275.881 736.621 275.622C 737.467 275.39 738.209 275.433 738.848 275.751C 739.487 276.069 739.909 276.601 740.114 277.348C 740.238 277.798 740.232 278.236 740.097 278.66C 739.968 279.073 739.72 279.421 739.353 279.706C 739.928 279.684 740.43 279.836 740.858 280.164C 741.287 280.491 741.582 280.948 741.742 281.533C 741.993 282.412 741.884 283.212 741.414 283.931C 740.95 284.639 740.227 285.128 739.246 285.397C 738.274 285.664 737.423 285.613 736.692 285.242C 735.968 284.86 735.481 284.215 735.231 283.306L735.231 283.306L735.183 283.13L736.317 282.819C 736.532 283.496 736.87 283.969 737.331 284.239C 737.793 284.509 738.343 284.557 738.982 284.381C 739.594 284.213 740.042 283.906 740.326 283.461C 740.617 283.003 740.687 282.5 740.536 281.951C 740.383 281.393 740.067 281.001 739.588 280.774C 739.119 280.545 738.56 280.519 737.912 280.697C 737.75 280.741 737.548 280.816 737.306 280.921L737.306 280.921L737.039 279.949C 737.168 279.924 737.299 279.893 737.434 279.855C 738.028 279.692 738.458 279.424 738.724 279.051C 738.996 278.667 739.065 278.232 738.931 277.746C 738.803 277.278 738.546 276.942 738.161 276.738C 737.785 276.531 737.345 276.497 736.841 276.636C 736.265 276.794 735.865 277.102 735.643 277.56C 735.418 278.009 735.389 278.573 735.556 279.253L735.556 279.253L734.435 279.561zM744.473 273.466C 745.049 273.308 745.569 273.281 746.034 273.386C 746.505 273.479 746.89 273.649 747.19 273.896C 747.49 274.143 747.771 274.496 748.033 274.957C 748.292 275.408 748.49 275.828 748.626 276.217C 748.759 276.596 748.901 277.061 749.052 277.61C 749.19 278.114 749.292 278.574 749.359 278.992C 749.434 279.407 749.464 279.853 749.45 280.331C 749.446 280.807 749.371 281.224 749.228 281.583C 749.082 281.932 748.841 282.255 748.506 282.55C 748.171 282.846 747.738 283.066 747.207 283.212C 746.649 283.365 746.137 283.404 745.671 283.329C 745.212 283.242 744.83 283.085 744.526 282.859C 744.222 282.633 743.942 282.318 743.686 281.914C 743.436 281.498 743.239 281.098 743.094 280.712C 742.947 280.316 742.802 279.858 742.659 279.336C 742.535 278.886 742.437 278.492 742.363 278.154C 742.299 277.813 742.241 277.428 742.19 276.996C 742.146 276.553 742.157 276.168 742.222 275.841C 742.284 275.504 742.392 275.175 742.545 274.852C 742.699 274.529 742.937 274.251 743.26 274.017C 743.592 273.78 743.996 273.597 744.473 273.466zM745.542 274.45C 745.296 274.401 745.034 274.415 744.755 274.492C 744.476 274.569 744.243 274.69 744.057 274.858C 743.868 275.016 743.725 275.181 743.627 275.353C 743.529 275.525 743.467 275.76 743.443 276.057C 743.415 276.345 743.404 276.586 743.408 276.778C 743.422 276.968 743.462 277.238 743.529 277.587C 743.593 277.927 743.645 278.17 743.685 278.314C 743.722 278.449 743.785 278.678 743.874 279.002C 743.96 279.317 744.036 279.577 744.102 279.782C 744.168 279.986 744.265 280.25 744.392 280.573C 744.519 280.896 744.659 281.158 744.811 281.358C 744.96 281.549 745.133 281.739 745.33 281.927C 745.524 282.106 745.754 282.222 746.021 282.275C 746.293 282.316 746.587 282.293 746.902 282.207C 747.172 282.133 747.397 282.018 747.577 281.862C 747.766 281.703 747.909 281.538 748.007 281.366C 748.105 281.194 748.166 280.974 748.189 280.707C 748.219 280.427 748.231 280.192 748.227 279.999C 748.22 279.798 748.184 279.542 748.118 279.231C 748.058 278.908 748.009 278.675 747.969 278.531C 747.936 278.376 747.88 278.154 747.801 277.866C 747.714 277.551 747.653 277.326 747.616 277.191C 747.579 277.056 747.501 276.826 747.382 276.5C 747.264 276.174 747.157 275.928 747.063 275.76C 746.978 275.59 746.85 275.388 746.679 275.154C 746.508 274.92 746.337 274.754 746.165 274.657C 745.993 274.559 745.785 274.49 745.542 274.45z" stroke="none" fill="#B9C3C8" fill-rule="nonzero" />
    <path d="M760.331 282.517C 756.662 276.687 760.089 273.249 760.089 273.249C 760.736 276.72 763.383 278.836 763.383 278.836C 764.031 278.428 765.106 277.057 765.106 277.057C 765.439 278.271 765.453 281.109 765.453 281.109C 765.453 281.109 767.414 278.492 767.317 275.066C 767.219 271.64 764.058 269.041 764.058 269.041C 764.819 271.276 764.666 273.721 763.634 275.841C 763.685 275.734 763.722 275.62 763.741 275.502C 763.862 274.886 763.909 273.361 762.761 270.173C 761.149 265.699 756.49 264.905 756.49 264.905C 757.611 267.593 756.72 268.528 755.672 274.502C 754.623 280.475 760.331 282.517 760.331 282.517z" stroke="none" fill="#FF851C" fill-rule="nonzero" />
    <path d="M635.706 354.065L708.512 334.076C 715.169 332.248 722.047 336.163 723.875 342.821C 725.703 349.478 721.788 356.356 715.131 358.184L715.131 358.184L642.325 378.173L635.706 354.065z" stroke="none" fill="#D3F6CE" fill-rule="nonzero" />
    <path d="M658.268 356.341L659.297 356.058L662.525 361.959L662.5 355.179L663.593 354.879L667.012 360.727L666.828 353.991L667.825 353.717L667.883 361.823L666.833 362.111L663.358 356.267L663.333 363.072L662.282 363.361L658.268 356.341zM672.122 352.343C 673.268 352.029 674.258 352.145 675.092 352.691C 675.925 353.231 676.5 354.08 676.819 355.24C 677.139 356.407 677.089 357.455 676.667 358.385C 676.245 359.314 675.458 359.937 674.305 360.253C 673.719 360.415 673.163 360.453 672.638 360.369C 672.113 360.285 671.65 360.097 671.25 359.803C 670.857 359.508 670.517 359.141 670.23 358.703C 669.949 358.263 669.732 357.764 669.579 357.205C 669.254 356.024 669.322 354.994 669.78 354.116C 670.245 353.235 671.026 352.644 672.122 352.343zM672.361 353.213C 671.52 353.444 670.954 353.919 670.665 354.637C 670.38 355.346 670.357 356.136 670.596 357.006C 670.856 357.953 671.301 358.645 671.93 359.08C 672.564 359.507 673.281 359.611 674.08 359.391C 674.872 359.174 675.427 358.717 675.746 358.021C 676.064 357.326 676.095 356.507 675.836 355.567C 675.58 354.633 675.135 353.953 674.5 353.527C 673.873 353.098 673.16 352.994 672.361 353.213zM677.261 351.126L680.581 350.215C 682.271 349.751 683.307 350.215 683.69 351.608C 683.81 352.047 683.797 352.469 683.65 352.874C 683.507 353.271 683.258 353.579 682.9 353.799C 683.17 353.785 683.397 353.81 683.582 353.874C 683.767 353.937 683.92 354.055 684.044 354.226C 684.167 354.398 684.259 354.555 684.321 354.697C 684.383 354.84 684.461 355.054 684.555 355.341C 684.563 355.369 684.586 355.439 684.624 355.55C 684.66 355.654 684.684 355.727 684.696 355.77C 684.705 355.805 684.727 355.871 684.761 355.968C 684.803 356.063 684.834 356.135 684.854 356.182C 684.875 356.23 684.904 356.294 684.942 356.375C 684.979 356.456 685.016 356.522 685.053 356.573C 685.088 356.616 685.129 356.67 685.177 356.733C 685.222 356.788 685.271 356.84 685.322 356.887C 685.371 356.927 685.422 356.962 685.476 356.993L685.476 356.993L684.331 357.307C 684.262 357.25 684.195 357.173 684.13 357.077C 684.073 356.979 684.018 356.861 683.965 356.723C 683.91 356.578 683.867 356.465 683.837 356.382C 683.805 356.292 683.762 356.163 683.708 355.995C 683.654 355.827 683.625 355.733 683.619 355.712C 683.407 355.078 683.155 354.687 682.863 354.539C 682.579 354.389 682.097 354.407 681.418 354.593L681.418 354.593L679.435 355.138L680.332 358.405L679.334 358.679L677.261 351.126zM678.491 351.701L679.216 354.342L681.094 353.827C 681.327 353.763 681.52 353.702 681.671 353.646C 681.83 353.587 681.998 353.506 682.175 353.404C 682.353 353.303 682.485 353.19 682.573 353.067C 682.668 352.942 682.731 352.784 682.763 352.593C 682.794 352.402 682.776 352.186 682.71 351.946C 682.57 351.437 682.321 351.136 681.961 351.045C 681.606 350.945 681.164 350.967 680.634 351.113L680.634 351.113L678.491 351.701zM690.866 347.391L688.516 351.298L693.067 354.909L691.794 355.258L688.003 352.17L687.077 353.701L687.805 356.353L686.808 356.627L684.735 349.074L685.732 348.801L686.76 352.545L689.561 347.749L690.866 347.391z" stroke="none" fill="#282828" fill-rule="nonzero" />
	<g>
        <path transform="matrix(0.96432674 -0.26471472 0.26471472 0.96432674 -33.368225 164.92218)"  d="M595.222 216.266C 595.222 210.74316 599.69916 206.266 605.222 206.266L605.222 206.266L790.222 206.266C 795.7448 206.266 800.222 210.74316 800.222 216.266L800.222 216.266L800.222 395.266C 800.222 400.78885 795.7448 405.266 790.222 405.266L790.222 405.266L605.222 405.266C 599.69916 405.266 595.222 400.78885 595.222 395.266L595.222 395.266L595.222 216.266z" stroke="none" fill="#15395A" fill-rule="nonzero" />
	</g>
    <path d="M629.071 221.905C 629.248 222.883 629.121 223.72 628.688 224.417C 628.261 225.104 627.577 225.577 626.637 225.835C 625.562 226.131 624.613 226.011 623.789 225.476C 622.964 224.935 622.385 224.06 622.053 222.85C 621.742 221.719 621.799 220.692 622.222 219.77C 622.651 218.838 623.424 218.219 624.542 217.912C 625.341 217.693 626.104 217.716 626.83 217.98C 627.557 218.244 628.06 218.749 628.341 219.493L628.341 219.493L627.343 219.767C 627.094 219.303 626.741 218.985 626.284 218.814C 625.824 218.636 625.315 218.624 624.756 218.777C 623.915 219.008 623.36 219.48 623.091 220.193C 622.83 220.903 622.819 221.693 623.058 222.563C 623.322 223.525 623.756 224.219 624.36 224.647C 624.964 225.074 625.658 225.18 626.443 224.965C 627.087 224.788 627.549 224.463 627.83 223.991C 628.109 223.511 628.19 222.907 628.074 222.179L628.074 222.179L629.071 221.905zM632.173 215.806C 633.318 215.492 634.308 215.608 635.143 216.154C 635.975 216.694 636.551 217.544 636.869 218.703C 637.189 219.87 637.139 220.918 636.717 221.848C 636.295 222.777 635.508 223.4 634.356 223.717C 633.769 223.878 633.213 223.916 632.688 223.832C 632.163 223.748 631.7 223.56 631.3 223.266C 630.908 222.971 630.567 222.604 630.28 222.166C 629.999 221.726 629.782 221.227 629.629 220.668C 629.305 219.487 629.372 218.457 629.83 217.578C 630.296 216.698 631.077 216.107 632.173 215.806zM632.412 216.676C 631.57 216.907 631.004 217.382 630.715 218.1C 630.431 218.809 630.408 219.599 630.646 220.469C 630.907 221.416 631.351 222.108 631.98 222.543C 632.615 222.97 633.331 223.074 634.13 222.854C 634.922 222.637 635.478 222.18 635.796 221.485C 636.115 220.789 636.145 219.971 635.887 219.03C 635.63 218.097 635.185 217.417 634.551 216.99C 633.924 216.561 633.211 216.457 632.412 216.676zM637.11 214.645L638.489 214.266L642.674 219.996L643.262 212.956L644.652 212.575L646.725 220.127L645.781 220.386L644.051 214.085L643.416 221.036L642.546 221.274L638.408 215.634L640.138 221.935L639.183 222.197L637.11 214.645zM646.382 212.1L649.49 211.246C 650.261 211.035 650.921 211.044 651.471 211.273C 652.018 211.495 652.395 211.981 652.601 212.731C 653.018 214.251 652.368 215.247 650.649 215.719L650.649 215.719L648.602 216.281L649.452 219.378L648.455 219.652L646.382 212.1zM647.615 212.685L648.372 215.443L650.292 214.916C 650.829 214.768 651.219 214.555 651.462 214.275C 651.71 213.987 651.763 213.584 651.621 213.068C 651.542 212.778 651.426 212.551 651.275 212.388C 651.13 212.222 650.954 212.118 650.745 212.077C 650.535 212.035 650.328 212.028 650.122 212.054C 649.914 212.073 649.673 212.12 649.397 212.196L649.397 212.196L647.615 212.685zM660.07 215.529L660.308 216.398L655.302 217.773L653.228 210.22L654.226 209.946L656.06 216.629L660.07 215.529zM664.342 207.17L664.58 208.039L660.348 209.201L660.997 211.567L664.954 210.481L665.184 211.319L661.227 212.405L661.944 215.014L666.229 213.838L666.468 214.708L661.185 216.158L659.112 208.605L664.342 207.17zM670.837 205.387L671.076 206.256L668.54 206.952L670.375 213.635L669.378 213.909L667.543 207.226L665.008 207.922L664.769 207.052L670.837 205.387zM676.917 203.717L677.156 204.587L672.924 205.749L673.573 208.115L677.53 207.028L677.76 207.866L673.803 208.953L674.519 211.562L678.805 210.386L679.044 211.255L673.761 212.706L671.688 205.153L676.917 203.717zM678.173 203.373L680.634 202.697C 681.914 202.346 682.939 202.384 683.71 202.811C 684.482 203.238 685.044 204.095 685.397 205.382C 685.745 206.648 685.725 207.684 685.338 208.49C 684.949 209.288 684.132 209.859 682.887 210.2L682.887 210.2L680.246 210.925L678.173 203.373zM679.406 203.958L681.007 209.792L682.524 209.376C 683.472 209.116 684.094 208.698 684.393 208.122C 684.696 207.537 684.713 206.752 684.443 205.77C 684.159 204.737 683.744 204.041 683.197 203.682C 682.649 203.323 681.877 203.28 680.88 203.554L680.88 203.554L679.406 203.958zM688.611 207.363L688.935 208.54L687.757 208.864L687.434 207.686L688.611 207.363zM687.432 203.067L687.755 204.244L686.578 204.567L686.255 203.39L687.432 203.067z" stroke="none" fill="#FFFFFF" fill-rule="nonzero" />
    <path d="M695.743 198.55L696.846 198.247L700.826 204.227L701.217 197.047L702.267 196.759L701.646 205.051L700.5 205.366L695.743 198.55zM703.696 196.366L703.999 197.47L703.087 197.72L702.784 196.617L703.696 196.366zM704.267 198.446L705.769 203.919L704.857 204.17L703.354 198.696L704.267 198.446zM710.163 198.538L709.261 198.786C 709.022 198.136 708.486 197.926 707.651 198.155C 707.305 198.25 707.051 198.392 706.89 198.581C 706.729 198.77 706.679 198.977 706.741 199.204C 706.759 199.267 706.783 199.329 706.815 199.389C 706.844 199.441 706.884 199.488 706.933 199.527C 706.987 199.558 707.033 199.587 707.071 199.615C 707.116 199.641 707.179 199.661 707.259 199.677C 707.345 199.684 707.408 199.694 707.449 199.705C 707.497 199.715 707.575 199.72 707.682 199.721C 707.794 199.713 707.873 199.71 707.919 199.713C 707.963 199.708 708.05 199.704 708.178 199.699C 708.313 199.692 708.399 199.688 708.436 199.685C 708.713 199.67 708.92 199.662 709.057 199.663C 709.201 199.661 709.4 199.679 709.654 199.716C 709.912 199.744 710.116 199.794 710.266 199.867C 710.413 199.933 710.558 200.046 710.7 200.204C 710.848 200.354 710.953 200.542 711.015 200.768C 711.16 201.299 711.069 201.784 710.741 202.223C 710.418 202.654 709.914 202.964 709.228 203.152C 708.486 203.356 707.868 203.351 707.376 203.136C 706.89 202.919 706.549 202.507 706.352 201.9L706.352 201.9L707.243 201.655C 707.504 202.412 708.105 202.662 709.045 202.404C 709.449 202.293 709.748 202.123 709.944 201.895C 710.145 201.657 710.207 201.4 710.132 201.125C 710.081 200.941 709.976 200.806 709.815 200.721C 709.655 200.636 709.49 200.59 709.321 200.583C 709.15 200.569 708.91 200.566 708.601 200.575C 708.556 200.58 708.522 200.582 708.499 200.58C 708.432 200.584 708.286 200.593 708.062 200.609C 707.844 200.616 707.684 200.618 707.585 200.615C 707.485 200.612 707.339 200.606 707.147 200.598C 706.96 200.581 706.815 200.552 706.712 200.512C 706.608 200.464 706.489 200.406 706.356 200.336C 706.228 200.257 706.124 200.156 706.045 200.034C 705.964 199.904 705.899 199.75 705.85 199.574C 705.714 199.079 705.794 198.635 706.089 198.242C 706.392 197.847 706.861 197.562 707.497 197.388C 708.141 197.211 708.706 197.219 709.193 197.413C 709.686 197.604 710.01 197.979 710.163 198.538zM711.351 194.265L711.654 195.368L710.742 195.619L710.439 194.515L711.351 194.265zM711.922 196.344L713.425 201.818L712.512 202.068L711.01 196.595L711.922 196.344zM715.663 195.317L715.867 196.06L714.774 196.36L715.651 199.553C 715.699 199.729 715.731 199.846 715.747 199.903C 715.77 199.957 715.812 200.029 715.875 200.118C 715.935 200.201 716.012 200.244 716.104 200.249C 716.197 200.254 716.321 200.235 716.477 200.193C 716.611 200.156 716.771 200.101 716.956 200.027L716.956 200.027L717.169 200.801C 716.922 200.899 716.696 200.977 716.491 201.033C 716.236 201.103 716.016 201.133 715.831 201.123C 715.646 201.113 715.497 201.085 715.386 201.04C 715.282 200.992 715.184 200.886 715.093 200.721C 715 200.549 714.934 200.403 714.894 200.285C 714.852 200.16 714.791 199.952 714.711 199.662C 714.706 199.641 714.702 199.627 714.7 199.62C 714.696 199.606 714.691 199.588 714.685 199.567C 714.679 199.545 714.674 199.528 714.671 199.514L714.671 199.514L713.873 196.607L712.95 196.86L712.746 196.118L713.669 195.865L713.223 194.242L714.125 193.994L714.571 195.617L715.663 195.317zM721.961 193.588L722.165 194.331L721.073 194.631L721.949 197.824C 721.998 198 722.03 198.117 722.045 198.174C 722.068 198.228 722.11 198.3 722.173 198.39C 722.233 198.472 722.31 198.515 722.403 198.52C 722.495 198.525 722.619 198.507 722.775 198.464C 722.909 198.427 723.069 198.372 723.254 198.298L723.254 198.298L723.467 199.072C 723.22 199.171 722.994 199.248 722.789 199.304C 722.534 199.374 722.314 199.404 722.129 199.394C 721.944 199.384 721.796 199.356 721.684 199.311C 721.58 199.263 721.482 199.157 721.391 198.992C 721.299 198.82 721.232 198.674 721.192 198.556C 721.15 198.431 721.089 198.223 721.01 197.933C 721.004 197.912 721 197.898 720.998 197.891C 720.994 197.877 720.989 197.859 720.983 197.838C 720.978 197.817 720.973 197.799 720.969 197.785L720.969 197.785L720.171 194.878L719.248 195.132L719.044 194.389L719.967 194.136L719.522 192.513L720.423 192.265L720.869 193.888L721.961 193.588zM723.294 190.987L724.077 193.84C 724.313 193.121 724.827 192.653 725.62 192.436C 726.85 192.098 727.636 192.551 727.978 193.796L727.978 193.796L729.006 197.541L728.104 197.788L727.134 194.256C 727.02 193.839 726.844 193.545 726.607 193.374C 726.375 193.194 726.033 193.166 725.58 193.291C 725.029 193.442 724.681 193.728 724.538 194.147C 724.402 194.565 724.424 195.102 724.604 195.76L724.604 195.76L725.367 198.539L724.466 198.787L722.392 191.234L723.294 190.987zM734.563 194.156C 734.637 195.504 734.016 196.359 732.701 196.72C 731.894 196.941 731.193 196.864 730.595 196.488C 730.005 196.11 729.587 195.476 729.343 194.585C 729.1 193.701 729.137 192.923 729.454 192.25C 729.777 191.568 730.316 191.124 731.073 190.916C 731.915 190.685 732.616 190.801 733.176 191.263C 733.741 191.716 734.143 192.377 734.382 193.247L734.382 193.247L734.417 193.374L730.301 194.504L730.308 194.571C 730.467 195.151 730.745 195.565 731.14 195.814C 731.535 196.063 731.998 196.115 732.529 195.969C 732.925 195.86 733.211 195.683 733.386 195.437C 733.569 195.189 733.668 194.842 733.683 194.397L733.683 194.397L734.563 194.156zM733.283 192.899C 733.097 192.387 732.826 192.024 732.471 191.81C 732.113 191.589 731.708 191.54 731.256 191.664C 730.817 191.785 730.494 192.033 730.285 192.41C 730.077 192.786 730.015 193.241 730.1 193.772L730.1 193.772L733.283 192.899zM741.869 185.888L743.942 193.44L743.094 193.673L742.872 192.867C 742.7 193.599 742.187 194.082 741.331 194.317C 740.553 194.53 739.863 194.442 739.262 194.052C 738.666 193.653 738.245 193.008 738.001 192.117C 737.774 191.29 737.798 190.545 738.072 189.884C 738.352 189.214 738.895 188.769 739.702 188.547C 740.487 188.332 741.166 188.465 741.739 188.946L741.739 188.946L740.967 186.135L741.869 185.888zM740.031 189.29C 739.515 189.431 739.156 189.731 738.955 190.19C 738.761 190.646 738.752 191.196 738.928 191.839C 739.111 192.504 739.409 192.993 739.821 193.305C 740.239 193.609 740.706 193.69 741.223 193.548C 741.746 193.404 742.105 193.104 742.299 192.648C 742.491 192.185 742.495 191.617 742.31 190.945C 742.145 190.344 741.866 189.881 741.473 189.556C 741.084 189.221 740.604 189.132 740.031 189.29zM749.501 190.055C 749.574 191.404 748.954 192.259 747.638 192.62C 746.832 192.841 746.13 192.764 745.533 192.388C 744.942 192.01 744.525 191.375 744.28 190.484C 744.038 189.6 744.075 188.822 744.392 188.15C 744.714 187.468 745.254 187.023 746.011 186.815C 746.852 186.584 747.553 186.7 748.113 187.162C 748.679 187.615 749.081 188.277 749.32 189.147L749.32 189.147L749.355 189.274L745.239 190.404L745.246 190.47C 745.405 191.05 745.682 191.465 746.078 191.713C 746.473 191.962 746.936 192.014 747.466 191.868C 747.862 191.76 748.148 191.582 748.324 191.336C 748.507 191.088 748.606 190.742 748.62 190.297L748.62 190.297L749.501 190.055zM748.22 188.798C 748.034 188.287 747.764 187.924 747.408 187.709C 747.051 187.488 746.646 187.44 746.193 187.564C 745.755 187.684 745.431 187.933 745.223 188.309C 745.015 188.686 744.953 189.14 745.038 189.672L745.038 189.672L748.22 188.798zM750.341 185.798L750.574 186.646C 750.844 185.857 751.375 185.354 752.167 185.137C 752.811 184.96 753.32 185.003 753.697 185.265C 754.078 185.517 754.358 185.969 754.536 186.62L754.536 186.62L755.535 190.258L754.633 190.506L753.748 187.281C 753.674 187.012 753.606 186.806 753.544 186.664C 753.488 186.512 753.401 186.361 753.283 186.211C 753.164 186.053 753.009 185.959 752.818 185.928C 752.627 185.897 752.397 185.918 752.128 185.992C 751.089 186.277 750.749 187.077 751.11 188.393L751.11 188.393L751.897 191.257L750.995 191.504L749.492 186.031L750.341 185.798zM757.731 183.769L757.935 184.512L756.842 184.812L757.719 188.005C 757.767 188.181 757.799 188.298 757.815 188.355C 757.837 188.409 757.88 188.481 757.942 188.571C 758.003 188.653 758.08 188.696 758.172 188.701C 758.265 188.706 758.389 188.688 758.545 188.645C 758.679 188.608 758.839 188.553 759.024 188.479L759.024 188.479L759.236 189.253C 758.99 189.352 758.764 189.429 758.559 189.485C 758.304 189.555 758.084 189.585 757.899 189.575C 757.714 189.565 757.565 189.537 757.454 189.492C 757.35 189.444 757.252 189.338 757.161 189.173C 757.068 189.001 757.002 188.855 756.962 188.737C 756.92 188.612 756.859 188.404 756.779 188.114C 756.773 188.093 756.769 188.079 756.768 188.072C 756.764 188.058 756.759 188.04 756.753 188.019C 756.747 187.998 756.742 187.98 756.738 187.966L756.738 187.966L755.941 185.059L755.018 185.313L754.814 184.57L755.737 184.317L755.291 182.694L756.193 182.446L756.638 184.069L757.731 183.769zM759.117 181.153L759.419 182.256L758.507 182.507L758.204 181.404L759.117 181.153zM759.687 183.232L761.19 188.706L760.278 188.956L758.775 183.483L759.687 183.232zM765.584 183.325L764.682 183.572C 764.443 182.923 763.906 182.713 763.072 182.942C 762.725 183.037 762.471 183.179 762.31 183.368C 762.149 183.556 762.1 183.764 762.162 183.99C 762.179 184.054 762.204 184.116 762.235 184.175C 762.265 184.228 762.304 184.274 762.353 184.314C 762.407 184.345 762.453 184.374 762.491 184.402C 762.536 184.427 762.599 184.448 762.68 184.464C 762.765 184.471 762.829 184.48 762.87 184.492C 762.918 184.501 762.995 184.507 763.102 184.508C 763.214 184.5 763.293 184.497 763.34 184.5C 763.384 184.495 763.47 184.49 763.598 184.486C 763.733 184.479 763.819 184.474 763.857 184.472C 764.134 184.457 764.341 184.449 764.478 184.45C 764.622 184.448 764.821 184.466 765.074 184.503C 765.333 184.53 765.537 184.581 765.686 184.654C 765.834 184.72 765.978 184.832 766.121 184.991C 766.268 185.141 766.373 185.329 766.435 185.555C 766.581 186.085 766.49 186.57 766.162 187.01C 765.839 187.441 765.335 187.751 764.649 187.939C 763.906 188.143 763.289 188.137 762.796 187.923C 762.311 187.706 761.97 187.294 761.773 186.686L761.773 186.686L762.664 186.442C 762.925 187.199 763.525 187.449 764.466 187.19C 764.869 187.08 765.169 186.91 765.364 186.681C 765.565 186.444 765.628 186.187 765.552 185.911C 765.502 185.727 765.396 185.593 765.236 185.508C 765.076 185.422 764.911 185.376 764.742 185.369C 764.571 185.356 764.33 185.353 764.021 185.362C 763.977 185.367 763.943 185.368 763.92 185.367C 763.852 185.37 763.707 185.38 763.483 185.396C 763.264 185.402 763.105 185.404 763.005 185.401C 762.906 185.398 762.76 185.393 762.567 185.385C 762.38 185.368 762.235 185.339 762.133 185.299C 762.029 185.251 761.91 185.192 761.777 185.123C 761.649 185.044 761.545 184.943 761.466 184.82C 761.384 184.69 761.319 184.537 761.271 184.36C 761.135 183.865 761.215 183.421 761.51 183.029C 761.812 182.634 762.282 182.349 762.918 182.174C 763.561 181.998 764.127 182.006 764.613 182.199C 765.107 182.391 765.43 182.766 765.584 183.325zM768.732 180.749L768.936 181.492L767.843 181.792L768.72 184.985C 768.768 185.161 768.8 185.278 768.816 185.335C 768.839 185.389 768.881 185.461 768.944 185.551C 769.004 185.633 769.081 185.676 769.174 185.681C 769.266 185.686 769.39 185.668 769.546 185.625C 769.68 185.588 769.84 185.533 770.025 185.459L770.025 185.459L770.238 186.233C 769.991 186.332 769.765 186.409 769.56 186.465C 769.305 186.535 769.085 186.565 768.9 186.555C 768.715 186.545 768.566 186.517 768.455 186.472C 768.351 186.424 768.253 186.318 768.162 186.153C 768.069 185.981 768.003 185.836 767.963 185.717C 767.921 185.592 767.86 185.384 767.78 185.094C 767.775 185.073 767.771 185.059 767.769 185.052C 767.765 185.038 767.76 185.02 767.754 184.999C 767.748 184.978 767.744 184.96 767.74 184.946L767.74 184.946L766.942 182.039L766.019 182.293L765.815 181.55L766.738 181.297L766.292 179.674L767.194 179.426L767.64 181.049L768.732 180.749zM772.292 184.392L772.615 185.569L771.438 185.893L771.115 184.715L772.292 184.392zM775.244 183.581L775.568 184.759L774.39 185.082L774.067 183.905L775.244 183.581zM778.197 182.771L778.52 183.949L777.343 184.272L777.019 183.094L778.197 182.771z" stroke="none" fill="#00D7FF" fill-rule="nonzero" />
    <path d="M698.42 208.218L779.993 185.825L780.139 186.356L698.565 208.748L698.42 208.218z" stroke="none" fill="#00D7FF" fill-rule="nonzero" />
    <path d="M718.907 356.662C 719.1 357.729 718.961 358.642 718.49 359.402C 718.024 360.152 717.278 360.668 716.252 360.95C 715.079 361.272 714.043 361.141 713.145 360.558C 712.245 359.968 711.613 359.013 711.251 357.693C 710.912 356.459 710.974 355.339 711.436 354.333C 711.904 353.317 712.747 352.641 713.966 352.307C 714.838 352.067 715.67 352.092 716.463 352.38C 717.255 352.669 717.804 353.219 718.11 354.031L718.11 354.031L717.023 354.33C 716.751 353.823 716.365 353.477 715.866 353.291C 715.365 353.096 714.81 353.083 714.2 353.25C 713.282 353.502 712.677 354.017 712.384 354.794C 712.099 355.569 712.087 356.431 712.347 357.38C 712.635 358.429 713.109 359.187 713.768 359.653C 714.427 360.119 715.184 360.235 716.04 360C 716.743 359.807 717.247 359.453 717.553 358.938C 717.858 358.414 717.946 357.755 717.819 356.961L717.819 356.961L718.907 356.662zM719.984 354.027C 720.352 353.312 720.987 352.831 721.89 352.583C 722.793 352.335 723.57 352.416 724.222 352.826C 724.873 353.236 725.335 353.935 725.606 354.923C 725.883 355.933 725.849 356.789 725.502 357.49C 725.155 358.191 724.526 358.666 723.616 358.916C 722.706 359.166 721.916 359.084 721.246 358.67C 720.577 358.257 720.107 357.556 719.836 356.569C 719.567 355.589 719.616 354.742 719.984 354.027zM723.633 353.672C 723.184 353.339 722.671 353.252 722.092 353.411C 721.514 353.57 721.113 353.908 720.89 354.425C 720.667 354.943 720.653 355.556 720.848 356.266C 721.049 356.999 721.373 357.528 721.819 357.854C 722.27 358.169 722.797 358.245 723.399 358.08C 723.977 357.921 724.372 357.589 724.581 357.083C 724.799 356.575 724.807 355.955 724.605 355.222C 724.411 354.512 724.086 353.996 723.633 353.672zM726.893 351.396L727.147 352.322C 727.442 351.461 728.021 350.912 728.885 350.675C 729.587 350.482 730.143 350.529 730.553 350.814C 730.969 351.09 731.275 351.583 731.469 352.293L731.469 352.293L732.559 356.262L731.575 356.532L730.61 353.014C 730.529 352.721 730.455 352.496 730.388 352.341C 730.326 352.175 730.231 352.011 730.103 351.847C 729.973 351.675 729.803 351.572 729.595 351.538C 729.386 351.504 729.136 351.527 728.842 351.608C 727.708 351.919 727.338 352.792 727.732 354.227L727.732 354.227L728.59 357.351L727.606 357.621L725.967 351.65L726.893 351.396zM734.955 349.183L735.177 349.993L733.985 350.32L734.941 353.804C 734.994 353.996 735.029 354.124 735.046 354.185C 735.071 354.245 735.117 354.324 735.185 354.421C 735.251 354.511 735.335 354.558 735.436 354.564C 735.537 354.569 735.673 354.549 735.842 354.502C 735.989 354.462 736.163 354.401 736.365 354.321L736.365 354.321L736.597 355.166C 736.328 355.273 736.081 355.357 735.857 355.419C 735.58 355.495 735.34 355.528 735.138 355.517C 734.936 355.506 734.774 355.475 734.652 355.426C 734.539 355.374 734.432 355.258 734.333 355.078C 734.232 354.89 734.159 354.732 734.115 354.603C 734.069 354.466 734.003 354.239 733.916 353.923C 733.91 353.9 733.906 353.885 733.904 353.877C 733.899 353.861 733.894 353.842 733.888 353.819C 733.881 353.796 733.876 353.777 733.872 353.761L733.872 353.761L733.001 350.59L731.995 350.867L731.772 350.057L732.779 349.78L732.293 348.01L733.277 347.74L733.763 349.51L734.955 349.183zM736.466 346.329L736.797 347.533L735.801 347.806L735.471 346.602L736.466 346.329zM737.089 348.597L738.728 354.568L737.733 354.842L736.094 348.87L737.089 348.597zM739.538 347.925L739.793 348.851C 740.087 347.99 740.667 347.441 741.531 347.204C 742.233 347.011 742.789 347.058 743.199 347.343C 743.615 347.619 743.92 348.112 744.115 348.821L744.115 348.821L745.205 352.791L744.221 353.061L743.255 349.543C 743.175 349.25 743.101 349.025 743.033 348.869C 742.971 348.704 742.876 348.539 742.748 348.375C 742.618 348.204 742.449 348.101 742.24 348.067C 742.032 348.033 741.781 348.056 741.488 348.136C 740.354 348.448 739.984 349.321 740.378 350.756L740.378 350.756L741.235 353.88L740.252 354.15L738.613 348.179L739.538 347.925zM749.996 345.054L751.635 351.025L750.72 351.276L750.463 350.339C 750.155 351.212 749.569 351.767 748.705 352.004C 748.073 352.177 747.535 352.138 747.093 351.887C 746.65 351.635 746.339 351.181 746.159 350.525L746.159 350.525L745.031 346.417L746.015 346.147L747.069 349.989C 747.199 350.46 747.386 350.794 747.631 350.992C 747.882 351.18 748.242 351.21 748.713 351.081C 749.878 350.761 750.263 349.884 749.87 348.449L749.87 348.449L749.012 345.324L749.996 345.054zM757.697 347.333C 757.778 348.804 757.1 349.737 755.665 350.13C 754.786 350.372 754.02 350.288 753.369 349.877C 752.724 349.465 752.269 348.773 752.002 347.801C 751.737 346.837 751.778 345.988 752.124 345.254C 752.476 344.51 753.065 344.025 753.89 343.799C 754.808 343.547 755.573 343.673 756.184 344.177C 756.801 344.671 757.239 345.393 757.5 346.342L757.5 346.342L757.538 346.481L753.048 347.713L753.056 347.786C 753.229 348.418 753.532 348.87 753.963 349.142C 754.394 349.413 754.899 349.47 755.478 349.311C 755.91 349.192 756.222 348.999 756.414 348.731C 756.613 348.46 756.721 348.082 756.737 347.596L756.737 347.596L757.697 347.333zM756.301 345.962C 756.098 345.403 755.802 345.008 755.415 344.774C 755.025 344.532 754.583 344.479 754.089 344.615C 753.611 344.746 753.258 345.017 753.031 345.428C 752.803 345.839 752.736 346.335 752.829 346.915L752.829 346.915L756.301 345.962z" stroke="none" fill="#B9C3C8" fill-rule="nonzero" />
    <path d="M769.865 344.906C 769.8 345.028 769.647 345.07 769.525 344.999C 769.407 344.931 769.365 344.776 769.431 344.657L769.431 344.657L770.675 342.431L764.983 343.994C 764.85 344.03 764.715 343.952 764.678 343.817C 764.641 343.682 764.716 343.543 764.849 343.506L764.849 343.506L770.541 341.944L768.336 340.668C 768.218 340.597 768.175 340.441 768.241 340.323C 768.31 340.2 768.463 340.158 768.581 340.229L768.581 340.229L771.31 341.811C 771.431 341.878 771.473 342.033 771.404 342.153L771.404 342.153L769.865 344.906z" stroke="none" fill="#00D7FF" fill-rule="nonzero" />
    <path d="M769.865 344.906C 769.8 345.028 769.647 345.07 769.525 344.999C 769.407 344.931 769.365 344.776 769.431 344.657L769.431 344.657L770.675 342.431L764.983 343.994C 764.85 344.03 764.715 343.952 764.678 343.817C 764.641 343.682 764.716 343.543 764.849 343.506L764.849 343.506L770.541 341.944L768.336 340.668C 768.218 340.597 768.175 340.441 768.241 340.323C 768.31 340.2 768.463 340.158 768.581 340.229L768.581 340.229L771.31 341.811C 771.431 341.878 771.473 342.033 771.404 342.153L771.404 342.153L769.865 344.906z" stroke="none" fill="#3F93B7" fill-rule="nonzero" />
    <path d="M763.284 264.658L779.804 260.123C 779.394 259.342 778.579 258.867 777.704 258.884C 777.706 258.688 777.666 258.49 777.612 258.295C 777.259 257.009 775.931 256.242 774.633 256.599C 774.269 256.699 773.943 256.886 773.671 257.114C 772.878 256.159 771.563 255.695 770.291 256.045C 768.927 256.419 768.006 257.594 767.896 258.923C 767.436 258.77 766.942 258.752 766.435 258.891C 765.085 259.262 764.284 260.669 764.654 262.019C 764.687 262.136 764.732 262.249 764.777 262.363C 763.831 262.734 763.235 263.666 763.284 264.658z" stroke="none" fill="#EAEAEA" fill-rule="nonzero" />
    <path d="M668.302 297.938L685.757 293.146C 685.323 292.329 684.456 291.813 683.541 291.841C 683.54 291.632 683.512 291.43 683.452 291.209C 683.077 289.845 681.67 289.045 680.307 289.419C 679.917 289.526 679.578 289.717 679.297 289.962C 678.46 288.948 677.07 288.464 675.719 288.835C 674.278 289.23 673.306 290.475 673.188 291.876C 672.711 291.714 672.174 291.693 671.642 291.839C 670.213 292.232 669.362 293.708 669.757 295.15C 669.793 295.28 669.838 295.393 669.883 295.506C 668.886 295.892 668.248 296.877 668.302 297.938z" stroke="none" fill="#EAEAEA" fill-rule="nonzero" />
    <path d="M750.141 225.124L770.921 219.42C 770.402 218.445 769.369 217.835 768.275 217.87C 768.263 217.622 768.238 217.377 768.17 217.131C 767.724 215.507 766.052 214.556 764.429 215.001C 763.961 215.13 763.561 215.351 763.225 215.653C 762.224 214.447 760.57 213.868 758.973 214.306C 757.259 214.777 756.1 216.254 755.959 217.927C 755.389 217.734 754.755 217.713 754.131 217.884C 752.43 218.351 751.422 220.122 751.889 221.823C 751.928 221.966 751.984 222.119 752.036 222.258C 750.827 222.687 750.077 223.871 750.141 225.124z" stroke="none" fill="#EAEAEA" fill-rule="nonzero" />
    <path d="M650.666 263.66L669.602 258.462C 669.134 257.571 668.2 257.017 667.188 257.043C 667.183 256.821 667.148 256.593 667.087 256.373C 666.681 254.892 665.158 254.025 663.678 254.432C 663.262 254.546 662.884 254.747 662.584 255.025C 661.67 253.935 660.171 253.411 658.717 253.81C 657.158 254.238 656.104 255.589 655.976 257.104C 655.456 256.94 654.877 256.917 654.305 257.074C 652.747 257.502 651.833 259.108 652.261 260.666C 652.296 260.796 652.349 260.935 652.397 261.062C 651.302 261.446 650.617 262.514 650.666 263.66z" stroke="none" fill="#EAEAEA" fill-rule="nonzero" />
    <path d="M674.963 344.893L689.496 340.903C 689.14 340.219 688.412 339.804 687.648 339.818C 687.644 339.652 687.623 339.476 687.574 339.294C 687.263 338.164 686.088 337.495 684.958 337.805C 684.634 337.895 684.356 338.054 684.119 338.259C 683.414 337.419 682.271 337.021 681.141 337.331C 679.946 337.659 679.14 338.69 679.043 339.862C 678.644 339.734 678.206 339.715 677.764 339.836C 676.57 340.164 675.872 341.389 676.2 342.584C 676.229 342.688 676.27 342.788 676.312 342.888C 675.447 343.196 674.92 344.025 674.963 344.893z" stroke="none" fill="#EAEAEA" fill-rule="nonzero" />
    <path d="M736.867 328.025C 735.959 329.043 734.388 329.474 733.088 329.063L733.088 329.063L713.315 322.815L698.985 318.285C 696.418 317.481 696.908 314.33 699.713 313.56L699.713 313.56L728.675 305.61L757.637 297.66C 760.442 296.89 762.469 299.336 760.675 301.351L760.675 301.351L750.667 312.562L736.867 328.025z" stroke="none" fill="#D67412" fill-rule="nonzero" />
    <path d="M726.611 330.296C 726.471 330.6 726.146 330.689 725.871 330.499L725.871 330.499L717.357 324.568L709.555 319.14C 709.119 318.827 709.155 318.091 709.622 317.963L709.622 317.963L721.909 314.59L734.195 311.217C 734.662 311.089 735.085 311.713 734.854 312.196L734.854 312.196L730.916 320.846L726.611 330.296z" stroke="none" fill="#FC842C" fill-rule="nonzero" />
    <path d="M742.656 326.422C 742.51 326.755 742.146 326.855 741.851 326.643L741.851 326.643L732.461 320.115L723.861 314.124C 723.377 313.782 723.43 312.957 723.936 312.818L723.936 312.818L737.469 309.104L751.002 305.389C 751.521 305.246 751.975 305.932 751.733 306.473L751.733 306.473L747.397 316.015L742.656 326.422z" stroke="none" fill="#FC842C" fill-rule="nonzero" />
    <path d="M736.084 333.058C 735.963 333.329 735.677 333.407 735.435 333.237L735.435 333.237L727.891 327.989L720.972 323.185C 720.577 322.916 720.617 322.249 721.033 322.135L721.033 322.135L731.916 319.147L742.8 316.159C 743.215 316.045 743.591 316.599 743.388 317.031L743.388 317.031L739.892 324.695L736.084 333.058z" stroke="none" fill="#FC842C" fill-rule="nonzero" />
    <path d="M743.33 310.358L740.226 311.21C 739.862 311.31 739.471 311.054 739.357 310.638C 739.243 310.223 739.449 309.803 739.813 309.703L739.813 309.703L742.916 308.851C 743.28 308.751 743.672 309.007 743.786 309.423C 743.903 309.851 743.694 310.258 743.33 310.358z" stroke="none" fill="#F99943" fill-rule="nonzero" />
    <path d="M745.395 309.791L744.954 309.912C 744.59 310.012 744.199 309.756 744.084 309.341C 743.97 308.925 744.176 308.505 744.54 308.406L744.54 308.406L744.982 308.284C 745.345 308.185 745.737 308.44 745.851 308.856C 745.968 309.284 745.759 309.691 745.395 309.791z" stroke="none" fill="#F99943" fill-rule="nonzero" />
    <path d="M730.904 316.324L727.242 317.33C 726.813 317.447 726.355 317.154 726.22 316.66C 726.084 316.167 726.328 315.681 726.757 315.563L726.757 315.563L730.419 314.558C 730.848 314.44 731.305 314.734 731.441 315.227C 731.576 315.721 731.333 316.207 730.904 316.324z" stroke="none" fill="#F99943" fill-rule="nonzero" />
    <path d="M733.346 315.654L732.826 315.797C 732.398 315.914 731.94 315.621 731.804 315.128C 731.669 314.634 731.913 314.148 732.341 314.03L732.341 314.03L732.861 313.888C 733.289 313.77 733.747 314.064 733.882 314.557C 734.018 315.051 733.774 315.537 733.346 315.654z" stroke="none" fill="#F99943" fill-rule="nonzero" />
    <path d="M734.642 328.008L732.525 328.589C 732.278 328.656 732.006 328.48 731.931 328.207C 731.853 327.921 732 327.643 732.247 327.576L732.247 327.576L734.364 326.995C 734.611 326.927 734.883 327.104 734.957 327.376C 735.032 327.649 734.889 327.94 734.642 328.008z" stroke="none" fill="#F99943" fill-rule="nonzero" />
    <path d="M736.045 327.622L735.746 327.704C 735.499 327.772 735.227 327.595 735.152 327.323C 735.074 327.037 735.221 326.759 735.468 326.691L735.468 326.691L735.766 326.609C 736.013 326.542 736.285 326.718 736.36 326.991C 736.435 327.264 736.304 327.551 736.045 327.622z" stroke="none" fill="#F99943" fill-rule="nonzero" />
    <path d="M720.139 318.47C 720.31 319.093 720.004 319.708 719.445 319.861L719.445 319.861L716.432 320.688C 715.887 320.838 715.293 320.456 715.125 319.846C 714.954 319.222 715.26 318.608 715.819 318.454L715.819 318.454L718.832 317.627C 719.39 317.474 719.967 317.846 720.139 318.47z" stroke="none" fill="#F99943" fill-rule="nonzero" />
    <path d="M722.827 319.463C 722.998 320.087 722.692 320.701 722.134 320.855L722.134 320.855L719.121 321.682C 718.575 321.832 717.982 321.45 717.814 320.839C 717.643 320.216 717.949 319.601 718.508 319.448L718.508 319.448L721.521 318.621C 722.079 318.467 722.656 318.84 722.827 319.463z" stroke="none" fill="#F99943" fill-rule="nonzero" />
    <path d="M740.438 315.593C 740.306 315.112 739.845 314.806 739.416 314.923L739.416 314.923L737.039 315.576C 736.611 315.694 736.367 316.179 736.502 316.673C 736.634 317.154 737.096 317.46 737.524 317.342L737.524 317.342L739.901 316.69C 740.329 316.572 740.573 316.086 740.438 315.593z" stroke="none" fill="#F99943" fill-rule="nonzero" />
    <path d="M741.855 313.835C 741.723 313.355 741.261 313.048 740.833 313.166L740.833 313.166L738.469 313.815C 738.041 313.932 737.797 314.418 737.932 314.912C 738.064 315.392 738.525 315.699 738.954 315.581L738.954 315.581L741.318 314.932C 741.746 314.814 741.99 314.329 741.855 313.835z" stroke="none" fill="#F99943" fill-rule="nonzero" />
    <path d="M742.077 318.411C 741.558 318.554 741.261 319.152 741.421 319.736C 741.468 319.905 741.549 320.05 741.654 320.175L741.654 320.175L741.03 320.346C 740.511 320.489 740.214 321.087 740.374 321.672C 740.538 322.269 741.095 322.619 741.615 322.476L741.615 322.476L744.823 321.596L746.888 317.062L742.07 318.385L742.077 318.411z" stroke="none" fill="#F99943" fill-rule="nonzero" />
    <path d="M723.884 324.229L723.261 324.4C 723.286 324.239 723.283 324.073 723.236 323.904C 723.072 323.307 722.515 322.957 721.996 323.099L721.996 323.099L717.165 324.426L717.374 324.578L721.242 327.273L724.476 326.385C 724.995 326.242 725.292 325.644 725.132 325.06C 724.964 324.449 724.404 324.086 723.884 324.229z" stroke="none" fill="#F99943" fill-rule="nonzero" />
    <path d="M733.453 320.164C 733.606 320.722 733.324 321.274 732.831 321.41L732.831 321.41L728.675 322.551C 728.181 322.686 727.654 322.342 727.504 321.797C 727.351 321.238 727.632 320.686 728.126 320.551L728.126 320.551L732.282 319.41C 732.788 319.271 733.299 319.605 733.453 320.164z" stroke="none" fill="#F99943" fill-rule="nonzero" />
    <path d="M732.251 322.198C 732.162 321.873 732.324 321.549 732.61 321.471L732.61 321.471L730.636 322.012C 730.922 321.934 731.227 322.13 731.316 322.454C 731.405 322.779 731.243 323.103 730.957 323.181L730.957 323.181L732.918 322.643C 732.632 322.721 732.34 322.522 732.251 322.198z" stroke="none" fill="#F99943" fill-rule="nonzero" />
    <path d="M736.199 322.692C 736.335 323.185 736.091 323.671 735.663 323.789L735.663 323.789L730.74 325.14C 730.312 325.258 729.854 324.964 729.719 324.471C 729.583 323.977 729.827 323.491 730.256 323.374L730.256 323.374L735.178 322.023C 735.606 321.905 736.068 322.211 736.199 322.692z" stroke="none" fill="#F99943" fill-rule="nonzero" />
    <path d="M763.201 289.387C 763.027 289.211 762.797 289.134 762.576 289.195L762.576 289.195L691.158 308.8C 690.937 308.86 690.778 309.044 690.718 309.284C 690.658 309.523 690.73 309.783 690.894 309.976L690.894 309.976L698.245 318.488C 698.413 318.693 698.669 318.763 698.89 318.702L698.89 318.702L760.996 301.654C 761.23 301.589 761.398 301.389 761.442 301.14L761.442 301.14L763.416 290.068C 763.446 289.822 763.362 289.566 763.201 289.387z" stroke="none" fill="#BC5800" fill-rule="nonzero" />
    <path d="M709.962 313.554L703.936 315.208C 703.222 315.404 702.472 314.911 702.251 314.106C 702.03 313.301 702.423 312.495 703.138 312.299L703.138 312.299L709.164 310.644C 709.878 310.448 710.628 310.941 710.849 311.746C 711.07 312.551 710.677 313.358 709.962 313.554z" stroke="none" fill="#AA5000" fill-rule="nonzero" />
    <path d="M713.975 312.452L713.118 312.687C 712.404 312.883 711.654 312.391 711.433 311.586C 711.212 310.78 711.605 309.974 712.32 309.778L712.32 309.778L713.177 309.543C 713.891 309.347 714.641 309.839 714.862 310.644C 715.083 311.45 714.69 312.256 713.975 312.452z" stroke="none" fill="#AA5000" fill-rule="nonzero" />
    <path d="M747.266 300.325L752.772 298.813C 753.422 298.635 754.118 299.086 754.318 299.813C 754.518 300.541 754.149 301.284 753.5 301.463L753.5 301.463L747.993 302.974C 747.344 303.152 746.647 302.701 746.448 301.974C 746.248 301.247 746.616 300.503 747.266 300.325z" stroke="none" fill="#AA5000" fill-rule="nonzero" />
    <path d="M743.59 301.334L744.383 301.116C 745.032 300.938 745.728 301.389 745.928 302.117C 746.128 302.844 745.759 303.587 745.11 303.766L745.11 303.766L744.318 303.983C 743.668 304.161 742.972 303.71 742.772 302.983C 742.572 302.256 742.941 301.512 743.59 301.334z" stroke="none" fill="#AA5000" fill-rule="nonzero" />
    <path d="M730.651 305.277C 730.868 306.069 730.475 306.875 729.773 307.068L729.773 307.068L726.202 308.048C 725.501 308.241 724.751 307.748 724.533 306.956C 724.316 306.164 724.709 305.358 725.41 305.165L725.41 305.165L728.969 304.188C 729.683 303.992 730.429 304.472 730.651 305.277z" stroke="none" fill="#AA5000" fill-rule="nonzero" />
    <path d="M734.54 305.913C 734.765 306.731 734.353 307.571 733.625 307.77L733.625 307.77L729.976 308.772C 729.249 308.972 728.469 308.473 728.241 307.642C 728.017 306.824 728.429 305.984 729.156 305.785L729.156 305.785L732.805 304.783C 733.533 304.583 734.316 305.095 734.54 305.913z" stroke="none" fill="#AA5000" fill-rule="nonzero" />
    <path d="M764.426 292.779C 764.508 293.078 764.364 293.369 764.091 293.444L764.091 293.444L691.206 313.451C 690.946 313.523 690.661 313.349 690.579 313.051L690.579 313.051L688.935 307.063C 688.853 306.765 688.997 306.474 689.27 306.399L689.27 306.399L762.155 286.392C 762.415 286.32 762.7 286.493 762.782 286.792L762.782 286.792L764.426 292.779z" stroke="none" fill="#DFDFDF" fill-rule="nonzero" />
    <path d="M762.155 286.392L761.662 286.527L763.181 292.06C 763.263 292.358 763.119 292.649 762.846 292.724L762.846 292.724L690.454 312.596L690.579 313.051C 690.661 313.349 690.933 313.526 691.206 313.451L691.206 313.451L764.091 293.444C 764.351 293.372 764.508 293.078 764.426 292.779L764.426 292.779L762.782 286.792C 762.7 286.493 762.415 286.32 762.155 286.392z" stroke="none" fill="#C3C3C3" fill-rule="nonzero" />
    <path d="M696.613 307.763L693.237 308.69C 692.834 308.8 692.409 308.526 692.285 308.071C 692.16 307.617 692.385 307.164 692.787 307.054L692.787 307.054L696.164 306.127C 696.567 306.016 696.991 306.291 697.116 306.745C 697.241 307.2 697.003 307.656 696.613 307.763z" stroke="none" fill="#FFFFFF" fill-rule="nonzero" />
    <path d="M698.86 307.146L698.379 307.278C 697.977 307.389 697.552 307.114 697.427 306.66C 697.303 306.205 697.528 305.752 697.93 305.642L697.93 305.642L698.411 305.51C 698.813 305.399 699.238 305.674 699.363 306.128C 699.487 306.583 699.25 307.039 698.86 307.146z" stroke="none" fill="#FFFFFF" fill-rule="nonzero" />
    <path d="M725.851 284.333L719.591 286.051L713.699 265.197L719.962 263.492L725.851 284.333z" stroke="none" fill="#00D7FF" fill-rule="nonzero" />
    <path d="M721.449 281.169L714.216 295.012L734.902 289.375L721.449 281.169L714.216 295.012L734.902 289.375L721.449 281.169z" stroke="none" fill="#00D7FF" fill-rule="nonzero" />
    <path d="M703.131 268.824C 702.311 268.993 683.08 272.862 679.182 259.016C 678.197 255.53 678.394 252.431 679.764 249.792C 682.902 243.722 691.243 242.563 691.608 242.519L691.608 242.519L692.366 246.654C 692.298 246.659 685.214 247.668 682.858 252.211C 682.014 253.867 681.911 255.781 682.558 258.089C 685.372 268.085 701.998 264.75 702.154 264.707L702.154 264.707L703.131 268.824z" stroke="none" fill="#00D7FF" fill-rule="nonzero" />
    <path d="M731.272 261.141C 732.063 260.868 750.566 254.448 746.667 240.603C 745.682 237.116 743.888 234.55 741.337 232.988C 735.471 229.375 727.713 232.608 727.373 232.743L727.373 232.743L728.888 236.684C 728.949 236.654 735.546 233.921 739.95 236.637C 741.547 237.623 742.643 239.221 743.29 241.53C 746.104 251.525 730.117 257.087 729.961 257.129L729.961 257.129L731.272 261.141z" stroke="none" fill="#00D7FF" fill-rule="nonzero" />
    <path d="M684.64 236.876C 683.926 237.072 683.485 237.807 683.655 238.529C 683.84 239.302 684.054 240.082 684.267 240.861C 690.787 264.001 706.976 279.78 720.438 276.112C 733.9 272.444 739.524 250.706 733.005 227.566C 732.787 226.774 732.547 226.001 732.311 225.242C 732.089 224.535 731.351 224.137 730.637 224.333L730.637 224.333L684.64 236.876z" stroke="none" fill="#00D7FF" fill-rule="nonzero" />
    <path d="M700.068 262.807C 699.458 262.975 698.777 262.785 698.353 262.259C 694.899 257.969 692.041 252.595 690.073 246.697C 689.782 245.841 690.251 244.902 691.11 244.625C 691.966 244.334 692.905 244.802 693.183 245.662C 695.022 251.19 697.702 256.223 700.907 260.217C 701.479 260.926 701.359 261.964 700.659 262.519C 700.486 262.651 700.289 262.747 700.068 262.807z" stroke="none" fill="#FFFFFF" fill-rule="nonzero" />
    <path d="M690.925 243.796C 690.912 243.799 690.899 243.803 690.886 243.806C 690.012 244.032 689.111 243.497 688.898 242.62C 688.79 242.175 688.682 241.73 688.563 241.246C 688.363 240.365 688.918 239.486 689.795 239.273C 690.676 239.073 691.555 239.628 691.768 240.506C 691.866 240.967 691.967 241.387 692.082 241.802C 692.294 242.679 691.782 243.56 690.925 243.796z" stroke="none" fill="#FFFFFF" fill-rule="nonzero" />
    <path d="M706.357 269.181L706.446 269.199L710.723 264.533L713.216 270.357L713.301 270.362L716.436 251.918L709.496 250.751L706.357 269.181z" stroke="none" fill="#FFFFFF" fill-rule="nonzero" />
    <path d="M728.462 263.114L728.394 263.174L722.334 261.346L723.164 267.626L723.093 267.674L710.981 253.415L716.353 248.868L728.462 263.114z" stroke="none" fill="#FFFFFF" fill-rule="nonzero" />
    <path d="M722.4 253.728C 725.531 248.227 723.61 241.229 718.109 238.098C 712.608 234.967 705.61 236.888 702.479 242.389C 699.348 247.89 701.269 254.888 706.77 258.019C 712.271 261.15 719.269 259.229 722.4 253.728z" stroke="none" fill="#FFFFFF" fill-rule="nonzero" />
    <path d="M721.418 245.592C 722.776 250.541 719.868 255.668 714.907 257.03C 709.958 258.389 704.831 255.481 703.469 250.519C 702.111 245.571 705.018 240.444 709.98 239.082C 714.931 237.736 720.059 240.644 721.418 245.592z" stroke="none" fill="#00D7FF" fill-rule="nonzero" />
    <path d="M715.658 253.151L713.216 253.821L710.981 245.678L710.045 245.935L709.6 244.312C 709.95 244.215 710.206 243.978 710.371 243.611C 710.536 243.245 710.571 242.914 710.489 242.615L710.489 242.615L712.606 242.034L715.658 253.151z" stroke="none" fill="#FFFFFF" fill-rule="nonzero" />
    <path d="M738.632 292.583C 738.668 292.713 738.596 292.859 738.466 292.894L738.466 292.894L712.959 299.896C 712.829 299.932 712.697 299.857 712.657 299.714L712.657 299.714L711.616 295.921C 711.581 295.791 711.652 295.646 711.782 295.61L711.782 295.61L737.303 288.605C 737.433 288.569 737.565 288.645 737.604 288.787L737.604 288.787L738.645 292.58L738.632 292.583z" stroke="none" fill="#00D7FF" fill-rule="nonzero" />
    <path d="M741.245 318.025L760.401 312.766C 759.929 311.862 758.982 311.312 757.967 311.326C 757.961 311.104 757.927 310.876 757.863 310.642C 757.453 309.148 755.913 308.272 754.42 308.682C 753.991 308.8 753.617 309.014 753.313 309.279C 752.392 308.163 750.88 307.643 749.387 308.053C 747.815 308.484 746.739 309.855 746.614 311.383C 746.077 311.21 745.499 311.187 744.927 311.344C 743.356 311.775 742.432 313.397 742.864 314.969C 742.903 315.112 742.952 315.238 743 315.364C 741.886 315.782 741.179 316.87 741.245 318.025z" stroke="none" fill="#EAEAEA" fill-rule="nonzero" />
    <path d="M702.763 325.586L725.607 319.315C 725.047 318.24 723.914 317.573 722.693 317.601C 722.69 317.336 722.654 317.053 722.579 316.78C 722.091 315.001 720.254 313.955 718.474 314.444C 717.968 314.583 717.519 314.831 717.148 315.157C 716.046 313.839 714.238 313.204 712.471 313.689C 710.588 314.206 709.315 315.827 709.165 317.669C 708.536 317.465 707.842 317.432 707.154 317.621C 705.284 318.134 704.182 320.071 704.695 321.941C 704.741 322.11 704.797 322.262 704.866 322.411C 703.534 322.902 702.692 324.209 702.763 325.586z" stroke="none" fill="#EAEAEA" fill-rule="nonzero" />
	<g>
        <path transform="matrix(0.9643152 -0.2647568 0.2647568 0.9643152 -87.7746 188.04858)"  d="M653.709 429.638C 653.709 424.11514 658.18616 419.638 663.709 419.638L663.709 419.638L848.709 419.638C 854.2318 419.638 858.709 424.11514 858.709 429.638L858.709 429.638L858.709 608.638C 858.709 614.1608 854.2318 618.638 848.709 618.638L848.709 618.638L663.709 618.638C 658.18616 618.638 653.709 614.1608 653.709 608.638L653.709 608.638L653.709 429.638z" stroke="none" fill="#FFFFFF" fill-rule="nonzero" />
	</g>
    <path transform="matrix(0.964315 -0.264757 -0.264757 -0.964315 684.436 437.127)"  d="M4 0C 4 1.1045696 3.6094759 2.0473785 2.828427 2.828427C 2.0473785 3.6094759 1.1045696 4 0 4C -1.1045696 4 -2.0473785 3.6094759 -2.828427 2.828427C -3.6094759 2.0473785 -4 1.1045696 -4 0C -4 -1.1045696 -3.6094759 -2.0473785 -2.828427 -2.828427C -2.0473785 -3.6094759 -1.1045696 -4 0 -4C 1.1045696 -4 2.0473785 -3.6094759 2.828427 -2.828427C 3.6094759 -2.0473785 4 -1.1045696 4 0C 4 0.046546843 3.999188 0.09307951 3.9975634 0.13959798" stroke="none" fill="#DB0837" fill-rule="nonzero" />
    <path d="M702.409 427.041L705.048 436.653L703.779 437.002L702.545 432.506L697.469 433.9L698.703 438.395L697.434 438.744L694.795 429.132L696.064 428.783L697.165 432.793L702.241 431.399L701.14 427.389L702.409 427.041zM713.162 433.438L713.407 434.329C 713.198 434.484 712.949 434.6 712.661 434.679C 712.004 434.86 711.573 434.61 711.367 433.931C 710.912 434.85 710.172 435.45 709.146 435.732C 708.462 435.919 707.869 435.893 707.368 435.654C 706.876 435.411 706.545 434.984 706.377 434.372C 706.036 433.13 706.661 432.179 708.251 431.52C 708.354 431.473 708.507 431.411 708.709 431.336C 709.467 431.031 709.92 430.796 710.068 430.629C 710.236 430.429 710.271 430.153 710.175 429.802C 709.965 429.037 709.333 428.799 708.28 429.088C 707.74 429.236 707.362 429.461 707.144 429.763C 706.925 430.055 706.857 430.461 706.941 430.98L706.941 430.98L705.821 431.287C 705.634 430.535 705.74 429.882 706.139 429.327C 706.539 428.772 707.188 428.371 708.088 428.124C 709.069 427.855 709.86 427.88 710.461 428.199C 710.653 428.301 710.818 428.459 710.954 428.673C 711.09 428.887 711.184 429.07 711.235 429.22C 711.283 429.362 711.348 429.581 711.43 429.878C 711.524 430.22 711.657 430.74 711.829 431.438C 712.001 432.136 712.134 432.656 712.228 432.998C 712.298 433.25 712.378 433.421 712.471 433.512C 712.57 433.591 712.71 433.606 712.89 433.557C 712.962 433.537 713.053 433.498 713.162 433.438zM710.571 431.246C 710.508 431.331 710.437 431.409 710.359 431.479C 710.282 431.548 710.175 431.616 710.038 431.683C 709.91 431.747 709.822 431.795 709.773 431.828C 709.731 431.85 709.618 431.9 709.437 431.979C 709.253 432.049 709.156 432.085 709.147 432.087C 708.878 432.2 708.701 432.277 708.616 432.32C 708.537 432.351 708.385 432.432 708.16 432.562C 707.943 432.689 707.796 432.807 707.719 432.915C 707.643 433.023 707.577 433.172 707.522 433.361C 707.475 433.539 707.48 433.735 707.539 433.951C 707.638 434.311 707.838 434.562 708.137 434.702C 708.446 434.84 708.817 434.849 709.249 434.731C 709.798 434.58 710.244 434.283 710.587 433.841C 710.93 433.398 711.041 432.956 710.92 432.515L710.92 432.515L710.571 431.246zM716.44 425.86L716.767 427.048C 716.683 427.061 716.583 427.084 716.466 427.116C 716.097 427.217 715.793 427.364 715.556 427.555C 715.315 427.737 715.139 427.94 715.026 428.165C 714.923 428.387 714.858 428.646 714.833 428.944C 714.809 429.241 714.815 429.529 714.853 429.809C 714.9 430.087 714.971 430.396 715.065 430.738L715.065 430.738L715.873 433.681L714.725 433.996L712.813 427.03L713.906 426.73L714.318 428.229C 714.473 426.996 715.18 426.206 716.44 425.86zM722.933 421.406L725.572 431.018L724.492 431.315L724.21 430.289C 723.992 431.22 723.338 431.835 722.249 432.134C 721.259 432.406 720.381 432.294 719.616 431.797C 718.857 431.289 718.322 430.468 718.01 429.334C 717.721 428.281 717.751 427.334 718.101 426.493C 718.458 425.64 719.149 425.073 720.175 424.791C 721.174 424.517 722.038 424.686 722.768 425.299L722.768 425.299L721.785 421.721L722.933 421.406zM720.594 425.736C 719.937 425.916 719.48 426.298 719.224 426.881C 718.977 427.462 718.966 428.162 719.191 428.981C 719.423 429.827 719.802 430.449 720.327 430.847C 720.859 431.233 721.454 431.336 722.111 431.156C 722.777 430.973 723.233 430.591 723.48 430.01C 723.725 429.42 723.73 428.698 723.495 427.843C 723.285 427.078 722.93 426.488 722.429 426.074C 721.934 425.649 721.323 425.536 720.594 425.736z" stroke="none" fill="#B9C3C8" fill-rule="nonzero" />
    <path d="M732.089 480.042L729.806 480.669C 729.414 479.604 728.57 479.25 727.274 479.606C 726.719 479.758 726.312 479.991 726.056 480.305C 725.806 480.606 725.735 480.952 725.843 481.342C 725.88 481.476 725.933 481.589 726.002 481.68C 726.071 481.772 726.175 481.848 726.314 481.91C 726.45 481.961 726.583 482.002 726.713 482.033C 726.84 482.053 727.021 482.07 727.257 482.082C 727.5 482.082 727.717 482.083 727.905 482.087C 728.105 482.087 728.38 482.084 728.732 482.076C 729.084 482.068 729.393 482.066 729.66 482.07C 730.824 482.082 731.733 482.247 732.384 482.566C 733.046 482.882 733.496 483.472 733.733 484.336C 733.905 484.964 733.928 485.549 733.801 486.093C 733.67 486.627 733.422 487.093 733.056 487.492C 732.698 487.878 732.273 488.205 731.782 488.472C 731.305 488.747 730.773 488.965 730.187 489.126C 728.695 489.536 727.434 489.517 726.405 489.069C 725.382 488.609 724.695 487.758 724.343 486.516L724.343 486.516L726.735 485.86C 727.154 487.227 728.171 487.688 729.786 487.245C 730.414 487.073 730.872 486.809 731.162 486.453C 731.458 486.084 731.545 485.673 731.42 485.22C 731.316 484.839 731.07 484.608 730.683 484.527C 730.305 484.442 729.54 484.393 728.385 484.378C 728.321 484.384 728.271 484.387 728.238 484.385C 728.204 484.383 728.16 484.384 728.106 484.388C 728.049 484.381 727.998 484.379 727.954 484.38C 727.556 484.379 727.279 484.377 727.124 484.376C 726.965 484.364 726.711 484.345 726.361 484.319C 726.022 484.291 725.767 484.25 725.598 484.197C 725.428 484.144 725.213 484.065 724.952 483.96C 724.701 483.852 724.505 483.723 724.365 483.573C 724.221 483.414 724.073 483.216 723.92 482.982C 723.775 482.734 723.66 482.456 723.575 482.148C 723.301 481.15 723.468 480.247 724.076 479.438C 724.683 478.63 725.625 478.051 726.9 477.7C 728.135 477.362 729.223 477.378 730.166 477.75C 731.106 478.111 731.747 478.875 732.089 480.042zM741.147 477.29L743.332 485.251L741.25 485.823L740.94 484.697C 740.572 485.772 739.832 486.461 738.721 486.766C 737.847 487.006 737.098 486.958 736.474 486.62C 735.858 486.269 735.421 485.626 735.164 484.69L735.164 484.69L733.694 479.336L735.901 478.73L737.15 483.282C 737.232 483.58 737.309 483.819 737.38 483.999C 737.459 484.165 737.565 484.329 737.698 484.492C 737.831 484.655 738.003 484.757 738.214 484.798C 738.432 484.827 738.69 484.8 738.988 484.719C 740.14 484.402 740.51 483.493 740.098 481.991L740.098 481.991L738.971 477.887L741.147 477.29zM744.155 473.212L745.252 477.208C 745.657 476.267 746.39 475.651 747.449 475.361C 748.509 475.07 749.448 475.227 750.266 475.831C 751.085 476.436 751.657 477.33 751.981 478.513C 752.332 479.789 752.286 480.913 751.845 481.885C 751.412 482.845 750.671 483.469 749.622 483.757C 748.521 484.059 747.576 483.882 746.787 483.224L746.787 483.224L747.078 484.223L744.995 484.795L741.979 473.809L744.155 473.212zM747.232 477.229C 746.646 477.39 746.238 477.739 746.01 478.278C 745.789 478.803 745.782 479.441 745.988 480.192C 746.2 480.963 746.536 481.524 746.997 481.873C 747.458 482.222 747.987 482.314 748.583 482.151C 749.149 481.995 749.539 481.645 749.755 481.099C 749.98 480.55 749.988 479.895 749.779 479.134C 749.579 478.404 749.243 477.866 748.772 477.519C 748.311 477.17 747.798 477.073 747.232 477.229zM766.709 478.833L764.487 479.443L763.183 474.691C 763.038 474.167 762.846 473.788 762.605 473.555C 762.362 473.313 761.983 473.262 761.468 473.403C 760.45 473.683 760.116 474.46 760.466 475.736L760.466 475.736L761.695 480.21L759.504 480.812L758.174 475.967C 758.038 475.473 757.851 475.115 757.613 474.893C 757.372 474.66 757.015 474.609 756.542 474.739C 755.483 475.03 755.144 475.87 755.525 477.258L755.525 477.258L756.711 481.578L754.52 482.18L752.334 474.218L754.417 473.647L754.718 474.742C 755.105 473.695 755.829 473.027 756.888 472.736C 757.989 472.434 758.86 472.665 759.501 473.429C 759.899 472.379 760.648 471.704 761.748 471.401C 762.623 471.161 763.362 471.235 763.966 471.622C 764.578 471.996 765.002 472.615 765.239 473.479L765.239 473.479L766.709 478.833zM767.662 466.758L768.17 468.61L765.979 469.211L765.471 467.36L767.662 466.758zM768.492 469.782L770.678 477.744L768.487 478.345L766.301 470.384L768.492 469.782zM774.599 468.105L775.006 469.587L773.386 470.031L774.415 473.781C 774.48 474.017 774.533 474.191 774.575 474.301C 774.613 474.401 774.679 474.499 774.772 474.595C 774.865 474.692 774.978 474.743 775.113 474.751C 775.255 474.745 775.445 474.709 775.681 474.644C 775.949 474.571 776.167 474.5 776.336 474.431L776.336 474.431L776.794 476.098C 776.27 476.286 775.833 476.428 775.484 476.524C 774.527 476.786 773.829 476.801 773.389 476.568C 772.956 476.322 772.608 475.72 772.346 474.764L772.346 474.764L771.21 470.629L769.884 470.993L769.477 469.512L770.804 469.148L770.143 466.741L772.318 466.143L772.979 468.55L774.599 468.105zM785.067 465.082L785.622 467.104C 785.296 467.127 785.005 467.173 784.747 467.244C 784.027 467.442 783.561 467.818 783.349 468.375C 783.134 468.92 783.132 469.579 783.344 470.35L783.344 470.35L784.344 473.992L782.153 474.593L779.967 466.632L782.05 466.06L782.452 467.526C 782.675 466.281 783.382 465.495 784.576 465.167C 784.678 465.139 784.842 465.111 785.067 465.082zM794.653 468.506C 794.64 469.428 794.365 470.217 793.826 470.874C 793.298 471.528 792.576 471.98 791.66 472.232C 790.436 472.568 789.344 472.458 788.384 471.903C 787.435 471.345 786.788 470.439 786.443 469.184C 786.104 467.95 786.2 466.828 786.731 465.82C 787.261 464.812 788.108 464.148 789.27 463.829C 790.474 463.498 791.543 463.647 792.479 464.275C 793.412 464.893 794.07 465.901 794.454 467.3L794.454 467.3L794.514 467.516L788.805 469.083C 789.004 469.77 789.313 470.249 789.731 470.522C 790.159 470.791 790.666 470.846 791.252 470.685C 792.023 470.473 792.458 469.939 792.554 469.083L792.554 469.083L794.653 468.506zM791.91 466.737C 791.715 466.227 791.428 465.847 791.05 465.597C 790.669 465.336 790.221 465.277 789.706 465.418C 789.223 465.551 788.866 465.82 788.634 466.227C 788.403 466.633 788.333 467.122 788.424 467.695L788.424 467.695L791.91 466.737zM796.589 462.068L796.86 463.056C 797.216 462.095 797.928 461.468 798.998 461.174C 800.068 460.881 801.033 461.031 801.892 461.624C 802.752 462.218 803.359 463.157 803.712 464.443C 804.053 465.688 804.01 466.778 803.581 467.714C 803.16 468.638 802.43 469.242 801.391 469.527C 800.321 469.821 799.395 469.649 798.611 469.012L798.611 469.012L799.658 472.823L797.482 473.421L794.521 462.636L796.589 462.068zM798.941 463.082C 798.344 463.245 797.936 463.59 797.715 464.115C 797.504 464.637 797.505 465.284 797.717 466.056C 797.929 466.827 798.263 467.382 798.722 467.721C 799.18 468.06 799.707 468.148 800.303 467.984C 800.89 467.823 801.288 467.481 801.499 466.959C 801.72 466.434 801.727 465.795 801.521 465.045C 801.309 464.273 800.973 463.713 800.512 463.364C 800.051 463.015 799.527 462.921 798.941 463.082zM807.809 458.739C 809.033 458.403 810.121 458.519 811.074 459.087C 812.036 459.652 812.691 460.567 813.039 461.833C 813.389 463.108 813.294 464.235 812.755 465.212C 812.226 466.187 811.34 466.845 810.095 467.187C 808.851 467.529 807.747 467.417 806.784 466.852C 805.822 466.286 805.165 465.366 804.815 464.09C 804.468 462.825 804.569 461.702 805.118 460.722C 805.667 459.742 806.564 459.08 807.809 458.739zM808.205 460.422C 807.618 460.583 807.218 460.936 807.002 461.482C 806.787 462.028 806.788 462.697 807.006 463.489C 807.229 464.301 807.572 464.887 808.036 465.247C 808.5 465.606 809.035 465.703 809.642 465.536C 810.249 465.369 810.655 465.015 810.86 464.472C 811.072 463.916 811.067 463.231 810.843 462.419C 810.626 461.627 810.282 461.057 809.811 460.711C 809.347 460.352 808.812 460.255 808.205 460.422zM818.516 455.899L819.071 457.92C 818.746 457.943 818.454 457.99 818.197 458.06C 817.477 458.258 817.011 458.635 816.799 459.191C 816.583 459.737 816.582 460.395 816.794 461.167L816.794 461.167L817.793 464.808L815.602 465.409L813.417 457.448L815.499 456.876L815.902 458.342C 816.124 457.097 816.832 456.311 818.025 455.984C 818.128 455.955 818.292 455.927 818.516 455.899zM823.764 454.607L824.171 456.088L822.551 456.533L823.58 460.282C 823.645 460.519 823.698 460.692 823.74 460.803C 823.778 460.903 823.844 461.001 823.937 461.097C 824.03 461.193 824.143 461.245 824.278 461.252C 824.42 461.246 824.61 461.211 824.846 461.146C 825.114 461.072 825.332 461.001 825.501 460.933L825.501 460.933L825.959 462.599C 825.435 462.787 824.998 462.929 824.649 463.025C 823.692 463.288 822.994 463.303 822.554 463.07C 822.121 462.823 821.773 462.222 821.511 461.265L821.511 461.265L820.375 457.13L819.049 457.495L818.642 456.013L819.969 455.649L819.308 453.242L821.483 452.645L822.144 455.052L823.764 454.607z" stroke="none" fill="#282828" fill-rule="nonzero" />
    <path d="M742.99 503.008L743.294 504.115L740.068 505L742.403 513.506L741.134 513.854L738.798 505.349L735.572 506.235L735.268 505.128L742.99 503.008zM744.136 506.395C 744.566 505.561 745.307 504.999 746.36 504.71C 747.413 504.421 748.319 504.516 749.08 504.994C 749.84 505.473 750.379 506.288 750.695 507.44C 751.019 508.619 750.978 509.617 750.574 510.435C 750.169 511.252 749.436 511.807 748.374 512.099C 747.312 512.39 746.39 512.295 745.609 511.812C 744.828 511.33 744.28 510.513 743.963 509.361C 743.65 508.218 743.707 507.229 744.136 506.395zM748.393 505.981C 747.87 505.593 747.271 505.491 746.596 505.676C 745.921 505.861 745.453 506.256 745.193 506.86C 744.933 507.463 744.917 508.179 745.144 509.007C 745.379 509.862 745.756 510.48 746.277 510.86C 746.804 511.228 747.418 511.316 748.12 511.123C 748.795 510.938 749.255 510.55 749.5 509.96C 749.753 509.368 749.763 508.644 749.528 507.789C 749.301 506.961 748.922 506.359 748.393 505.981zM756.938 499.178L759.577 508.791L758.497 509.087L758.215 508.061C 757.996 508.992 757.342 509.607 756.253 509.906C 755.263 510.178 754.386 510.066 753.62 509.569C 752.861 509.061 752.326 508.24 752.015 507.106C 751.726 506.053 751.756 505.106 752.106 504.265C 752.462 503.412 753.153 502.845 754.179 502.563C 755.178 502.289 756.043 502.458 756.772 503.071L756.772 503.071L755.79 499.493L756.938 499.178zM754.598 503.508C 753.941 503.688 753.485 504.07 753.229 504.654C 752.982 505.234 752.971 505.934 753.196 506.753C 753.428 507.599 753.807 508.221 754.332 508.619C 754.864 509.005 755.458 509.108 756.115 508.928C 756.782 508.745 757.238 508.363 757.485 507.782C 757.73 507.192 757.735 506.47 757.5 505.615C 757.29 504.85 756.934 504.26 756.433 503.846C 755.939 503.421 755.327 503.308 754.598 503.508zM767.489 505.631L767.734 506.522C 767.525 506.676 767.276 506.793 766.988 506.872C 766.331 507.052 765.9 506.803 765.694 506.124C 765.239 507.042 764.499 507.642 763.473 507.924C 762.789 508.112 762.196 508.086 761.695 507.846C 761.203 507.604 760.872 507.177 760.704 506.564C 760.363 505.322 760.988 504.372 762.578 503.713C 762.681 503.665 762.834 503.604 763.036 503.529C 763.794 503.224 764.247 502.988 764.395 502.822C 764.563 502.621 764.598 502.345 764.502 501.994C 764.292 501.229 763.66 500.991 762.607 501.28C 762.067 501.428 761.689 501.653 761.471 501.955C 761.252 502.248 761.184 502.653 761.268 503.172L761.268 503.172L760.148 503.48C 759.961 502.728 760.067 502.074 760.466 501.52C 760.866 500.965 761.515 500.564 762.415 500.317C 763.396 500.047 764.187 500.072 764.788 500.391C 764.98 500.493 765.145 500.651 765.281 500.865C 765.417 501.08 765.511 501.262 765.562 501.413C 765.61 501.554 765.675 501.773 765.757 502.07C 765.851 502.412 765.984 502.932 766.156 503.63C 766.328 504.328 766.461 504.848 766.555 505.19C 766.625 505.442 766.705 505.614 766.798 505.704C 766.897 505.784 767.037 505.799 767.217 505.749C 767.289 505.729 767.38 505.69 767.489 505.631zM764.898 503.439C 764.835 503.524 764.764 503.601 764.686 503.671C 764.609 503.741 764.502 503.809 764.365 503.875C 764.237 503.939 764.149 503.988 764.1 504.021C 764.058 504.042 763.945 504.092 763.764 504.171C 763.58 504.241 763.483 504.277 763.474 504.28C 763.205 504.392 763.028 504.47 762.943 504.513C 762.864 504.544 762.712 504.624 762.487 504.754C 762.27 504.881 762.123 504.999 762.046 505.107C 761.97 505.215 761.904 505.364 761.85 505.553C 761.802 505.731 761.807 505.928 761.866 506.144C 761.965 506.504 762.165 506.754 762.465 506.894C 762.773 507.032 763.144 507.042 763.576 506.923C 764.125 506.772 764.571 506.476 764.914 506.033C 765.257 505.59 765.368 505.149 765.247 504.708L765.247 504.708L764.898 503.439zM772.945 497.629L772.119 506.305C 772.088 506.652 772.051 506.924 772.008 507.12C 771.977 507.322 771.908 507.549 771.803 507.8C 771.709 508.058 771.562 508.263 771.362 508.415C 771.173 508.573 770.93 508.693 770.633 508.775C 770.408 508.836 770.114 508.874 769.749 508.887L769.749 508.887L769.468 507.861C 769.828 507.868 770.089 507.85 770.251 507.805C 770.629 507.701 770.846 507.434 770.902 507.002L770.902 507.002L771.093 505.585L766.424 499.419L767.72 499.063L771.309 504.045L771.743 497.959L772.945 497.629zM776.455 502.545L776.707 503.463C 776.801 503.805 776.862 504.098 776.89 504.342C 776.93 504.592 776.933 504.853 776.901 505.123C 776.869 505.393 776.771 505.638 776.609 505.856C 776.449 506.084 776.218 506.283 775.916 506.453L775.916 506.453L775.731 505.778C 776.172 505.483 776.299 504.974 776.11 504.251L776.11 504.251L775.368 504.455L774.956 502.956L776.455 502.545zM786.526 491.287L786.797 492.272C 785.364 495.231 784.914 498.369 785.448 501.688L785.448 501.688L784.179 502.036C 783.881 500.53 783.867 498.961 784.135 497.33C 784.412 495.695 784.918 494.153 785.652 492.703L785.652 492.703L780.643 494.078L780.343 492.984L786.526 491.287zM792.281 498.2L792.693 499.698L791.194 500.11L790.783 498.611L792.281 498.2zM790.78 492.732L791.192 494.231L789.693 494.642L789.282 493.144L790.78 492.732zM792.947 492.674C 792.702 491.677 792.766 490.837 793.14 490.153C 793.523 489.467 794.187 488.995 795.132 488.735C 795.978 488.503 796.72 488.546 797.359 488.864C 797.998 489.182 798.42 489.715 798.626 490.462C 798.749 490.912 798.743 491.349 798.608 491.773C 798.48 492.186 798.232 492.535 797.865 492.82C 798.439 492.797 798.941 492.95 799.37 493.277C 799.798 493.605 800.093 494.061 800.253 494.646C 800.505 495.526 800.395 496.325 799.925 497.045C 799.461 497.753 798.739 498.242 797.758 498.511C 796.786 498.778 795.934 498.726 795.203 498.356C 794.479 497.974 793.992 497.328 793.743 496.419L793.743 496.419L793.694 496.244L794.828 495.933C 795.043 496.609 795.381 497.083 795.843 497.353C 796.304 497.623 796.854 497.67 797.493 497.495C 798.105 497.327 798.553 497.02 798.837 496.574C 799.128 496.117 799.198 495.614 799.047 495.065C 798.894 494.507 798.578 494.114 798.1 493.887C 797.63 493.658 797.072 493.633 796.424 493.81C 796.262 493.855 796.059 493.93 795.817 494.035L795.817 494.035L795.55 493.063C 795.679 493.037 795.811 493.006 795.946 492.969C 796.54 492.806 796.969 492.538 797.235 492.165C 797.507 491.781 797.576 491.345 797.443 490.859C 797.314 490.391 797.057 490.055 796.672 489.851C 796.296 489.645 795.856 489.611 795.352 489.749C 794.776 489.907 794.377 490.215 794.154 490.673C 793.929 491.122 793.9 491.687 794.067 492.367L794.067 492.367L792.947 492.674zM802.984 486.579C 803.56 486.421 804.081 486.395 804.545 486.499C 805.016 486.593 805.401 486.763 805.701 487.009C 806.001 487.256 806.282 487.61 806.544 488.07C 806.804 488.522 807.001 488.942 807.137 489.33C 807.27 489.71 807.412 490.174 807.563 490.723C 807.701 491.227 807.804 491.688 807.87 492.105C 807.945 492.52 807.976 492.967 807.962 493.445C 807.957 493.92 807.883 494.337 807.739 494.696C 807.593 495.046 807.353 495.369 807.018 495.664C 806.682 495.959 806.249 496.18 805.718 496.325C 805.16 496.479 804.648 496.518 804.182 496.442C 803.723 496.355 803.341 496.199 803.037 495.973C 802.733 495.746 802.453 495.431 802.197 495.027C 801.947 494.612 801.75 494.211 801.606 493.825C 801.458 493.43 801.313 492.971 801.17 492.449C 801.046 491.999 800.948 491.605 800.874 491.267C 800.81 490.927 800.752 490.541 800.702 490.11C 800.658 489.667 800.668 489.282 800.733 488.954C 800.795 488.618 800.903 488.288 801.057 487.965C 801.21 487.642 801.448 487.364 801.771 487.13C 802.103 486.894 802.507 486.71 802.984 486.579zM804.053 487.564C 803.808 487.515 803.545 487.529 803.266 487.605C 802.987 487.682 802.754 487.804 802.568 487.971C 802.379 488.13 802.236 488.295 802.138 488.467C 802.04 488.639 801.979 488.874 801.954 489.171C 801.926 489.459 801.915 489.699 801.919 489.892C 801.933 490.081 801.973 490.351 802.04 490.701C 802.104 491.041 802.156 491.283 802.196 491.427C 802.233 491.562 802.296 491.792 802.385 492.116C 802.471 492.431 802.547 492.69 802.613 492.895C 802.679 493.1 802.776 493.363 802.903 493.687C 803.031 494.01 803.17 494.271 803.322 494.472C 803.471 494.663 803.644 494.853 803.841 495.041C 804.035 495.219 804.266 495.335 804.532 495.388C 804.804 495.429 805.098 495.407 805.413 495.32C 805.683 495.246 805.908 495.131 806.088 494.975C 806.277 494.817 806.42 494.652 806.518 494.48C 806.616 494.308 806.677 494.088 806.7 493.82C 806.73 493.541 806.743 493.305 806.738 493.113C 806.731 492.911 806.695 492.655 806.629 492.344C 806.569 492.022 806.52 491.789 806.48 491.645C 806.447 491.489 806.391 491.267 806.312 490.979C 806.226 490.664 806.164 490.439 806.127 490.304C 806.09 490.169 806.012 489.939 805.894 489.613C 805.775 489.288 805.669 489.041 805.574 488.874C 805.489 488.703 805.361 488.502 805.19 488.268C 805.019 488.034 804.848 487.868 804.676 487.77C 804.504 487.672 804.296 487.603 804.053 487.564z" stroke="none" fill="#B9C3C8" fill-rule="nonzero" />
    <path d="M694.217 567.179L767.023 547.19C 773.68 545.362 780.559 549.277 782.386 555.934C 784.214 562.591 780.299 569.47 773.642 571.297L773.642 571.297L700.836 591.287L694.217 567.179z" stroke="none" fill="#D3F6CE" fill-rule="nonzero" />
    <path d="M716.779 569.454L717.808 569.172L721.036 575.073L721.011 568.292L722.104 567.992L725.523 573.841L725.339 567.104L726.336 566.83L726.394 574.936L725.344 575.225L721.869 569.38L721.844 576.186L720.794 576.474L716.779 569.454zM730.633 565.457C 731.779 565.142 732.769 565.258 733.604 565.805C 734.436 566.344 735.012 567.194 735.33 568.354C 735.65 569.52 735.6 570.569 735.178 571.498C 734.757 572.428 733.969 573.051 732.817 573.367C 732.23 573.528 731.674 573.567 731.149 573.483C 730.624 573.399 730.161 573.21 729.761 572.917C 729.369 572.622 729.028 572.255 728.741 571.817C 728.46 571.377 728.243 570.877 728.09 570.319C 727.766 569.138 727.833 568.108 728.291 567.229C 728.757 566.348 729.537 565.758 730.633 565.457zM730.872 566.327C 730.031 566.558 729.465 567.032 729.176 567.751C 728.891 568.46 728.869 569.249 729.107 570.119C 729.368 571.067 729.812 571.758 730.441 572.194C 731.076 572.621 731.792 572.724 732.591 572.505C 733.383 572.287 733.939 571.831 734.257 571.135C 734.576 570.439 734.606 569.621 734.348 568.68C 734.091 567.747 733.646 567.067 733.012 566.64C 732.385 566.212 731.671 566.107 730.872 566.327zM735.772 564.24L739.092 563.328C 740.782 562.864 741.819 563.329 742.201 564.722C 742.322 565.16 742.308 565.582 742.161 565.988C 742.019 566.384 741.769 566.692 741.411 566.912C 741.681 566.899 741.908 566.924 742.093 566.987C 742.278 567.051 742.432 567.168 742.555 567.34C 742.678 567.511 742.771 567.668 742.833 567.811C 742.895 567.954 742.972 568.168 743.066 568.454C 743.074 568.482 743.097 568.552 743.135 568.663C 743.171 568.767 743.195 568.841 743.207 568.883C 743.216 568.919 743.238 568.985 743.273 569.082C 743.314 569.177 743.345 569.248 743.366 569.296C 743.386 569.343 743.415 569.408 743.453 569.489C 743.49 569.57 743.527 569.635 743.564 569.686C 743.599 569.73 743.64 569.783 743.688 569.846C 743.734 569.902 743.782 569.953 743.833 570C 743.882 570.04 743.933 570.075 743.987 570.106L743.987 570.106L742.842 570.421C 742.773 570.364 742.706 570.287 742.642 570.19C 742.584 570.092 742.529 569.974 742.476 569.837C 742.421 569.692 742.379 569.578 742.348 569.495C 742.316 569.405 742.273 569.276 742.219 569.109C 742.166 568.941 742.136 568.846 742.13 568.825C 741.918 568.191 741.666 567.8 741.374 567.652C 741.09 567.502 740.608 567.52 739.929 567.707L739.929 567.707L737.946 568.251L738.843 571.519L737.846 571.792L735.772 564.24zM737.002 564.815L737.727 567.456L739.605 566.94C 739.838 566.876 740.031 566.816 740.182 566.759C 740.341 566.7 740.509 566.62 740.687 566.518C 740.864 566.416 740.997 566.304 741.084 566.181C 741.179 566.056 741.243 565.898 741.274 565.707C 741.305 565.515 741.288 565.3 741.222 565.059C 741.082 564.55 740.832 564.25 740.472 564.159C 740.118 564.058 739.675 564.081 739.145 564.226L739.145 564.226L737.002 564.815zM749.377 560.505L747.028 564.412L751.578 568.022L750.305 568.372L746.514 565.283L745.588 566.815L746.316 569.467L745.319 569.74L743.246 562.188L744.243 561.914L745.271 565.659L748.072 560.863L749.377 560.505z" stroke="none" fill="#282828" fill-rule="nonzero" />
    <path transform="matrix(0.9643152 -0.2647568 0.2647568 0.9643152 -212.79697 23.559631)"  d="M-19.0002 811.184C -19.0002 805.6612 -14.523047 801.184 -9.0002 801.184L-9.0002 801.184L677.9998 801.184C 683.52264 801.184 687.9998 805.6612 687.9998 811.184L687.9998 811.184L687.9998 1261.1841C 687.9998 1266.7069 683.52264 1271.1841 677.9998 1271.1841L677.9998 1271.1841L-9.0002 1271.1841C -14.523047 1271.1841 -19.0002 1266.7069 -19.0002 1261.1841L-19.0002 1261.1841L-19.0002 811.184z" stroke="none" fill="none" />
    <path transform="matrix(0.96432674 -0.26471472 0.26471472 0.96432674 -185.96649 120.4718)"  d="M354 760.222C 354 754.69916 358.47714 750.222 364 750.222L364 750.222L752.82104 750.222C 758.3439 750.222 762.82104 754.69916 762.82104 760.222L762.82104 760.222L762.82104 1052.2219C 762.82104 1057.7449 758.3439 1062.2219 752.82104 1062.2219L752.82104 1062.2219L364 1062.2219C 358.47714 1062.2219 354 1057.7449 354 1052.2219L354 1052.2219L354 760.222z" stroke="none" fill="#00D7FF" fill-rule="nonzero" fill-opacity="0.24705882" />
</g>
</svg>