<?xml version="1.0" standalone="no"?>
<!DOCTYPE svg PUBLIC "-//W3C//DTD SVG 1.0//EN" "http://www.w3.org/TR/2001/REC-SVG-20010904/DTD/svg10.dtd">
<svg xmlns="http://www.w3.org/2000/svg" xmlns:xlink="http://www.w3.org/1999/xlink" id="body_1" width="450" height="385">

<g transform="matrix(1 0 0 1 0 0)">
    <path transform="matrix(0.9643152 -0.2647568 0.2647568 0.9643152 18.24137 -2.2942429)"  d="M0.609863 -58.8164C 0.609863 -64.33925 5.0870156 -68.8164 10.609863 -68.8164L10.609863 -68.8164L697.60986 -68.8164C 703.1327 -68.8164 707.60986 -64.33925 707.60986 -58.8164L707.60986 -58.8164L707.60986 391.1836C 707.60986 396.70645 703.1327 401.1836 697.60986 401.1836L697.60986 401.1836L10.609863 401.1836C 5.0870156 401.1836 0.609863 396.70645 0.609863 391.1836L0.609863 391.1836L0.609863 -58.8164z" stroke="none" fill="none" />
	<g>
        <path transform="matrix(0.9643152 -0.2647568 0.2647568 0.9643152 13.975965 4.7439384)"  d="M24.5864 -39.4741C 24.5864 -44.996944 29.06355 -49.4741 34.5864 -49.4741L34.5864 -49.4741L219.5864 -49.4741C 225.10925 -49.4741 229.5864 -44.996944 229.5864 -39.4741L229.5864 -39.4741L229.5864 139.52591C 229.5864 145.04875 225.10925 149.52591 219.5864 149.52591L219.5864 149.52591L34.5864 149.52591C 29.06355 149.52591 24.5864 145.04875 24.5864 139.52591L24.5864 139.52591L24.5864 -39.4741z" stroke="none" fill="#FFFFFF" fill-rule="nonzero" />
	</g>
    <path d="M102.966 10.9296L100.683 11.5566C 100.291 10.4917 99.447 10.1371 98.151 10.493C 97.5955 10.6455 97.1894 10.8786 96.9327 11.1925C 96.6834 11.4932 96.6124 11.839 96.7197 12.2299C 96.7565 12.3636 96.8095 12.4762 96.8789 12.5678C 96.9483 12.6594 97.0523 12.7359 97.1908 12.7974C 97.3266 12.8486 97.4595 12.8896 97.5896 12.9202C 97.7168 12.9406 97.8983 12.9571 98.1341 12.9698C 98.3774 12.9694 98.5935 12.9709 98.7825 12.9743C 98.9817 12.9749 99.2572 12.9712 99.609 12.9631C 99.9607 12.955 100.27 12.9531 100.537 12.9573C 101.701 12.9694 102.61 13.1348 103.261 13.4537C 103.923 13.7697 104.373 14.3597 104.61 15.2237C 104.782 15.8512 104.805 16.4368 104.677 16.9805C 104.547 17.514 104.299 17.9803 103.933 18.3795C 103.575 18.7655 103.15 19.0923 102.659 19.3597C 102.182 19.6347 101.65 19.8526 101.064 20.0136C 99.5721 20.4231 98.3114 20.4042 97.2816 19.9569C 96.2592 19.4965 95.572 18.6454 95.22 17.4036L95.22 17.4036L97.6115 16.747C 98.0311 18.114 99.0483 18.5758 100.663 18.1325C 101.291 17.9602 101.749 17.6961 102.038 17.3401C 102.335 16.971 102.422 16.5601 102.297 16.1075C 102.193 15.7269 101.947 15.4958 101.56 15.4141C 101.182 15.3297 100.417 15.28 99.2621 15.2651C 99.1975 15.2718 99.1484 15.2742 99.1147 15.2724C 99.081 15.2705 99.0371 15.2716 98.9828 15.2754C 98.9257 15.2689 98.8752 15.2662 98.8313 15.2672C 98.4327 15.266 98.1558 15.2646 98.0005 15.263C 97.8424 15.2511 97.5883 15.2324 97.2384 15.2068C 96.8988 15.1784 96.6442 15.1376 96.4748 15.0846C 96.3054 15.0316 96.0901 14.9524 95.8289 14.8471C 95.578 14.739 95.3822 14.6103 95.2417 14.4608C 95.0983 14.3011 94.9501 14.1039 94.7972 13.8694C 94.6518 13.6217 94.5367 13.3436 94.452 13.035C 94.1781 12.0373 94.3449 11.1342 94.9526 10.3258C 95.5602 9.51741 96.5018 8.93812 97.7773 8.58793C 99.0116 8.24905 100.1 8.26544 101.043 8.63711C 101.983 8.9985 102.624 9.76268 102.966 10.9296zM112.024 8.17748L114.209 16.1389L112.126 16.7107L111.817 15.5844C 111.449 16.659 110.709 17.3488 109.598 17.6538C 108.724 17.8939 107.975 17.8451 107.351 17.5075C 106.735 17.1568 106.298 16.5134 106.041 15.5774L106.041 15.5774L104.571 10.2235L106.778 9.61775L108.027 14.1693C 108.109 14.4676 108.186 14.7065 108.257 14.886C 108.336 15.0524 108.442 15.2169 108.575 15.3794C 108.708 15.542 108.88 15.6441 109.091 15.6859C 109.309 15.7145 109.567 15.6879 109.865 15.606C 111.017 15.2897 111.387 14.3807 110.975 12.8789L110.975 12.8789L109.848 8.77477L112.024 8.17748zM115.032 4.09955L116.129 8.09568C 116.534 7.15478 117.267 6.53889 118.326 6.24801C 119.385 5.95713 120.325 6.11411 121.143 6.71894C 121.962 7.32377 122.534 8.21764 122.858 9.40053C 123.209 10.676 123.163 11.8001 122.722 12.7729C 122.289 13.7325 121.548 14.3564 120.499 14.6444C 119.398 14.9466 118.453 14.7691 117.664 14.1118L117.664 14.1118L117.955 15.1104L115.872 15.6823L112.856 4.69684L115.032 4.09955zM118.109 8.11617C 117.523 8.27714 117.115 8.62678 116.887 9.1651C 116.666 9.69031 116.659 10.3284 116.865 11.0792C 117.077 11.8507 117.413 12.411 117.874 12.7601C 118.335 13.1092 118.864 13.2018 119.46 13.038C 120.026 12.8827 120.416 12.5322 120.632 11.9864C 120.857 11.4378 120.865 10.7829 120.656 10.0217C 120.456 9.29141 120.12 8.75312 119.649 8.40684C 119.188 8.05773 118.675 7.96084 118.109 8.11617zM137.586 9.72073L135.364 10.3307L134.059 5.57859C 133.915 5.054 133.723 4.67544 133.482 4.4429C 133.239 4.20007 132.86 4.14926 132.345 4.29047C 131.327 4.57005 130.993 5.34758 131.343 6.62304L131.343 6.62304L132.572 11.0975L130.381 11.699L129.05 6.85427C 128.915 6.36054 128.728 6.00255 128.49 5.7803C 128.249 5.54776 127.892 5.49645 127.419 5.62636C 126.36 5.91724 126.021 6.75698 126.402 8.1456L126.402 8.1456L127.588 12.4657L125.397 13.0673L123.211 5.10587L125.294 4.534L125.595 5.62946C 125.982 4.58288 126.706 3.91415 127.765 3.62327C 128.866 3.32109 129.737 3.55209 130.378 4.31626C 130.776 3.26686 131.525 2.59107 132.625 2.28889C 133.5 2.04885 134.239 2.12243 134.843 2.50965C 135.454 2.88376 135.879 3.50283 136.116 4.36685L136.116 4.36685L137.586 9.72073zM138.539 -2.35449L139.047 -0.503L136.856 0.0985272L136.348 -1.75296L138.539 -2.35449zM139.369 0.669607L141.555 8.63099L139.364 9.23252L137.178 1.27113L139.369 0.669607zM145.476 -1.0071L145.883 0.474091L144.263 0.918883L145.292 4.66814C 145.357 4.90472 145.41 5.07817 145.452 5.18849C 145.49 5.28853 145.556 5.38665 145.649 5.48285C 145.741 5.57905 145.855 5.63078 145.99 5.63803C 146.132 5.63218 146.322 5.59678 146.558 5.53182C 146.826 5.4584 147.044 5.38739 147.213 5.31881L147.213 5.31881L147.671 6.98515C 147.147 7.17314 146.71 7.31515 146.361 7.41117C 145.404 7.67381 144.706 7.68856 144.266 7.45543C 143.833 7.20918 143.485 6.60776 143.223 5.65116L143.223 5.65116L142.087 1.51617L140.761 1.88048L140.354 0.39929L141.681 0.0349853L141.02 -2.37195L143.195 -2.96924L143.856 -0.562306L145.476 -1.0071zM155.944 -4.03025L156.498 -2.00905C 156.173 -1.98604 155.882 -1.93924 155.624 -1.86863C 154.904 -1.67095 154.438 -1.29407 154.226 -0.738008C 154.011 -0.192228 154.009 0.466388 154.221 1.23784L154.221 1.23784L155.221 4.87909L153.03 5.48062L150.844 -2.48077L152.927 -3.05264L153.329 -1.58688C 153.552 -2.83151 154.259 -3.61763 155.453 -3.94522C 155.555 -3.97346 155.719 -4.0018 155.944 -4.03025zM165.53 -0.606058C 165.517 0.31546 165.242 1.10458 164.703 1.7613C 164.175 2.4152 163.453 2.86782 162.537 3.11916C 161.313 3.45523 160.221 3.34576 159.261 2.79075C 158.312 2.23291 157.665 1.32655 157.32 0.0716529C 156.981 -1.16267 157.077 -2.28407 157.608 -3.29253C 158.138 -4.301 158.985 -4.96479 160.147 -5.28391C 161.351 -5.61433 162.42 -5.46553 163.356 -4.83751C 164.289 -4.21977 164.947 -3.21145 165.331 -1.81255L165.331 -1.81255L165.39 -1.59655L159.682 -0.0291878C 159.881 0.657152 160.19 1.13655 160.608 1.40902C 161.036 1.67866 161.543 1.73299 162.129 1.57202C 162.9 1.36022 163.335 0.826227 163.431 -0.0299472L163.431 -0.0299472L165.53 -0.606058zM162.787 -2.37516C 162.592 -2.88563 162.305 -3.2659 161.927 -3.51598C 161.545 -3.77635 161.098 -3.83593 160.583 -3.69472C 160.1 -3.56199 159.743 -3.29242 159.511 -2.88601C 159.28 -2.47959 159.21 -1.99019 159.3 -1.4178L159.3 -1.4178L162.787 -2.37516zM167.466 -7.04438L167.737 -6.05692C 168.093 -7.01738 168.805 -7.64446 169.875 -7.93816C 170.945 -8.23186 171.91 -8.08195 172.769 -7.48841C 173.629 -6.89488 174.236 -5.95523 174.589 -4.66948C 174.93 -3.42487 174.887 -2.33443 174.458 -1.39817C 174.037 -0.475026 173.307 0.129164 172.268 0.414395C 171.198 0.708099 170.272 0.5366 169.488 -0.1001L169.488 -0.1001L170.535 3.71087L168.359 4.30816L165.398 -6.47674L167.466 -7.04438zM169.818 -6.03098C 169.221 -5.86719 168.813 -5.52269 168.592 -4.99748C 168.381 -4.4751 168.382 -3.82818 168.594 -3.05673C 168.805 -2.28527 169.14 -1.73014 169.598 -1.39132C 170.057 -1.0525 170.584 -0.964988 171.18 -1.12878C 171.767 -1.28976 172.165 -1.63143 172.376 -2.15382C 172.597 -2.67903 172.604 -3.31707 172.398 -4.06795C 172.186 -4.8394 171.85 -5.39968 171.389 -5.74879C 170.928 -6.09789 170.404 -6.19196 169.818 -6.03098zM178.686 -10.3738C 179.91 -10.7099 180.998 -10.5938 181.95 -10.0257C 182.913 -9.46042 183.568 -8.54518 183.916 -7.28C 184.266 -6.00453 184.171 -4.87799 183.632 -3.90038C 183.103 -2.9256 182.217 -2.26735 180.972 -1.92564C 179.728 -1.58392 178.624 -1.69571 177.661 -2.26101C 176.698 -2.8263 176.042 -3.74669 175.692 -5.02215C 175.345 -6.28733 175.446 -7.41014 175.995 -8.39058C 176.544 -9.37101 177.441 -10.0321 178.686 -10.3738zM179.082 -8.69051C 178.495 -8.52954 178.095 -8.17617 177.879 -7.63039C 177.664 -7.08461 177.665 -6.4157 177.883 -5.62368C 178.106 -4.81108 178.449 -4.22509 178.913 -3.8657C 179.377 -3.50631 179.912 -3.40992 180.519 -3.57654C 181.126 -3.74316 181.532 -4.09795 181.737 -4.64091C 181.949 -5.19697 181.944 -5.8813 181.72 -6.6939C 181.503 -7.48592 181.159 -8.05508 180.687 -8.40136C 180.224 -8.76075 179.688 -8.85713 179.082 -8.69051zM189.393 -13.214L189.948 -11.1928C 189.623 -11.1698 189.331 -11.123 189.074 -11.0524C 188.354 -10.8547 187.888 -10.4778 187.676 -9.92175C 187.46 -9.37597 187.459 -8.71736 187.671 -7.94591L187.671 -7.94591L188.67 -4.30465L186.479 -3.70312L184.293 -11.6645L186.376 -12.2364L186.779 -10.7706C 187.001 -12.0153 187.709 -12.8014 188.902 -13.129C 189.005 -13.1572 189.169 -13.1855 189.393 -13.214zM194.641 -14.5055L195.048 -13.0244L193.428 -12.5796L194.457 -8.83031C 194.522 -8.59373 194.575 -8.42028 194.617 -8.30996C 194.655 -8.20992 194.721 -8.11181 194.814 -8.0156C 194.906 -7.9194 195.02 -7.86767 195.155 -7.86042C 195.297 -7.86627 195.487 -7.90168 195.723 -7.96663C 195.991 -8.04006 196.209 -8.11106 196.378 -8.17964L196.378 -8.17964L196.836 -6.5133C 196.312 -6.32531 195.875 -6.1833 195.526 -6.08728C 194.569 -5.82464 193.871 -5.80989 193.431 -6.04303C 192.998 -6.28927 192.65 -6.89069 192.388 -7.84729L192.388 -7.84729L191.252 -11.9823L189.926 -11.618L189.519 -13.0992L190.846 -13.4635L190.185 -15.8704L192.36 -16.4677L193.021 -14.0608L194.641 -14.5055z" stroke="none" fill="#282828" fill-rule="nonzero" />
    <path d="M113.867 33.895L114.171 35.002L110.944 35.8879L113.28 44.3931L112.011 44.7416L109.675 36.2363L106.449 37.1222L106.145 36.0151L113.867 33.895zM115.013 37.2824C 115.442 36.4483 116.184 35.8868 117.237 35.5976C 118.29 35.3085 119.196 35.4032 119.957 35.8816C 120.717 36.36 121.256 37.1752 121.572 38.3272C 121.896 39.5063 121.855 40.5046 121.451 41.3222C 121.046 42.1399 120.313 42.6945 119.251 42.9861C 118.189 43.2777 117.267 43.1822 116.486 42.6998C 115.705 42.2173 115.157 41.4001 114.84 40.248C 114.527 39.105 114.584 38.1164 115.013 37.2824zM119.27 36.8687C 118.747 36.48 118.148 36.3783 117.473 36.5636C 116.798 36.7489 116.33 37.1434 116.07 37.7472C 115.81 38.3509 115.794 39.0668 116.021 39.8948C 116.256 40.7499 116.633 41.3673 117.154 41.747C 117.681 42.1153 118.295 42.2031 118.997 42.0103C 119.672 41.825 120.132 41.4374 120.377 40.8476C 120.63 40.2554 120.64 39.5317 120.405 38.6767C 120.178 37.8487 119.799 37.246 119.27 36.8687zM127.815 30.0657L130.454 39.678L129.374 39.9745L129.092 38.9485C 128.873 39.8796 128.219 40.4946 127.13 40.7936C 126.14 41.0654 125.263 40.9531 124.497 40.4567C 123.738 39.9489 123.203 39.1279 122.892 37.9939C 122.603 36.9408 122.633 35.9937 122.983 35.1524C 123.339 34.2996 124.03 33.7324 125.056 33.4507C 126.055 33.1764 126.92 33.3456 127.649 33.9583L127.649 33.9583L126.667 30.3807L127.815 30.0657zM125.475 34.3955C 124.818 34.5759 124.362 34.9577 124.106 35.541C 123.859 36.1218 123.848 36.8217 124.073 37.6407C 124.305 38.4867 124.684 39.1086 125.209 39.5064C 125.741 39.8927 126.335 39.9956 126.992 39.8152C 127.658 39.6324 128.115 39.2505 128.362 38.6697C 128.607 38.0799 128.612 37.3575 128.377 36.5025C 128.167 35.7375 127.811 35.1479 127.31 34.7337C 126.816 34.3081 126.204 34.1953 125.475 34.3955zM138.366 36.5183L138.611 37.4093C 138.402 37.5636 138.153 37.6802 137.865 37.7593C 137.208 37.9397 136.777 37.6903 136.571 37.0113C 136.116 37.9297 135.376 38.5297 134.35 38.8114C 133.666 38.9992 133.073 38.9732 132.572 38.7334C 132.08 38.4911 131.749 38.064 131.581 37.4519C 131.24 36.2099 131.865 35.2593 133.455 34.6001C 133.558 34.5524 133.711 34.4912 133.913 34.4163C 134.671 34.1114 135.124 33.8757 135.272 33.7092C 135.44 33.5084 135.475 33.2325 135.379 32.8815C 135.169 32.1164 134.537 31.8785 133.484 32.1676C 132.944 32.3159 132.566 32.5408 132.348 32.8424C 132.129 33.135 132.061 33.5407 132.145 34.0596L132.145 34.0596L131.025 34.3672C 130.838 33.6153 130.944 32.9618 131.343 32.407C 131.742 31.8521 132.392 31.4511 133.292 31.204C 134.273 30.9347 135.064 30.9595 135.665 31.2786C 135.857 31.3806 136.022 31.5387 136.158 31.7529C 136.294 31.9672 136.388 32.1496 136.439 32.3001C 136.487 32.4416 136.552 32.6609 136.634 32.9579C 136.728 33.2999 136.861 33.8199 137.033 34.5179C 137.205 35.2158 137.338 35.7358 137.432 36.0778C 137.502 36.3298 137.582 36.5012 137.675 36.5919C 137.774 36.6711 137.914 36.686 138.094 36.6366C 138.166 36.6168 138.257 36.5774 138.366 36.5183zM135.775 34.326C 135.712 34.4112 135.641 34.4887 135.563 34.5584C 135.486 34.6281 135.379 34.6963 135.242 34.7628C 135.114 34.8269 135.026 34.8753 134.977 34.9081C 134.934 34.9295 134.822 34.9796 134.641 35.0585C 134.457 35.1284 134.36 35.1646 134.351 35.1671C 134.082 35.2797 133.905 35.3573 133.82 35.4C 133.741 35.4313 133.589 35.5118 133.364 35.6415C 133.147 35.7687 133 35.8864 132.923 35.9946C 132.847 36.1028 132.781 36.2515 132.726 36.4407C 132.678 36.6184 132.684 36.8153 132.743 37.0313C 132.842 37.3913 133.042 37.6414 133.341 37.7817C 133.65 37.9195 134.021 37.9291 134.453 37.8105C 135.002 37.6598 135.448 37.3631 135.791 36.9205C 136.134 36.4779 136.245 36.0361 136.124 35.595L136.124 35.595L135.775 34.326zM143.822 28.5163L142.996 37.1927C 142.965 37.5398 142.928 37.8113 142.885 38.007C 142.854 38.2092 142.785 38.4361 142.68 38.6876C 142.586 38.9456 142.439 39.1505 142.239 39.3023C 142.05 39.4606 141.807 39.5805 141.51 39.6621C 141.285 39.7238 140.991 39.7612 140.626 39.7741L140.626 39.7741L140.345 38.748C 140.705 38.7556 140.966 38.7372 141.128 38.6927C 141.506 38.5889 141.723 38.3213 141.779 37.8898L141.779 37.8898L141.97 36.4725L137.301 30.3066L138.597 29.9508L142.186 34.9323L142.62 28.8462L143.822 28.5163zM147.332 33.4325L147.584 34.3505C 147.678 34.6925 147.739 34.9855 147.767 35.2294C 147.807 35.4798 147.81 35.7401 147.778 36.0103C 147.746 36.2805 147.648 36.525 147.486 36.7438C 147.326 36.9717 147.095 37.1706 146.793 37.3405L146.793 37.3405L146.608 36.6655C 147.049 36.3701 147.176 35.8611 146.987 35.1386L146.987 35.1386L146.245 35.3425L145.833 33.8439L147.332 33.4325zM157.403 22.1742L157.674 23.1597C 156.241 26.1181 155.791 29.2565 156.325 32.575L156.325 32.575L155.055 32.9234C 154.758 31.4177 154.744 29.8489 155.012 28.217C 155.289 26.5826 155.795 25.0404 156.529 23.5902L156.529 23.5902L151.52 24.9654L151.22 23.8718L157.403 22.1742zM163.158 29.0873L163.57 30.5858L162.071 30.9972L161.66 29.4987L163.158 29.0873zM161.657 23.6196L162.069 25.1181L160.57 25.5296L160.159 24.031L161.657 23.6196zM163.824 23.5619C 163.579 22.5645 163.643 21.7241 164.017 21.0408C 164.4 20.3549 165.064 19.8823 166.009 19.6228C 166.855 19.3906 167.597 19.4335 168.236 19.7517C 168.875 20.0698 169.297 20.6024 169.503 21.3494C 169.626 21.7995 169.62 22.2366 169.485 22.6609C 169.356 23.0736 169.109 23.4224 168.742 23.7071C 169.316 23.6848 169.818 23.8374 170.246 24.1649C 170.675 24.4925 170.97 24.9487 171.13 25.5338C 171.382 26.4133 171.272 27.2129 170.802 27.9324C 170.338 28.6404 169.616 29.1291 168.635 29.3985C 167.663 29.6653 166.811 29.6136 166.08 29.2432C 165.356 28.8613 164.869 28.2159 164.62 27.3068L164.62 27.3068L164.571 27.1313L165.705 26.82C 165.92 27.4966 166.258 27.97 166.72 28.2401C 167.181 28.5103 167.731 28.5577 168.37 28.3822C 168.982 28.2142 169.43 27.9073 169.714 27.4615C 170.005 27.0042 170.075 26.5011 169.924 25.9521C 169.771 25.394 169.455 25.0017 168.977 24.7749C 168.507 24.5457 167.948 24.52 167.3 24.6979C 167.138 24.7424 166.936 24.8173 166.694 24.9225L166.694 24.9225L166.427 23.9504C 166.556 23.9248 166.688 23.8935 166.823 23.8564C 167.417 23.6933 167.846 23.4253 168.112 23.0524C 168.384 22.6681 168.453 22.2329 168.32 21.7468C 168.191 21.2788 167.934 20.9428 167.549 20.7388C 167.173 20.5324 166.733 20.4983 166.229 20.6367C 165.653 20.7948 165.254 21.1029 165.031 21.5609C 164.806 22.0098 164.777 22.5743 164.944 23.2543L164.944 23.2543L163.824 23.5619zM173.861 17.4669C 174.437 17.3087 174.958 17.282 175.422 17.3868C 175.893 17.4802 176.278 17.6502 176.578 17.8969C 176.878 18.1436 177.159 18.4972 177.421 18.9576C 177.681 19.409 177.878 19.829 178.014 20.2176C 178.147 20.5972 178.289 21.0615 178.44 21.6105C 178.578 22.1146 178.681 22.5753 178.747 22.9926C 178.822 23.4075 178.853 23.854 178.839 24.3321C 178.834 24.8077 178.76 25.2249 178.616 25.5837C 178.47 25.9335 178.23 26.256 177.894 26.5512C 177.559 26.8465 177.126 27.067 176.595 27.2128C 176.037 27.366 175.525 27.405 175.059 27.3296C 174.6 27.2428 174.218 27.0863 173.914 26.8601C 173.61 26.6338 173.33 26.3187 173.074 25.9148C 172.824 25.4994 172.627 25.0986 172.483 24.7125C 172.335 24.3173 172.19 23.8588 172.047 23.3368C 171.923 22.8867 171.825 22.4928 171.751 22.1548C 171.687 21.8144 171.629 21.4285 171.579 20.9972C 171.535 20.5544 171.545 20.1693 171.61 19.8417C 171.672 19.5052 171.78 19.1755 171.934 18.8527C 172.087 18.5299 172.325 18.2516 172.648 18.0178C 172.98 17.7815 173.384 17.5978 173.861 17.4669zM174.93 18.451C 174.684 18.4023 174.422 18.4163 174.143 18.4929C 173.864 18.5695 173.631 18.6914 173.445 18.8588C 173.256 19.0171 173.113 19.1822 173.015 19.3543C 172.917 19.5264 172.856 19.761 172.831 20.0582C 172.803 20.3464 172.792 20.5867 172.796 20.779C 172.81 20.9689 172.85 21.2386 172.917 21.588C 172.981 21.9284 173.033 22.1706 173.073 22.3146C 173.11 22.4497 173.173 22.6792 173.262 23.0032C 173.348 23.3182 173.424 23.578 173.49 23.7825C 173.556 23.987 173.653 24.2509 173.78 24.574C 173.908 24.8971 174.047 25.1588 174.199 25.3591C 174.348 25.5504 174.521 25.74 174.718 25.928C 174.912 26.1069 175.143 26.2228 175.409 26.2755C 175.681 26.3168 175.975 26.2942 176.29 26.2077C 176.56 26.1336 176.785 26.0186 176.965 25.8628C 177.154 25.7044 177.297 25.5393 177.395 25.3672C 177.493 25.1951 177.554 24.9752 177.577 24.7075C 177.607 24.4283 177.62 24.1925 177.615 24.0002C 177.608 23.7988 177.572 23.5427 177.506 23.2317C 177.446 22.9093 177.397 22.6761 177.357 22.5321C 177.324 22.3766 177.268 22.1548 177.189 21.8668C 177.103 21.5518 177.041 21.3268 177.004 21.1918C 176.967 21.0568 176.889 20.8265 176.771 20.5009C 176.652 20.1753 176.546 19.9287 176.451 19.761C 176.366 19.5909 176.238 19.389 176.067 19.1551C 175.896 18.9213 175.725 18.7554 175.553 18.6575C 175.381 18.5595 175.173 18.4907 174.93 18.451z" stroke="none" fill="#B9C3C8" fill-rule="nonzero" />
    <path d="M189.719 26.5176C 186.05 20.6875 189.477 17.2503 189.477 17.2503C 190.124 20.7211 192.771 22.8366 192.771 22.8366C 193.419 22.4286 194.494 21.0583 194.494 21.0583C 194.827 22.2722 194.841 25.1098 194.841 25.1098C 194.841 25.1098 196.802 22.4925 196.705 19.0665C 196.607 15.6407 193.446 13.0422 193.446 13.0422C 194.207 15.277 194.055 17.7224 193.022 19.8421C 193.073 19.7345 193.11 19.6206 193.129 19.5026C 193.251 18.8874 193.297 17.3619 192.15 14.1744C 190.537 9.70017 185.879 8.9059 185.879 8.9059C 186.999 11.594 186.108 12.5288 185.06 18.5031C 184.012 24.4763 189.719 26.5176 189.719 26.5176z" stroke="none" fill="#FF851C" fill-rule="nonzero" />
    <path d="M65.0942 98.0662L137.9 78.077C 144.557 76.2493 151.436 80.1643 153.263 86.8215C 155.091 93.4787 151.176 100.357 144.519 102.185L144.519 102.185L71.7132 122.174L65.0942 98.0662z" stroke="none" fill="#D3F6CE" fill-rule="nonzero" />
    <path d="M87.6559 100.342L88.6848 100.059L91.9133 105.96L91.8883 99.1799L92.9808 98.8799L96.4002 104.728L96.2161 97.9917L97.2132 97.7179L97.2714 105.824L96.2212 106.112L92.7458 100.268L92.7208 107.073L91.6706 107.361L87.6559 100.342zM101.51 96.3442C 102.656 96.0297 103.646 96.1457 104.481 96.6922C 105.313 97.2317 105.889 98.0814 106.207 99.2411C 106.527 100.408 106.477 101.456 106.055 102.386C 105.633 103.315 104.846 103.938 103.694 104.254C 103.107 104.416 102.551 104.454 102.026 104.37C 101.501 104.286 101.038 104.098 100.638 103.804C 100.246 103.509 99.9054 103.142 99.6178 102.704C 99.3372 102.264 99.1203 101.765 98.9669 101.206C 98.6427 100.025 98.7097 98.9953 99.1681 98.1166C 99.6336 97.2359 100.414 96.6451 101.51 96.3442zM101.749 97.214C 100.908 97.445 100.342 97.9197 100.053 98.638C 99.7683 99.3472 99.7456 100.137 99.9844 101.007C 100.245 101.954 100.689 102.646 101.318 103.081C 101.953 103.508 102.669 103.612 103.468 103.392C 104.26 103.175 104.816 102.718 105.134 102.022C 105.453 101.327 105.483 100.508 105.224 99.5679C 104.968 98.6345 104.523 97.9544 103.889 97.5278C 103.261 97.0992 102.548 96.9946 101.749 97.214zM106.649 95.1273L109.969 94.2157C 111.659 93.7517 112.696 94.2162 113.078 95.6094C 113.198 96.0478 113.185 96.4697 113.038 96.8752C 112.896 97.2716 112.646 97.5798 112.288 97.7997C 112.558 97.7864 112.785 97.8114 112.97 97.8748C 113.155 97.9382 113.309 98.0556 113.432 98.2271C 113.555 98.3986 113.647 98.5557 113.709 98.6984C 113.771 98.8411 113.849 99.0555 113.943 99.3415C 113.951 99.3698 113.974 99.4396 114.012 99.5508C 114.048 99.6549 114.072 99.7282 114.084 99.7706C 114.093 99.806 114.115 99.8722 114.15 99.9692C 114.191 100.064 114.222 100.136 114.243 100.183C 114.263 100.231 114.292 100.295 114.33 100.376C 114.367 100.457 114.404 100.523 114.441 100.574C 114.476 100.617 114.517 100.671 114.565 100.734C 114.611 100.789 114.659 100.841 114.71 100.888C 114.759 100.927 114.81 100.963 114.864 100.994L114.864 100.994L113.719 101.308C 113.65 101.251 113.583 101.174 113.519 101.078C 113.461 100.98 113.406 100.862 113.353 100.724C 113.298 100.579 113.256 100.466 113.225 100.383C 113.193 100.293 113.15 100.164 113.096 99.9961C 113.042 99.8283 113.013 99.7338 113.007 99.7126C 112.795 99.0788 112.543 98.6879 112.251 98.5398C 111.967 98.3898 111.485 98.4079 110.806 98.5943L110.806 98.5943L108.823 99.1389L109.72 102.406L108.723 102.68L106.649 95.1273zM107.879 95.7021L108.604 98.3434L110.482 97.8279C 110.715 97.7638 110.908 97.7034 111.059 97.6465C 111.218 97.5877 111.386 97.5073 111.564 97.4054C 111.741 97.3035 111.874 97.191 111.961 97.068C 112.056 96.9431 112.12 96.7851 112.151 96.594C 112.182 96.4029 112.164 96.1872 112.098 95.9468C 111.959 95.4376 111.709 95.1373 111.349 95.046C 110.995 94.9456 110.552 94.9682 110.022 95.1138L110.022 95.1138L107.879 95.7021zM120.254 91.392L117.905 95.2995L122.455 98.9096L121.182 99.2591L117.391 96.1705L116.465 97.7022L117.193 100.354L116.196 100.628L114.123 93.0753L115.12 92.8016L116.148 96.546L118.949 91.7502L120.254 91.392z" stroke="none" fill="#282828" fill-rule="nonzero" />
	<g>
        <path transform="matrix(0.9643152 -0.2647568 0.2647568 0.9643152 38.32611 62.029648)"  d="M249.272 -101.162C 249.272 -106.68485 253.74916 -111.162 259.272 -111.162L259.272 -111.162L444.272 -111.162C 449.79486 -111.162 454.272 -106.68485 454.272 -101.162L454.272 -101.162L454.272 77.838C 454.272 83.36085 449.79486 87.838 444.272 87.838L444.272 87.838L259.272 87.838C 253.74916 87.838 249.272 83.36085 249.272 77.838L249.272 77.838L249.272 -101.162z" stroke="none" fill="#FFFFFF" fill-rule="nonzero" />
	</g>
    <path d="M289.78 36.3779L362.585 16.3888C 369.243 14.561 376.121 18.4761 377.949 25.1333C 379.777 31.7905 375.861 38.6689 369.204 40.4967L369.204 40.4967L296.398 60.4858L289.78 36.3779z" stroke="none" fill="#FFE6D3" fill-rule="nonzero" />
    <path d="M318.006 37.0985L318.244 37.9683L314.277 39.0575L314.924 41.4124L318.424 40.4513L318.654 41.2893L315.154 42.2504L316.112 45.7402L315.115 46.014L313.041 38.4615L318.006 37.0985zM321.925 36.0223L326.948 42.7652L325.834 43.071L324.361 40.9887L321.19 41.8594L320.965 44.4078L319.904 44.699L320.801 36.331L321.925 36.0223zM323.846 40.2746L321.604 37.1372L321.257 40.9853L323.846 40.2746zM325.855 34.9435L327.234 34.5649L331.419 40.2943L332.007 33.2543L333.397 32.8728L335.47 40.4253L334.526 40.6845L332.796 34.3837L332.161 41.334L331.291 41.5728L327.153 35.9331L328.883 42.2339L327.928 42.496L325.855 34.9435zM336.336 32.0658L338.41 39.6184L337.412 39.8921L335.339 32.3396L336.336 32.0658zM345.106 36.8445L345.345 37.7143L340.338 39.0889L338.264 31.5364L339.261 31.2627L341.096 37.9454L345.106 36.8445zM349.215 28.5299L347.524 33.7966L348.371 36.8833L347.385 37.1542L346.537 34.0674L342.373 30.4084L343.572 30.0793L346.818 33.0549L348.069 28.8445L349.215 28.5299z" stroke="none" fill="#282828" fill-rule="nonzero" />
	<g>
        <path transform="matrix(0.9643152 -0.2647568 0.2647568 0.9643152 -40.359222 27.840088)"  d="M83.0977 173.639C 83.0977 168.11617 87.57485 163.639 93.0977 163.639L93.0977 163.639L278.09772 163.639C 283.62054 163.639 288.09772 168.11617 288.09772 173.639L288.09772 173.639L288.09772 352.639C 288.09772 358.16187 283.62054 362.639 278.09772 362.639L278.09772 362.639L93.0977 362.639C 87.57485 362.639 83.0977 358.16187 83.0977 352.639L83.0977 352.639L83.0977 173.639z" stroke="none" fill="#FFFFFF" fill-rule="nonzero" />
	</g>
    <path d="M116.948 179.277C 117.125 180.254 116.997 181.092 116.565 181.788C 116.138 182.476 115.454 182.949 114.513 183.207C 113.439 183.502 112.489 183.383 111.666 182.848C 110.84 182.307 110.262 181.432 109.93 180.222C 109.619 179.091 109.675 178.064 110.099 177.142C 110.528 176.21 111.301 175.591 112.418 175.284C 113.217 175.065 113.98 175.087 114.707 175.352C 115.433 175.616 115.937 176.121 116.217 176.865L116.217 176.865L115.22 177.139C 114.971 176.675 114.618 176.357 114.16 176.186C 113.7 176.008 113.191 175.996 112.633 176.149C 111.791 176.38 111.236 176.852 110.968 177.565C 110.707 178.275 110.696 179.065 110.934 179.935C 111.198 180.897 111.632 181.591 112.236 182.019C 112.841 182.446 113.535 182.552 114.32 182.336C 114.963 182.16 115.426 181.835 115.707 181.363C 115.986 180.883 116.067 180.279 115.95 179.55L115.95 179.55L116.948 179.277zM120.049 173.178C 121.195 172.863 122.185 172.979 123.019 173.526C 123.852 174.065 124.427 174.915 124.746 176.075C 125.066 177.242 125.015 178.29 124.594 179.219C 124.172 180.149 123.385 180.772 122.232 181.088C 121.645 181.249 121.089 181.288 120.564 181.204C 120.039 181.12 119.577 180.931 119.177 180.638C 118.784 180.343 118.444 179.976 118.156 179.538C 117.876 179.098 117.659 178.598 117.506 178.04C 117.181 176.859 117.248 175.829 117.707 174.95C 118.172 174.069 118.953 173.479 120.049 173.178zM120.288 174.048C 119.446 174.279 118.881 174.753 118.591 175.472C 118.307 176.181 118.284 176.97 118.523 177.84C 118.783 178.788 119.228 179.479 119.857 179.915C 120.491 180.342 121.208 180.445 122.007 180.226C 122.799 180.008 123.354 179.552 123.673 178.856C 123.991 178.16 124.021 177.342 123.763 176.401C 123.507 175.468 123.062 174.788 122.427 174.361C 121.8 173.933 121.087 173.828 120.288 174.048zM124.986 172.016L126.365 171.638L130.55 177.367L131.138 170.327L132.528 169.946L134.602 177.498L133.658 177.757L131.928 171.456L131.292 178.407L130.422 178.645L126.284 173.006L128.014 179.307L127.06 179.569L124.986 172.016zM134.258 169.471L137.366 168.617C 138.137 168.406 138.797 168.414 139.347 168.644C 139.894 168.866 140.271 169.352 140.477 170.102C 140.894 171.622 140.244 172.618 138.526 173.09L138.526 173.09L136.478 173.652L137.329 176.749L136.332 177.023L134.258 169.471zM135.491 170.056L136.248 172.814L138.168 172.287C 138.706 172.139 139.096 171.926 139.338 171.646C 139.586 171.358 139.639 170.955 139.497 170.439C 139.418 170.149 139.302 169.922 139.151 169.758C 139.007 169.593 138.83 169.489 138.621 169.448C 138.412 169.406 138.204 169.399 137.998 169.425C 137.791 169.444 137.549 169.491 137.273 169.567L137.273 169.567L135.491 170.056zM147.946 172.899L148.185 173.769L143.178 175.143L141.105 167.591L142.102 167.317L143.936 174L147.946 172.899zM152.218 164.54L152.456 165.409L148.224 166.572L148.873 168.937L152.83 167.851L153.06 168.689L149.104 169.775L149.82 172.384L154.105 171.208L154.344 172.078L149.062 173.528L146.988 165.975L152.218 164.54zM158.713 162.756L158.952 163.626L156.416 164.322L158.251 171.005L157.254 171.279L155.419 164.596L152.884 165.292L152.645 164.422L158.713 162.756zM164.793 161.087L165.032 161.957L160.8 163.119L161.449 165.484L165.406 164.398L165.636 165.236L161.679 166.322L162.396 168.932L166.681 167.755L166.92 168.625L161.637 170.075L159.564 162.523L164.793 161.087zM166.048 160.742L168.509 160.067C 169.789 159.715 170.815 159.753 171.586 160.18C 172.357 160.607 172.92 161.464 173.273 162.751C 173.621 164.017 173.601 165.053 173.214 165.859C 172.825 166.658 172.008 167.228 170.763 167.57L170.763 167.57L168.122 168.295L166.048 160.742zM167.281 161.328L168.883 167.162L170.4 166.745C 171.348 166.485 171.97 166.067 172.269 165.491C 172.572 164.906 172.588 164.122 172.319 163.139C 172.035 162.106 171.62 161.41 171.072 161.051C 170.525 160.692 169.753 160.649 168.756 160.923L168.756 160.923L167.281 161.328zM176.487 164.732L176.811 165.909L175.633 166.233L175.31 165.055L176.487 164.732zM175.308 160.436L175.631 161.613L174.454 161.937L174.13 160.759L175.308 160.436z" stroke="none" fill="#000000" fill-rule="nonzero" />
    <path d="M183.618 155.919L184.722 155.616L188.702 161.595L189.092 154.416L190.142 154.127L189.521 162.42L188.376 162.734L183.618 155.919zM191.571 153.735L191.874 154.838L190.962 155.089L190.659 153.986L191.571 153.735zM192.142 155.814L193.645 161.288L192.733 161.538L191.23 156.065L192.142 155.814zM198.039 155.906L197.137 156.154C 196.898 155.505 196.361 155.295 195.527 155.524C 195.18 155.619 194.926 155.761 194.765 155.95C 194.604 156.138 194.555 156.346 194.617 156.572C 194.634 156.636 194.659 156.697 194.69 156.757C 194.72 156.81 194.759 156.856 194.808 156.896C 194.862 156.927 194.908 156.956 194.946 156.983C 194.991 157.009 195.054 157.03 195.135 157.046C 195.22 157.053 195.284 157.062 195.325 157.073C 195.373 157.083 195.45 157.088 195.557 157.089C 195.669 157.082 195.748 157.079 195.795 157.081C 195.839 157.077 195.925 157.072 196.053 157.067C 196.188 157.061 196.274 157.056 196.312 157.053C 196.589 157.038 196.796 157.031 196.933 157.031C 197.077 157.03 197.276 157.047 197.529 157.084C 197.788 157.112 197.992 157.163 198.141 157.236C 198.289 157.302 198.433 157.414 198.576 157.573C 198.723 157.722 198.828 157.91 198.89 158.136C 199.036 158.667 198.945 159.152 198.617 159.592C 198.294 160.023 197.79 160.332 197.104 160.52C 196.361 160.724 195.744 160.719 195.251 160.504C 194.766 160.288 194.425 159.876 194.228 159.268L194.228 159.268L195.119 159.024C 195.38 159.781 195.981 160.03 196.921 159.772C 197.324 159.661 197.624 159.492 197.819 159.263C 198.02 159.025 198.083 158.769 198.007 158.493C 197.957 158.309 197.851 158.174 197.691 158.089C 197.531 158.004 197.366 157.958 197.197 157.951C 197.026 157.937 196.786 157.935 196.476 157.944C 196.432 157.948 196.398 157.95 196.375 157.949C 196.307 157.952 196.162 157.962 195.938 157.977C 195.719 157.984 195.56 157.986 195.46 157.983C 195.361 157.98 195.215 157.974 195.022 157.966C 194.835 157.949 194.69 157.921 194.588 157.88C 194.484 157.833 194.365 157.774 194.232 157.704C 194.104 157.625 194 157.525 193.921 157.402C 193.839 157.272 193.774 157.119 193.726 156.942C 193.59 156.447 193.67 156.003 193.965 155.61C 194.267 155.216 194.736 154.931 195.373 154.756C 196.016 154.579 196.581 154.588 197.068 154.781C 197.562 154.973 197.885 155.348 198.039 155.906zM199.227 151.633L199.53 152.736L198.617 152.987L198.314 151.884L199.227 151.633zM199.797 153.712L201.3 159.186L200.388 159.436L198.885 153.963L199.797 153.712zM203.538 152.685L203.742 153.428L202.65 153.728L203.526 156.921C 203.575 157.097 203.607 157.214 203.622 157.271C 203.645 157.325 203.688 157.397 203.75 157.487C 203.811 157.569 203.887 157.612 203.98 157.617C 204.073 157.622 204.197 157.603 204.352 157.561C 204.487 157.524 204.646 157.469 204.832 157.395L204.832 157.395L205.044 158.169C 204.797 158.267 204.571 158.345 204.366 158.401C 204.112 158.471 203.892 158.501 203.707 158.491C 203.521 158.481 203.373 158.453 203.262 158.408C 203.157 158.36 203.06 158.254 202.969 158.089C 202.876 157.917 202.809 157.771 202.769 157.653C 202.727 157.528 202.666 157.32 202.587 157.03C 202.581 157.009 202.577 156.995 202.575 156.988C 202.571 156.974 202.566 156.956 202.561 156.935C 202.555 156.914 202.55 156.896 202.546 156.882L202.546 156.882L201.748 153.975L200.825 154.229L200.621 153.486L201.544 153.233L201.099 151.61L202 151.362L202.446 152.985L203.538 152.685zM209.837 150.956L210.041 151.699L208.948 151.999L209.825 155.191C 209.873 155.368 209.905 155.485 209.921 155.541C 209.943 155.596 209.986 155.668 210.048 155.757C 210.109 155.84 210.186 155.883 210.278 155.888C 210.371 155.893 210.495 155.874 210.651 155.832C 210.785 155.795 210.945 155.739 211.13 155.666L211.13 155.666L211.342 156.44C 211.096 156.538 210.87 156.616 210.664 156.672C 210.41 156.742 210.19 156.772 210.005 156.762C 209.819 156.752 209.671 156.724 209.56 156.679C 209.456 156.631 209.358 156.525 209.267 156.36C 209.174 156.187 209.108 156.042 209.068 155.924C 209.025 155.799 208.965 155.591 208.885 155.301C 208.879 155.28 208.875 155.266 208.873 155.259C 208.87 155.244 208.865 155.227 208.859 155.206C 208.853 155.184 208.848 155.167 208.844 155.153L208.844 155.153L208.046 152.246L207.123 152.499L206.92 151.757L207.842 151.504L207.397 149.881L208.299 149.633L208.744 151.256L209.837 150.956zM211.169 148.354L211.953 151.208C 212.189 150.489 212.703 150.021 213.495 149.803C 214.725 149.466 215.511 149.919 215.853 151.164L215.853 151.164L216.881 154.908L215.979 155.156L215.01 151.623C 214.895 151.206 214.719 150.912 214.482 150.741C 214.25 150.562 213.908 150.534 213.456 150.658C 212.904 150.81 212.557 151.095 212.413 151.515C 212.277 151.932 212.299 152.47 212.48 153.128L212.48 153.128L213.243 155.907L212.341 156.154L210.268 148.602L211.169 148.354zM222.438 151.523C 222.512 152.871 221.891 153.726 220.576 154.087C 219.77 154.309 219.068 154.232 218.47 153.856C 217.88 153.478 217.463 152.843 217.218 151.952C 216.975 151.068 217.012 150.29 217.33 149.617C 217.652 148.936 218.192 148.491 218.948 148.283C 219.79 148.052 220.491 148.168 221.051 148.63C 221.617 149.083 222.019 149.745 222.257 150.614L222.257 150.614L222.292 150.742L218.177 151.872L218.184 151.938C 218.343 152.518 218.62 152.932 219.015 153.181C 219.411 153.43 219.874 153.482 220.404 153.336C 220.8 153.227 221.086 153.05 221.262 152.804C 221.445 152.556 221.543 152.21 221.558 151.765L221.558 151.765L222.438 151.523zM221.158 150.266C 220.972 149.754 220.701 149.391 220.346 149.177C 219.988 148.956 219.583 148.907 219.131 149.032C 218.692 149.152 218.369 149.401 218.161 149.777C 217.952 150.154 217.891 150.608 217.976 151.14L217.976 151.14L221.158 150.266zM229.744 143.255L231.817 150.807L230.969 151.04L230.747 150.234C 230.576 150.966 230.062 151.449 229.206 151.684C 228.428 151.897 227.739 151.809 227.137 151.419C 226.541 151.02 226.121 150.375 225.876 149.484C 225.649 148.657 225.673 147.912 225.947 147.251C 226.227 146.581 226.77 146.136 227.577 145.914C 228.362 145.699 229.041 145.832 229.614 146.313L229.614 146.313L228.842 143.502L229.744 143.255zM227.906 146.657C 227.39 146.798 227.031 147.098 226.83 147.557C 226.636 148.013 226.627 148.563 226.804 149.206C 226.986 149.871 227.284 150.36 227.697 150.672C 228.115 150.976 228.582 151.057 229.098 150.915C 229.621 150.771 229.98 150.471 230.174 150.015C 230.366 149.552 230.37 148.984 230.186 148.312C 230.021 147.711 229.741 147.248 229.348 146.922C 228.959 146.588 228.479 146.499 227.906 146.657zM237.376 147.422C 237.45 148.77 236.829 149.625 235.513 149.986C 234.707 150.208 234.005 150.13 233.408 149.755C 232.818 149.377 232.4 148.742 232.155 147.851C 231.913 146.967 231.95 146.189 232.267 145.516C 232.59 144.835 233.129 144.39 233.886 144.182C 234.727 143.951 235.428 144.067 235.988 144.529C 236.554 144.982 236.956 145.643 237.195 146.513L237.195 146.513L237.23 146.641L233.114 147.77L233.121 147.837C 233.28 148.417 233.558 148.831 233.953 149.08C 234.348 149.329 234.811 149.381 235.341 149.235C 235.737 149.126 236.023 148.949 236.199 148.703C 236.382 148.455 236.481 148.109 236.496 147.663L236.496 147.663L237.376 147.422zM236.095 146.165C 235.909 145.653 235.639 145.29 235.283 145.076C 234.926 144.855 234.521 144.806 234.068 144.931C 233.63 145.051 233.306 145.299 233.098 145.676C 232.89 146.053 232.828 146.507 232.913 147.039L232.913 147.039L236.095 146.165zM238.216 143.164L238.449 144.013C 238.719 143.224 239.25 142.721 240.042 142.503C 240.686 142.327 241.195 142.369 241.571 142.631C 241.953 142.884 242.233 143.335 242.411 143.986L242.411 143.986L243.41 147.624L242.508 147.872L241.623 144.647C 241.549 144.379 241.481 144.173 241.419 144.03C 241.363 143.878 241.276 143.727 241.158 143.577C 241.039 143.42 240.884 143.325 240.693 143.294C 240.502 143.263 240.272 143.284 240.003 143.358C 238.963 143.644 238.624 144.444 238.985 145.759L238.985 145.759L239.772 148.623L238.87 148.871L237.367 143.397L238.216 143.164zM245.606 141.135L245.81 141.878L244.717 142.178L245.594 145.371C 245.642 145.548 245.674 145.664 245.69 145.721C 245.712 145.775 245.755 145.847 245.818 145.937C 245.878 146.019 245.955 146.063 246.047 146.068C 246.14 146.073 246.264 146.054 246.42 146.011C 246.554 145.974 246.714 145.919 246.899 145.845L246.899 145.845L247.111 146.62C 246.865 146.718 246.639 146.795 246.434 146.851C 246.179 146.921 245.959 146.951 245.774 146.941C 245.589 146.931 245.44 146.903 245.329 146.858C 245.225 146.811 245.127 146.704 245.036 146.539C 244.943 146.367 244.877 146.222 244.837 146.103C 244.795 145.978 244.734 145.77 244.654 145.48C 244.648 145.459 244.644 145.445 244.643 145.438C 244.639 145.424 244.634 145.406 244.628 145.385C 244.622 145.364 244.617 145.346 244.613 145.332L244.613 145.332L243.815 142.426L242.893 142.679L242.689 141.936L243.612 141.683L243.166 140.06L244.068 139.813L244.513 141.435L245.606 141.135zM246.991 138.519L247.294 139.622L246.382 139.873L246.079 138.77L246.991 138.519zM247.562 140.598L249.065 146.072L248.153 146.322L246.65 140.849L247.562 140.598zM253.458 140.691L252.557 140.938C 252.318 140.289 251.781 140.079 250.946 140.308C 250.6 140.403 250.346 140.545 250.185 140.734C 250.024 140.922 249.974 141.13 250.037 141.356C 250.054 141.42 250.079 141.482 250.11 141.541C 250.14 141.594 250.179 141.64 250.228 141.68C 250.282 141.711 250.328 141.74 250.366 141.768C 250.411 141.793 250.474 141.814 250.554 141.83C 250.64 141.837 250.703 141.846 250.745 141.858C 250.793 141.867 250.87 141.873 250.977 141.874C 251.089 141.866 251.168 141.863 251.214 141.866C 251.259 141.861 251.345 141.856 251.473 141.852C 251.608 141.845 251.694 141.84 251.732 141.838C 252.009 141.822 252.216 141.815 252.353 141.815C 252.497 141.814 252.696 141.832 252.949 141.868C 253.208 141.896 253.412 141.947 253.561 142.02C 253.708 142.086 253.853 142.198 253.996 142.357C 254.143 142.506 254.248 142.694 254.31 142.921C 254.456 143.451 254.365 143.936 254.037 144.376C 253.714 144.807 253.21 145.116 252.524 145.305C 251.781 145.509 251.164 145.503 250.671 145.289C 250.186 145.072 249.845 144.66 249.648 144.052L249.648 144.052L250.539 143.808C 250.8 144.565 251.401 144.815 252.341 144.556C 252.744 144.446 253.044 144.276 253.239 144.047C 253.44 143.81 253.503 143.553 253.427 143.277C 253.377 143.093 253.271 142.959 253.111 142.873C 252.951 142.788 252.786 142.742 252.617 142.735C 252.446 142.722 252.205 142.719 251.896 142.728C 251.852 142.732 251.818 142.734 251.795 142.733C 251.727 142.736 251.582 142.746 251.358 142.762C 251.139 142.768 250.98 142.77 250.88 142.767C 250.781 142.764 250.635 142.759 250.442 142.751C 250.255 142.734 250.11 142.705 250.008 142.665C 249.904 142.617 249.785 142.558 249.652 142.489C 249.523 142.41 249.42 142.309 249.34 142.186C 249.259 142.056 249.194 141.903 249.146 141.726C 249.01 141.231 249.089 140.787 249.385 140.395C 249.687 140 250.156 139.715 250.793 139.54C 251.436 139.364 252.001 139.372 252.488 139.565C 252.982 139.757 253.305 140.132 253.458 140.691zM256.607 138.115L256.811 138.858L255.718 139.158L256.595 142.35C 256.643 142.527 256.675 142.644 256.691 142.7C 256.714 142.755 256.756 142.827 256.819 142.916C 256.879 142.999 256.956 143.042 257.048 143.047C 257.141 143.052 257.265 143.033 257.421 142.991C 257.555 142.954 257.715 142.898 257.9 142.825L257.9 142.825L258.113 143.599C 257.866 143.697 257.64 143.775 257.435 143.831C 257.18 143.901 256.96 143.931 256.775 143.921C 256.59 143.911 256.441 143.883 256.33 143.838C 256.226 143.79 256.128 143.684 256.037 143.519C 255.944 143.347 255.878 143.201 255.838 143.083C 255.796 142.958 255.735 142.75 255.655 142.46C 255.649 142.439 255.646 142.425 255.644 142.418C 255.64 142.403 255.635 142.386 255.629 142.365C 255.623 142.343 255.618 142.326 255.615 142.312L255.615 142.312L254.817 139.405L253.894 139.658L253.69 138.916L254.613 138.663L254.167 137.04L255.069 136.792L255.514 138.415L256.607 138.115zM260.167 141.757L260.49 142.935L259.313 143.258L258.99 142.081L260.167 141.757zM263.119 140.947L263.443 142.124L262.265 142.448L261.942 141.27L263.119 140.947zM266.072 140.136L266.395 141.314L265.217 141.637L264.894 140.46L266.072 140.136z" stroke="none" fill="#00D7FF" fill-rule="nonzero" />
    <path d="M186.296 165.587L267.868 143.191L268.014 143.721L186.441 166.117L186.296 165.587z" stroke="none" fill="#00D7FF" fill-rule="nonzero" />
    <path d="M206.79 314.03C 206.983 315.097 206.844 316.01 206.372 316.77C 205.906 317.52 205.16 318.036 204.134 318.318C 202.962 318.64 201.926 318.509 201.028 317.926C 200.127 317.336 199.496 316.381 199.134 315.061C 198.795 313.827 198.857 312.707 199.319 311.701C 199.786 310.685 200.63 310.009 201.848 309.675C 202.72 309.435 203.552 309.46 204.345 309.748C 205.138 310.037 205.687 310.587 205.993 311.399L205.993 311.399L204.905 311.697C 204.633 311.191 204.248 310.845 203.749 310.659C 203.248 310.464 202.692 310.451 202.083 310.618C 201.165 310.87 200.559 311.385 200.267 312.162C 199.982 312.937 199.969 313.799 200.23 314.748C 200.518 315.797 200.992 316.555 201.65 317.021C 202.309 317.487 203.067 317.603 203.923 317.368C 204.625 317.175 205.13 316.821 205.436 316.305C 205.74 315.782 205.829 315.123 205.702 314.328L205.702 314.328L206.79 314.03zM207.867 311.395C 208.235 310.68 208.87 310.198 209.772 309.95C 210.675 309.703 211.452 309.784 212.104 310.194C 212.756 310.604 213.217 311.303 213.489 312.29C 213.766 313.301 213.731 314.156 213.384 314.857C 213.038 315.558 212.409 316.033 211.499 316.283C 210.588 316.533 209.799 316.452 209.129 316.038C 208.46 315.624 207.99 314.924 207.718 313.937C 207.45 312.957 207.499 312.109 207.867 311.395zM211.515 311.04C 211.067 310.707 210.553 310.62 209.975 310.778C 209.396 310.937 208.996 311.275 208.773 311.793C 208.55 312.31 208.536 312.924 208.73 313.634C 208.932 314.367 209.255 314.896 209.701 315.221C 210.153 315.537 210.68 315.612 211.282 315.447C 211.86 315.288 212.254 314.956 212.464 314.45C 212.681 313.943 212.689 313.323 212.488 312.59C 212.293 311.88 211.969 311.363 211.515 311.04zM214.775 308.764L215.03 309.689C 215.324 308.829 215.903 308.28 216.768 308.042C 217.47 307.85 218.026 307.896 218.436 308.182C 218.852 308.457 219.157 308.95 219.352 309.66L219.352 309.66L220.442 313.629L219.458 313.899L218.492 310.381C 218.412 310.088 218.338 309.864 218.27 309.708C 218.208 309.543 218.113 309.378 217.985 309.214C 217.855 309.042 217.686 308.939 217.477 308.905C 217.269 308.871 217.018 308.894 216.725 308.975C 215.591 309.286 215.221 310.159 215.615 311.594L215.615 311.594L216.473 314.719L215.489 314.989L213.85 309.018L214.775 308.764zM222.837 306.55L223.059 307.36L221.868 307.687L222.824 311.171C 222.877 311.363 222.912 311.491 222.929 311.552C 222.953 311.612 223 311.691 223.068 311.788C 223.134 311.878 223.218 311.925 223.319 311.931C 223.42 311.936 223.555 311.916 223.725 311.869C 223.871 311.829 224.046 311.768 224.248 311.688L224.248 311.688L224.48 312.533C 224.21 312.64 223.964 312.724 223.74 312.786C 223.462 312.862 223.222 312.895 223.02 312.884C 222.818 312.873 222.657 312.843 222.535 312.793C 222.421 312.741 222.315 312.625 222.216 312.445C 222.114 312.257 222.042 312.099 221.998 311.97C 221.952 311.833 221.886 311.606 221.799 311.29C 221.793 311.267 221.788 311.252 221.786 311.244C 221.782 311.228 221.777 311.209 221.77 311.186C 221.764 311.163 221.759 311.144 221.754 311.128L221.754 311.128L220.884 307.958L219.877 308.234L219.655 307.424L220.662 307.147L220.175 305.377L221.159 305.107L221.645 306.877L222.837 306.55zM224.348 303.696L224.679 304.9L223.684 305.173L223.353 303.969L224.348 303.696zM224.971 305.964L226.611 311.935L225.615 312.209L223.976 306.237L224.971 305.964zM227.421 305.292L227.675 306.217C 227.97 305.357 228.549 304.808 229.413 304.571C 230.115 304.378 230.671 304.424 231.081 304.71C 231.497 304.986 231.802 305.478 231.997 306.188L231.997 306.188L233.087 310.157L232.103 310.427L231.138 306.909C 231.057 306.616 230.983 306.392 230.915 306.236C 230.853 306.071 230.758 305.906 230.63 305.742C 230.5 305.57 230.331 305.467 230.123 305.433C 229.914 305.399 229.663 305.423 229.37 305.503C 228.236 305.814 227.866 306.688 228.26 308.122L228.26 308.122L229.118 311.247L228.134 311.517L226.495 305.546L227.421 305.292zM237.878 302.421L239.517 308.392L238.603 308.643L238.346 307.705C 238.038 308.578 237.452 309.133 236.588 309.37C 235.955 309.544 235.417 309.505 234.975 309.253C 234.533 309.001 234.221 308.547 234.041 307.892L234.041 307.892L232.913 303.784L233.897 303.514L234.952 307.355C 235.081 307.826 235.268 308.16 235.513 308.359C 235.764 308.547 236.125 308.576 236.596 308.447C 237.76 308.127 238.146 307.25 237.752 305.815L237.752 305.815L236.894 302.691L237.878 302.421zM245.58 304.699C 245.66 306.17 244.983 307.103 243.548 307.497C 242.668 307.738 241.903 307.654 241.251 307.244C 240.607 306.832 240.151 306.139 239.885 305.167C 239.62 304.203 239.66 303.354 240.006 302.62C 240.358 301.877 240.947 301.391 241.772 301.165C 242.69 300.913 243.455 301.039 244.066 301.543C 244.683 302.037 245.122 302.759 245.382 303.708L245.382 303.708L245.42 303.847L240.931 305.079L240.938 305.152C 241.112 305.785 241.414 306.237 241.845 306.508C 242.277 306.78 242.782 306.836 243.36 306.677C 243.792 306.558 244.104 306.365 244.296 306.097C 244.495 305.826 244.603 305.448 244.619 304.963L244.619 304.963L245.58 304.699zM244.183 303.328C 243.98 302.77 243.684 302.374 243.297 302.14C 242.907 301.899 242.465 301.846 241.971 301.981C 241.493 302.113 241.14 302.384 240.913 302.794C 240.686 303.205 240.618 303.701 240.711 304.281L240.711 304.281L244.183 303.328z" stroke="none" fill="#B9C3C8" fill-rule="nonzero" />
    <path d="M257.748 302.272C 257.682 302.393 257.529 302.435 257.407 302.365C 257.29 302.297 257.247 302.141 257.313 302.023L257.313 302.023L258.557 299.797L252.865 301.36C 252.732 301.396 252.598 301.318 252.561 301.183C 252.524 301.048 252.599 300.909 252.731 300.872L252.731 300.872L258.423 299.309L256.218 298.034C 256.1 297.963 256.057 297.807 256.123 297.688C 256.192 297.566 256.345 297.523 256.464 297.595L256.464 297.595L259.192 299.176C 259.313 299.244 259.355 299.399 259.286 299.518L259.286 299.518L257.748 302.272z" stroke="none" fill="#00D7FF" fill-rule="nonzero" />
    <path d="M255.068 218.826L273.553 213.751C 273.094 212.877 272.182 212.346 271.203 212.365C 271.205 212.145 271.16 211.923 271.1 211.705C 270.705 210.267 269.219 209.409 267.766 209.808C 267.359 209.92 266.995 210.129 266.69 210.385C 265.803 209.316 264.332 208.797 262.908 209.188C 261.382 209.607 260.352 210.921 260.229 212.409C 259.713 212.238 259.161 212.217 258.594 212.373C 257.082 212.788 256.186 214.362 256.601 215.874C 256.637 216.004 256.688 216.131 256.738 216.258C 255.676 216.659 255.009 217.702 255.068 218.826z" stroke="none" fill="#EAEAEA" fill-rule="nonzero" />
    <path d="M148.785 256.055L168.317 250.693C 167.831 249.779 166.86 249.201 165.837 249.232C 165.836 248.998 165.805 248.772 165.737 248.525C 165.318 246.999 163.744 246.103 162.218 246.522C 161.782 246.642 161.403 246.855 161.087 247.13C 160.151 245.996 158.596 245.454 157.084 245.869C 155.471 246.312 154.385 247.704 154.252 249.272C 153.718 249.09 153.118 249.068 152.522 249.231C 150.924 249.67 149.971 251.322 150.414 252.936C 150.454 253.081 150.504 253.208 150.555 253.334C 149.438 253.766 148.725 254.868 148.785 256.055z" stroke="none" fill="#EAEAEA" fill-rule="nonzero" />
    <path d="M240.356 174.576L263.622 168.189C 263.041 167.098 261.885 166.415 260.661 166.454C 260.647 166.177 260.619 165.903 260.543 165.627C 260.044 163.811 258.174 162.746 256.357 163.244C 255.834 163.388 255.386 163.636 255.01 163.974C 253.89 162.625 252.04 161.976 250.252 162.467C 248.334 162.994 247.038 164.647 246.879 166.519C 246.242 166.303 245.532 166.279 244.835 166.471C 242.931 166.993 241.803 168.975 242.326 170.879C 242.369 171.039 242.432 171.209 242.49 171.365C 241.123 171.85 240.283 173.174 240.356 174.576z" stroke="none" fill="#EAEAEA" fill-rule="nonzero" />
    <path d="M129.05 217.7L150.238 211.883C 149.714 210.886 148.669 210.267 147.537 210.296C 147.531 210.048 147.492 209.793 147.424 209.546C 146.969 207.889 145.265 206.919 143.609 207.374C 143.144 207.502 142.721 207.727 142.385 208.038C 141.362 206.819 139.685 206.232 138.058 206.679C 136.314 207.158 135.135 208.669 134.991 210.365C 134.409 210.181 133.761 210.156 133.122 210.331C 131.378 210.81 130.356 212.607 130.834 214.351C 130.874 214.496 130.933 214.652 130.987 214.793C 129.761 215.224 128.981 216.422 129.05 217.7z" stroke="none" fill="#EAEAEA" fill-rule="nonzero" />
    <path d="M156.226 308.599L172.488 304.134C 172.09 303.369 171.275 302.905 170.42 302.921C 170.416 302.734 170.393 302.537 170.337 302.334C 169.99 301.07 168.675 300.321 167.41 300.668C 167.047 300.768 166.737 300.947 166.472 301.176C 165.682 300.236 164.403 299.79 163.139 300.138C 161.802 300.505 160.9 301.659 160.791 302.97C 160.346 302.827 159.855 302.805 159.361 302.941C 158.024 303.308 157.244 304.678 157.611 306.015C 157.643 306.132 157.689 306.244 157.736 306.356C 156.782 306.696 156.178 307.628 156.226 308.599z" stroke="none" fill="#EAEAEA" fill-rule="nonzero" />
    <path d="M170.93 190.371L191.551 184.71C 191.036 183.742 190.027 183.143 188.924 183.165C 188.918 182.917 188.883 182.676 188.816 182.429C 188.373 180.816 186.71 179.882 185.111 180.321C 184.661 180.444 184.253 180.666 183.912 180.962C 182.912 179.768 181.287 179.198 179.688 179.637C 177.988 180.104 176.845 181.575 176.703 183.223C 176.136 183.035 175.503 183.006 174.878 183.177C 173.192 183.64 172.187 185.385 172.654 187.085C 172.693 187.231 172.748 187.372 172.802 187.513C 171.61 187.95 170.869 189.122 170.93 190.371z" stroke="none" fill="#EAEAEA" fill-rule="nonzero" />
    <path d="M275.471 270.656L291.732 266.191C 291.335 265.425 290.52 264.962 289.664 264.978C 289.66 264.791 289.637 264.594 289.582 264.391C 289.234 263.127 287.919 262.378 286.655 262.725C 286.292 262.825 285.981 263.004 285.716 263.233C 284.927 262.293 283.648 261.847 282.384 262.194C 281.047 262.562 280.145 263.716 280.036 265.027C 279.59 264.884 279.1 264.862 278.606 264.998C 277.269 265.365 276.489 266.735 276.856 268.072C 276.888 268.189 276.934 268.301 276.98 268.413C 276.008 268.743 275.419 269.67 275.471 270.656z" stroke="none" fill="#EAEAEA" fill-rule="nonzero" />
    <path d="M225.508 289.718C 224.492 290.857 222.734 291.34 221.279 290.88L221.279 290.88L199.153 283.89L183.119 278.822C 180.247 277.922 180.794 274.396 183.933 273.535L183.933 273.535L216.34 264.637L248.747 255.74C 251.886 254.878 254.153 257.615 252.147 259.87L252.147 259.87L240.948 272.415L225.508 289.718z" stroke="none" fill="#D67412" fill-rule="nonzero" />
    <path d="M214.032 292.26C 213.875 292.6 213.512 292.7 213.203 292.487L213.203 292.487L203.692 285.847L194.96 279.774C 194.473 279.424 194.513 278.6 195.036 278.456L195.036 278.456L208.784 274.682L222.531 270.908C 223.054 270.764 223.527 271.462 223.269 272.002L223.269 272.002L218.863 281.682L214.032 292.26z" stroke="none" fill="#FC842C" fill-rule="nonzero" />
    <path d="M231.985 287.925C 231.822 288.298 231.415 288.409 231.084 288.172L231.084 288.172L220.577 280.867L210.954 274.164C 210.412 273.782 210.471 272.859 211.038 272.703L211.038 272.703L226.18 268.546L241.323 264.389C 241.904 264.229 242.412 264.996 242.14 265.602L242.14 265.602L237.289 276.279L231.985 287.925z" stroke="none" fill="#FC842C" fill-rule="nonzero" />
    <path d="M224.632 295.351C 224.496 295.653 224.176 295.741 223.905 295.55L223.905 295.55L215.464 289.679L207.721 284.303C 207.279 284.003 207.324 283.256 207.789 283.128L207.789 283.128L219.967 279.785L232.145 276.441C 232.61 276.313 233.03 276.933 232.804 277.417L232.804 277.417L228.892 285.992L224.632 295.351z" stroke="none" fill="#FC842C" fill-rule="nonzero" />
    <path d="M232.738 269.949L229.265 270.903C 228.858 271.014 228.42 270.728 228.293 270.263C 228.165 269.798 228.396 269.329 228.802 269.217L228.802 269.217L232.276 268.263C 232.683 268.152 233.12 268.438 233.248 268.903C 233.376 269.368 233.145 269.837 232.738 269.949z" stroke="none" fill="#F99943" fill-rule="nonzero" />
    <path d="M235.049 269.315L234.555 269.45C 234.148 269.562 233.71 269.276 233.582 268.811C 233.455 268.346 233.685 267.876 234.092 267.765L234.092 267.765L234.586 267.629C 234.993 267.517 235.431 267.803 235.559 268.268C 235.687 268.733 235.456 269.203 235.049 269.315z" stroke="none" fill="#F99943" fill-rule="nonzero" />
    <path d="M218.835 276.626L214.737 277.751C 214.257 277.883 213.745 277.555 213.593 277.003C 213.442 276.45 213.714 275.907 214.194 275.775L214.194 275.775L218.292 274.65C 218.772 274.518 219.284 274.846 219.435 275.399C 219.587 275.951 219.314 276.495 218.835 276.626z" stroke="none" fill="#F99943" fill-rule="nonzero" />
    <path d="M221.567 275.876L220.985 276.036C 220.506 276.167 219.994 275.839 219.842 275.287C 219.69 274.735 219.963 274.191 220.443 274.059L220.443 274.059L221.024 273.9C 221.504 273.768 222.016 274.096 222.167 274.649C 222.319 275.201 222.046 275.745 221.567 275.876z" stroke="none" fill="#F99943" fill-rule="nonzero" />
    <path d="M223.003 289.703L220.634 290.353C 220.358 290.429 220.054 290.231 219.97 289.926C 219.886 289.621 220.047 289.296 220.323 289.22L220.323 289.22L222.692 288.569C 222.968 288.494 223.272 288.691 223.356 288.996C 223.44 289.302 223.294 289.623 223.003 289.703z" stroke="none" fill="#F99943" fill-rule="nonzero" />
    <path d="M224.587 289.268L224.253 289.36C 223.977 289.436 223.672 289.238 223.588 288.933C 223.505 288.628 223.665 288.302 223.941 288.226L223.941 288.226L224.276 288.135C 224.552 288.059 224.856 288.256 224.94 288.562C 225.024 288.867 224.878 289.188 224.587 289.268z" stroke="none" fill="#F99943" fill-rule="nonzero" />
    <path d="M206.788 279.027C 206.98 279.725 206.638 280.413 206.013 280.584L206.013 280.584L202.641 281.51C 202.031 281.678 201.367 281.25 201.179 280.567C 200.988 279.87 201.33 279.182 201.955 279.01L201.955 279.01L205.326 278.085C 205.951 277.913 206.597 278.33 206.788 279.027z" stroke="none" fill="#F99943" fill-rule="nonzero" />
    <path d="M209.797 280.139C 209.989 280.837 209.646 281.525 209.021 281.696L209.021 281.696L205.65 282.622C 205.04 282.789 204.375 282.362 204.188 281.679C 203.996 280.982 204.339 280.294 204.964 280.122L204.964 280.122L208.335 279.197C 208.96 279.025 209.606 279.442 209.797 280.139z" stroke="none" fill="#F99943" fill-rule="nonzero" />
    <path d="M229.502 275.807C 229.355 275.27 228.839 274.927 228.359 275.059L228.359 275.059L225.7 275.789C 225.22 275.92 224.947 276.464 225.099 277.016C 225.247 277.554 225.763 277.897 226.242 277.765L226.242 277.765L228.902 277.035C 229.381 276.903 229.654 276.36 229.502 275.807z" stroke="none" fill="#F99943" fill-rule="nonzero" />
    <path d="M231.092 273.855C 230.944 273.317 230.428 272.975 229.948 273.106L229.948 273.106L227.304 273.832C 226.824 273.964 226.551 274.508 226.703 275.06C 226.851 275.598 227.367 275.94 227.846 275.809L227.846 275.809L230.491 275.083C 230.967 274.936 231.239 274.393 231.092 273.855z" stroke="none" fill="#F99943" fill-rule="nonzero" />
    <path d="M231.337 278.96C 230.756 279.12 230.424 279.789 230.603 280.443C 230.655 280.632 230.747 280.795 230.863 280.934L230.863 280.934L230.166 281.126C 229.584 281.286 229.252 281.955 229.432 282.609C 229.615 283.277 230.239 283.669 230.82 283.509L230.82 283.509L234.409 282.524L236.72 277.451L231.329 278.931L231.337 278.96z" stroke="none" fill="#F99943" fill-rule="nonzero" />
    <path d="M210.98 285.471L210.283 285.663C 210.311 285.483 210.307 285.297 210.255 285.108C 210.072 284.439 209.448 284.048 208.867 284.207L208.867 284.207L203.461 285.692L203.695 285.862L208.024 288.877L211.642 287.884C 212.224 287.724 212.556 287.055 212.376 286.401C 212.189 285.718 211.561 285.312 210.98 285.471z" stroke="none" fill="#F99943" fill-rule="nonzero" />
    <path d="M221.686 280.922C 221.858 281.547 221.543 282.165 220.991 282.317L220.991 282.317L216.341 283.593C 215.788 283.745 215.198 283.36 215.031 282.75C 214.859 282.125 215.174 281.507 215.726 281.355L215.726 281.355L220.376 280.079C 220.943 279.923 221.515 280.297 221.686 280.922z" stroke="none" fill="#F99943" fill-rule="nonzero" />
    <path d="M220.342 283.198C 220.242 282.835 220.424 282.472 220.744 282.384L220.744 282.384L218.535 282.991C 218.855 282.903 219.196 283.122 219.296 283.485C 219.395 283.848 219.214 284.211 218.894 284.299L218.894 284.299L221.103 283.692C 220.769 283.784 220.442 283.561 220.342 283.198z" stroke="none" fill="#F99943" fill-rule="nonzero" />
    <path d="M224.76 283.751C 224.912 284.303 224.639 284.847 224.16 284.978L224.16 284.978L218.652 286.49C 218.172 286.622 217.66 286.294 217.509 285.742C 217.357 285.189 217.63 284.646 218.109 284.514L218.109 284.514L223.617 283.002C 224.096 282.87 224.613 283.213 224.76 283.751z" stroke="none" fill="#F99943" fill-rule="nonzero" />
    <path d="M254.972 246.482C 254.778 246.286 254.52 246.2 254.273 246.268L254.273 246.268L174.36 268.208C 174.113 268.276 173.935 268.481 173.868 268.75C 173.801 269.018 173.881 269.309 174.065 269.524L174.065 269.524L182.291 279.049C 182.479 279.279 182.766 279.356 183.013 279.288L183.013 279.288L252.505 260.209C 252.767 260.137 252.956 259.913 253.004 259.634L253.004 259.634L255.213 247.245C 255.247 246.97 255.152 246.683 254.972 246.482z" stroke="none" fill="#BC5800" fill-rule="nonzero" />
    <path d="M195.402 273.527L188.659 275.378C 187.86 275.598 187.021 275.047 186.774 274.146C 186.526 273.245 186.966 272.343 187.765 272.123L187.765 272.123L194.508 270.272C 195.308 270.052 196.146 270.603 196.394 271.504C 196.641 272.405 196.201 273.308 195.402 273.527z" stroke="none" fill="#AA5000" fill-rule="nonzero" />
    <path d="M199.892 272.294L198.933 272.557C 198.134 272.777 197.295 272.226 197.048 271.325C 196.8 270.424 197.24 269.522 198.04 269.302L198.04 269.302L198.999 269.039C 199.798 268.819 200.637 269.371 200.884 270.272C 201.132 271.173 200.692 272.075 199.892 272.294z" stroke="none" fill="#AA5000" fill-rule="nonzero" />
    <path d="M237.142 258.723L243.303 257.031C 244.03 256.832 244.809 257.337 245.033 258.15C 245.256 258.964 244.844 259.796 244.117 259.996L244.117 259.996L237.956 261.687C 237.229 261.887 236.45 261.382 236.226 260.568C 236.003 259.754 236.415 258.922 237.142 258.723z" stroke="none" fill="#AA5000" fill-rule="nonzero" />
    <path d="M233.029 259.852L233.916 259.609C 234.642 259.409 235.422 259.914 235.645 260.728C 235.868 261.542 235.456 262.374 234.73 262.573L234.73 262.573L233.843 262.817C 233.117 263.016 232.337 262.511 232.114 261.697C 231.89 260.884 232.303 260.052 233.029 259.852z" stroke="none" fill="#AA5000" fill-rule="nonzero" />
    <path d="M218.551 264.265C 218.794 265.151 218.354 266.053 217.569 266.269L217.569 266.269L213.573 267.366C 212.788 267.581 211.949 267.03 211.706 266.144C 211.463 265.257 211.903 264.355 212.687 264.14L212.687 264.14L216.684 263.043C 217.468 262.827 218.307 263.378 218.551 264.265z" stroke="none" fill="#AA5000" fill-rule="nonzero" />
    <path d="M222.903 264.976C 223.154 265.892 222.693 266.831 221.879 267.055L221.879 267.055L217.796 268.176C 216.982 268.399 216.11 267.841 215.855 266.911C 215.603 265.996 216.064 265.057 216.878 264.833L216.878 264.833L220.962 263.712C 221.776 263.489 222.652 264.061 222.903 264.976z" stroke="none" fill="#AA5000" fill-rule="nonzero" />
    <path d="M256.343 250.279C 256.434 250.613 256.274 250.938 255.969 251.022L255.969 251.022L174.414 273.413C 174.124 273.493 173.805 273.299 173.713 272.965L173.713 272.965L171.874 266.266C 171.782 265.931 171.942 265.606 172.248 265.522L172.248 265.522L253.802 243.131C 254.093 243.051 254.412 243.245 254.503 243.579L254.503 243.579L256.343 250.279z" stroke="none" fill="#DFDFDF" fill-rule="nonzero" />
    <path d="M253.802 243.131L253.25 243.283L254.954 249.488C 255.045 249.822 254.885 250.148 254.579 250.231L254.579 250.231L173.577 272.471L173.717 272.98C 173.809 273.314 174.113 273.512 174.418 273.428L174.418 273.428L255.973 251.037C 256.263 250.957 256.438 250.627 256.347 250.293L256.347 250.293L254.507 243.594C 254.412 243.245 254.093 243.051 253.802 243.131z" stroke="none" fill="#C3C3C3" fill-rule="nonzero" />
    <path d="M180.45 267.052L176.672 268.09C 176.221 268.213 175.746 267.906 175.607 267.397C 175.467 266.889 175.719 266.382 176.169 266.259L176.169 266.259L179.947 265.221C 180.398 265.097 180.873 265.405 181.013 265.913C 181.152 266.422 180.901 266.929 180.45 267.052z" stroke="none" fill="#FFFFFF" fill-rule="nonzero" />
    <path d="M182.979 266.358L182.441 266.506C 181.991 266.629 181.516 266.322 181.376 265.813C 181.236 265.305 181.488 264.798 181.938 264.675L181.938 264.675L182.476 264.527C 182.927 264.403 183.402 264.71 183.541 265.219C 183.666 265.732 183.415 266.238 182.979 266.358z" stroke="none" fill="#FFFFFF" fill-rule="nonzero" />
    <path d="M230.406 278.528L251.841 272.643C 251.313 271.632 250.253 271.016 249.116 271.031C 249.111 270.783 249.072 270.528 249 270.266C 248.541 268.595 246.819 267.615 245.148 268.073C 244.668 268.205 244.249 268.445 243.909 268.742C 242.879 267.493 241.187 266.91 239.516 267.369C 237.757 267.852 236.553 269.386 236.414 271.096C 235.813 270.902 235.165 270.877 234.526 271.052C 232.768 271.535 231.734 273.35 232.217 275.108C 232.261 275.268 232.316 275.41 232.37 275.551C 231.123 276.018 230.332 277.236 230.406 278.528z" stroke="none" fill="#EAEAEA" fill-rule="nonzero" />
    <path d="M187.346 286.99L212.908 279.972C 212.281 278.769 211.014 278.023 209.647 278.055C 209.644 277.758 209.604 277.441 209.52 277.136C 208.973 275.145 206.917 273.975 204.926 274.522C 204.36 274.677 203.858 274.956 203.442 275.32C 202.209 273.846 200.186 273.135 198.209 273.678C 196.102 274.256 194.678 276.07 194.509 278.132C 193.806 277.903 193.03 277.866 192.26 278.077C 190.167 278.652 188.934 280.819 189.508 282.912C 189.56 283.101 189.623 283.271 189.7 283.437C 188.214 284.002 187.267 285.449 187.346 286.99z" stroke="none" fill="#EAEAEA" fill-rule="nonzero" />
    <path d="M212.395 253.968C 230.509 248.995 241.162 230.278 236.189 212.164C 231.216 194.05 212.499 183.397 194.385 188.37C 176.27 193.344 165.617 212.06 170.591 230.174C 175.564 248.289 194.281 258.942 212.395 253.968z" stroke="none" fill="#00D7FF" fill-rule="nonzero" />
    <path d="M227.583 234.936C 235.187 221.576 230.522 204.581 217.162 196.977C 203.802 189.373 186.807 194.039 179.203 207.399C 171.599 220.759 176.265 237.753 189.625 245.357C 202.985 252.961 219.979 248.295 227.583 234.936z" stroke="none" fill="#FFFFFF" fill-rule="nonzero" />
    <path d="M208.98 241.529C 220.224 238.442 226.836 226.824 223.749 215.579C 220.662 204.335 209.044 197.722 197.8 200.81C 186.556 203.897 179.943 215.515 183.03 226.759C 186.117 238.003 197.735 244.616 208.98 241.529z" stroke="none" fill="#00D7FF" fill-rule="nonzero" />
    <path d="M216.713 228.749C 220.9 221.392 218.331 212.035 210.975 207.848C 203.618 203.661 194.261 206.23 190.074 213.586C 185.887 220.942 188.456 230.3 195.812 234.487C 203.168 238.674 212.526 236.105 216.713 228.749z" stroke="none" fill="#FFFFFF" fill-rule="nonzero" />
    <path d="M212.33 223.119C 213.408 218.183 210.281 213.308 205.345 212.231C 200.41 211.153 195.535 214.28 194.457 219.216C 193.379 224.151 196.506 229.026 201.442 230.104C 206.378 231.182 211.252 228.054 212.33 223.119z" stroke="none" fill="#00D7FF" fill-rule="nonzero" />
    <path d="M205.27 225.775C 207.814 224.739 209.037 221.837 208.001 219.293C 206.966 216.749 204.064 215.527 201.52 216.562C 198.976 217.598 197.753 220.5 198.789 223.044C 199.825 225.588 202.727 226.81 205.27 225.775z" stroke="none" fill="#FFFFFF" fill-rule="nonzero" />
    <path d="M220.003 207.684L219.754 195.392L235.156 183.13L234.608 195.079L246.328 196.956L231.441 209.67L220.003 207.684z" stroke="none" fill="#FF7B00" fill-rule="nonzero" />
    <path d="M203.384 223.312C 202.762 223.264 202.166 222.974 201.741 222.45C 200.917 221.442 201.055 219.951 202.063 219.127L202.063 219.127L235.382 191.695C 236.391 190.871 237.882 191.008 238.705 192.017C 239.529 193.025 239.392 194.516 238.383 195.34L238.383 195.34L205.064 222.772C 204.584 223.185 203.974 223.353 203.384 223.312z" stroke="none" fill="#FF9557" fill-rule="nonzero" />
	<g>
        <path transform="matrix(0.9643152 -0.2647568 0.2647568 0.9643152 -16.009094 85.12573)"  d="M307.783 111.951C 307.783 106.42815 312.26013 101.951 317.783 101.951L317.783 101.951L502.783 101.951C 508.30585 101.951 512.78296 106.42815 512.78296 111.951L512.78296 111.951L512.78296 290.951C 512.78296 296.47385 508.30585 300.951 502.783 300.951L502.783 300.951L317.783 300.951C 312.26013 300.951 307.783 296.47385 307.783 290.951L307.783 290.951L307.783 111.951z" stroke="none" fill="#FFFFFF" fill-rule="nonzero" />
	</g>
    <path transform="matrix(0.964315 -0.264757 -0.264757 -0.964315 338.51 119.44)"  d="M4 0C 4 1.1045696 3.6094759 2.0473785 2.828427 2.828427C 2.0473785 3.6094759 1.1045696 4 0 4C -1.1045696 4 -2.0473785 3.6094759 -2.828427 2.828427C -3.6094759 2.0473785 -4 1.1045696 -4 0C -4 -1.1045696 -3.6094759 -2.0473785 -2.828427 -2.828427C -2.0473785 -3.6094759 -1.1045696 -4 0 -4C 1.1045696 -4 2.0473785 -3.6094759 2.828427 -2.828427C 3.6094759 -2.0473785 4 -1.1045696 4 0C 4 0.046546843 3.999188 0.09307951 3.9975634 0.13959798" stroke="none" fill="#00D7FF" fill-rule="nonzero" />
    <path d="M355.524 109.617L355.828 110.724L350.442 112.203L351.268 115.214L356.304 113.831L356.597 114.897L351.561 116.28L352.473 119.601L357.927 118.104L358.231 119.211L351.508 121.057L348.869 111.444L355.524 109.617zM365.746 116.16L365.991 117.051C 365.781 117.205 365.533 117.322 365.245 117.401C 364.588 117.582 364.156 117.332 363.95 116.653C 363.496 117.572 362.756 118.172 361.73 118.453C 361.046 118.641 360.453 118.615 359.952 118.375C 359.459 118.133 359.129 117.706 358.961 117.094C 358.62 115.852 359.245 114.901 360.835 114.242C 360.938 114.194 361.091 114.133 361.293 114.058C 362.051 113.753 362.504 113.518 362.652 113.351C 362.819 113.15 362.855 112.874 362.759 112.523C 362.548 111.758 361.917 111.52 360.864 111.809C 360.324 111.958 359.945 112.183 359.728 112.484C 359.508 112.777 359.441 113.183 359.525 113.701L359.525 113.701L358.405 114.009C 358.217 113.257 358.324 112.604 358.723 112.049C 359.122 111.494 359.772 111.093 360.672 110.846C 361.653 110.577 362.444 110.601 363.044 110.92C 363.237 111.022 363.401 111.181 363.538 111.395C 363.674 111.609 363.767 111.791 363.818 111.942C 363.867 112.084 363.932 112.303 364.014 112.6C 364.107 112.942 364.241 113.462 364.413 114.16C 364.585 114.858 364.718 115.378 364.812 115.72C 364.881 115.972 364.962 116.143 365.055 116.234C 365.154 116.313 365.294 116.328 365.474 116.279C 365.546 116.259 365.636 116.219 365.746 116.16zM363.155 113.968C 363.091 114.053 363.021 114.131 362.943 114.2C 362.865 114.27 362.758 114.338 362.622 114.405C 362.494 114.469 362.406 114.517 362.357 114.55C 362.314 114.571 362.202 114.622 362.021 114.7C 361.837 114.77 361.74 114.806 361.731 114.809C 361.462 114.922 361.285 114.999 361.2 115.042C 361.121 115.073 360.969 115.154 360.743 115.283C 360.527 115.411 360.38 115.528 360.303 115.637C 360.226 115.745 360.161 115.893 360.106 116.083C 360.058 116.26 360.064 116.457 360.123 116.673C 360.222 117.033 360.421 117.283 360.721 117.424C 361.03 117.561 361.4 117.571 361.832 117.452C 362.381 117.302 362.828 117.005 363.171 116.562C 363.514 116.12 363.625 115.678 363.504 115.237L363.504 115.237L363.155 113.968zM371.164 110.346L370.016 110.661C 369.712 109.835 369.029 109.568 367.967 109.859C 367.526 109.98 367.203 110.161 366.997 110.401C 366.792 110.642 366.729 110.906 366.809 111.194C 366.831 111.275 366.862 111.353 366.902 111.429C 366.94 111.496 366.99 111.555 367.052 111.606C 367.121 111.645 367.18 111.682 367.228 111.717C 367.285 111.75 367.365 111.776 367.468 111.797C 367.577 111.805 367.657 111.817 367.71 111.832C 367.771 111.844 367.87 111.851 368.006 111.852C 368.148 111.842 368.249 111.839 368.308 111.842C 368.364 111.836 368.474 111.83 368.637 111.824C 368.809 111.816 368.918 111.81 368.966 111.806C 369.318 111.787 369.582 111.777 369.756 111.778C 369.94 111.776 370.193 111.799 370.515 111.845C 370.845 111.881 371.104 111.945 371.294 112.038C 371.482 112.122 371.666 112.265 371.847 112.467C 372.035 112.657 372.169 112.897 372.248 113.185C 372.433 113.86 372.317 114.477 371.9 115.037C 371.489 115.585 370.847 115.979 369.974 116.219C 369.029 116.478 368.243 116.472 367.616 116.198C 366.999 115.923 366.564 115.398 366.313 114.625L366.313 114.625L367.447 114.314C 367.78 115.278 368.544 115.595 369.741 115.266C 370.254 115.126 370.636 114.91 370.885 114.619C 371.14 114.316 371.22 113.989 371.124 113.638C 371.06 113.404 370.925 113.233 370.721 113.125C 370.517 113.016 370.308 112.957 370.092 112.949C 369.875 112.931 369.569 112.928 369.175 112.939C 369.119 112.945 369.076 112.947 369.046 112.946C 368.96 112.95 368.775 112.962 368.49 112.982C 368.212 112.991 368.009 112.993 367.882 112.989C 367.755 112.986 367.57 112.978 367.325 112.968C 367.087 112.947 366.902 112.91 366.772 112.859C 366.639 112.798 366.488 112.724 366.319 112.635C 366.156 112.534 366.023 112.406 365.923 112.25C 365.819 112.085 365.737 111.89 365.675 111.665C 365.502 111.035 365.603 110.47 365.979 109.97C 366.364 109.467 366.961 109.105 367.771 108.882C 368.59 108.657 369.309 108.668 369.928 108.914C 370.557 109.158 370.968 109.635 371.164 110.346zM378.222 106.231L377.395 114.907C 377.365 115.254 377.328 115.526 377.285 115.721C 377.254 115.924 377.185 116.151 377.08 116.402C 376.986 116.66 376.839 116.865 376.639 117.017C 376.45 117.175 376.207 117.295 375.91 117.377C 375.685 117.438 375.391 117.476 375.026 117.489L375.026 117.489L374.745 116.462C 375.105 116.47 375.366 116.452 375.528 116.407C 375.906 116.303 376.123 116.036 376.179 115.604L376.179 115.604L376.37 114.187L371.701 108.021L372.997 107.665L376.586 112.647L377.02 106.561L378.222 106.231z" stroke="none" fill="#B9C3C8" fill-rule="nonzero" />
    <path d="M352.204 168.161L357.404 166.733C 358.432 166.451 359.334 166.452 360.109 166.737C 360.892 167.009 361.41 167.608 361.665 168.534C 361.806 169.048 361.798 169.542 361.64 170.017C 361.48 170.481 361.197 170.88 360.791 171.213C 362.232 171.226 363.147 171.937 363.533 173.347C 363.819 174.385 363.691 175.289 363.149 176.057C 362.605 176.815 361.793 177.342 360.713 177.638L360.713 177.638L355.22 179.146L352.204 168.161zM355.062 169.384L355.77 171.961L357.96 171.359C 359.174 171.026 359.664 170.432 359.429 169.579C 359.291 169.075 359.033 168.78 358.656 168.696C 358.276 168.601 357.808 168.63 357.253 168.782L357.253 168.782L355.062 169.384zM356.219 173.596L357.04 176.589L359.463 175.924C 360.09 175.752 360.556 175.514 360.859 175.209C 361.173 174.902 361.249 174.455 361.088 173.869C 360.925 173.272 360.62 172.93 360.176 172.841C 359.739 172.74 359.186 172.781 358.517 172.965L358.517 172.965L356.219 173.596zM371.15 166.211L373.336 174.173L371.253 174.745L370.944 173.618C 370.575 174.693 369.835 175.383 368.724 175.688C 367.85 175.928 367.101 175.879 366.477 175.541C 365.861 175.191 365.425 174.547 365.168 173.611L365.168 173.611L363.698 168.257L365.904 167.652L367.154 172.203C 367.236 172.502 367.312 172.74 367.384 172.92C 367.462 173.086 367.568 173.251 367.702 173.413C 367.835 173.576 368.007 173.678 368.217 173.72C 368.435 173.748 368.693 173.722 368.992 173.64C 370.144 173.324 370.513 172.415 370.101 170.913L370.101 170.913L368.974 166.809L371.15 166.211zM380.064 163.764L379.31 172.499C 379.276 172.94 379.245 173.247 379.215 173.421C 379.198 173.603 379.158 173.858 379.093 174.185C 379.038 174.51 378.965 174.746 378.872 174.893C 378.79 175.037 378.666 175.209 378.5 175.41C 378.344 175.607 378.144 175.767 377.901 175.889C 377.669 176.008 377.388 176.113 377.059 176.204C 376.791 176.277 376.301 176.406 375.589 176.591L375.589 176.591L375.093 174.785L376.158 174.493C 376.518 174.394 376.765 174.227 376.899 173.991C 377.044 173.752 377.069 173.463 376.976 173.124C 376.954 173.041 376.905 172.944 376.83 172.832L376.83 172.832L371.856 166.018L374.217 165.369L377.524 170.285L377.796 164.387L380.064 163.764zM389.505 161.172L389.912 162.653L388.292 163.098L389.321 166.847C 389.386 167.084 389.439 167.257 389.48 167.368C 389.519 167.468 389.585 167.566 389.677 167.662C 389.77 167.758 389.884 167.81 390.019 167.817C 390.161 167.811 390.35 167.776 390.587 167.711C 390.854 167.637 391.073 167.566 391.242 167.498L391.242 167.498L391.699 169.164C 391.176 169.352 390.739 169.494 390.389 169.59C 389.433 169.853 388.734 169.868 388.294 169.635C 387.862 169.388 387.514 168.787 387.251 167.83L387.251 167.83L386.116 163.695L384.789 164.06L384.383 162.578L385.709 162.214L385.049 159.807L387.224 159.21L387.885 161.617L389.505 161.172zM391.893 157.264L393.015 161.353C 393.411 160.337 394.134 159.685 395.183 159.397C 397.045 158.886 398.245 159.613 398.785 161.578L398.785 161.578L400.216 166.793L398.025 167.394L396.738 162.704C 396.588 162.159 396.376 161.769 396.101 161.534C 395.827 161.3 395.417 161.258 394.872 161.407C 394.214 161.588 393.819 161.923 393.688 162.413C 393.567 162.9 393.603 163.493 393.795 164.192L393.795 164.192L394.909 168.25L392.749 168.843L389.733 157.857L391.893 157.264zM408.684 161.813C 408.672 162.734 408.396 163.524 407.858 164.18C 407.329 164.834 406.607 165.287 405.692 165.538C 404.468 165.874 403.376 165.765 402.416 165.21C 401.467 164.652 400.819 163.746 400.475 162.491C 400.136 161.256 400.232 160.135 400.763 159.126C 401.293 158.118 402.14 157.454 403.302 157.135C 404.505 156.805 405.575 156.953 406.511 157.582C 407.443 158.199 408.102 159.208 408.486 160.606L408.486 160.606L408.545 160.822L402.837 162.39C 403.036 163.076 403.345 163.556 403.762 163.828C 404.19 164.098 404.697 164.152 405.284 163.991C 406.055 163.779 406.489 163.245 406.586 162.389L406.586 162.389L408.684 161.813zM405.942 160.044C 405.747 159.533 405.46 159.153 405.081 158.903C 404.7 158.643 404.253 158.583 403.738 158.724C 403.255 158.857 402.897 159.127 402.666 159.533C 402.435 159.939 402.364 160.429 402.455 161.001L402.455 161.001L405.942 160.044zM420.485 152.666L422.442 159.795C 422.8 161.101 422.739 162.147 422.258 162.931C 421.779 163.726 420.881 164.305 419.565 164.666C 417.292 165.29 415.82 164.804 415.149 163.207L415.149 163.207L417.324 162.61C 417.506 162.947 417.746 163.158 418.045 163.242C 418.348 163.336 418.735 163.318 419.209 163.188C 419.898 162.998 420.314 162.702 420.457 162.297C 420.604 161.903 420.584 161.35 420.4 160.637L420.4 160.637L420.17 159.738C 419.799 160.725 419.099 161.359 418.071 161.642C 417.032 161.927 416.106 161.799 415.294 161.259C 414.493 160.716 413.928 159.848 413.6 158.655C 413.267 157.441 413.319 156.381 413.756 155.476C 414.191 154.56 414.933 153.958 415.982 153.67C 416.537 153.518 417.023 153.495 417.44 153.602C 417.864 153.696 418.287 153.928 418.709 154.299L418.709 154.299L418.417 153.234L420.485 152.666zM418.48 155.457C 418.04 155.146 417.533 155.07 416.957 155.228C 416.381 155.386 415.985 155.716 415.769 156.218C 415.56 156.706 415.556 157.316 415.756 158.046C 415.948 158.746 416.267 159.261 416.712 159.592C 417.164 159.911 417.673 159.992 418.239 159.837C 418.805 159.682 419.194 159.348 419.407 158.836C 419.621 158.324 419.629 157.708 419.431 156.988C 419.236 156.278 418.919 155.768 418.48 155.457zM423.702 148.531L424.21 150.383L422.019 150.984L421.511 149.133L423.702 148.531zM424.532 151.555L426.718 159.517L424.527 160.118L422.341 152.157L424.532 151.555zM429.762 146.867L430.203 148.472C 429.745 148.575 429.5 148.631 429.469 148.64C 429.079 148.747 428.832 148.876 428.729 149.026C 428.634 149.162 428.632 149.395 428.722 149.725L428.722 149.725L428.896 150.357L430.454 149.929L430.861 151.41L429.318 151.834L431.097 158.314L428.906 158.916L427.127 152.436L425.831 152.791L425.424 151.31L426.72 150.954L426.606 150.538C 426.349 149.602 426.375 148.87 426.683 148.343C 426.989 147.805 427.631 147.403 428.608 147.134C 428.721 147.103 428.841 147.076 428.967 147.052C 429.101 147.016 429.246 146.981 429.403 146.949C 429.56 146.917 429.68 146.89 429.762 146.867zM435.777 148.468L436.184 149.949L434.564 150.394L435.593 154.143C 435.658 154.38 435.711 154.553 435.752 154.663C 435.791 154.763 435.857 154.862 435.949 154.958C 436.042 155.054 436.156 155.106 436.291 155.113C 436.433 155.107 436.622 155.072 436.859 155.007C 437.126 154.933 437.345 154.862 437.514 154.794L437.514 154.794L437.971 156.46C 437.448 156.648 437.011 156.79 436.661 156.886C 435.705 157.149 435.006 157.163 434.566 156.93C 434.134 156.684 433.786 156.083 433.523 155.126L433.523 155.126L432.388 150.991L431.061 151.355L430.655 149.874L431.981 149.51L431.321 147.103L433.496 146.506L434.157 148.913L435.777 148.468zM444.619 142.788L445.06 144.393C 444.601 144.496 444.357 144.553 444.326 144.561C 443.935 144.668 443.688 144.797 443.586 144.947C 443.49 145.084 443.488 145.316 443.578 145.646L443.578 145.646L443.752 146.278L445.31 145.85L445.717 147.332L444.174 147.755L445.953 154.235L443.762 154.837L441.983 148.357L440.687 148.713L440.281 147.231L441.577 146.876L441.462 146.459C 441.205 145.523 441.231 144.791 441.54 144.264C 441.846 143.727 442.487 143.324 443.465 143.055C 443.578 143.024 443.697 142.997 443.824 142.973C 443.957 142.937 444.103 142.902 444.26 142.87C 444.417 142.838 444.537 142.811 444.619 142.788zM450.107 144.285C 451.331 143.948 452.419 144.065 453.372 144.633C 454.334 145.198 454.989 146.113 455.337 147.378C 455.687 148.654 455.593 149.78 455.053 150.758C 454.525 151.733 453.638 152.391 452.393 152.733C 451.149 153.074 450.045 152.963 449.082 152.397C 448.12 151.832 447.463 150.912 447.113 149.636C 446.766 148.371 446.867 147.248 447.416 146.268C 447.966 145.287 448.862 144.626 450.107 144.285zM450.503 145.968C 449.917 146.129 449.516 146.482 449.301 147.028C 449.085 147.574 449.087 148.243 449.304 149.035C 449.527 149.847 449.871 150.433 450.334 150.793C 450.798 151.152 451.333 151.248 451.94 151.082C 452.547 150.915 452.953 150.56 453.158 150.017C 453.37 149.461 453.365 148.777 453.142 147.964C 452.924 147.172 452.58 146.603 452.109 146.257C 451.645 145.898 451.11 145.801 450.503 145.968zM460.814 141.444L461.369 143.466C 461.044 143.489 460.753 143.535 460.495 143.606C 459.775 143.804 459.309 144.181 459.097 144.737C 458.882 145.282 458.88 145.941 459.092 146.712L459.092 146.712L460.091 150.354L457.901 150.955L455.715 142.994L457.798 142.422L458.2 143.888C 458.422 142.643 459.13 141.857 460.323 141.529C 460.426 141.501 460.59 141.473 460.814 141.444zM468.392 148.075L465.376 137.089L468.817 136.145L473.449 142.986L473.877 134.755L477.241 133.832L480.257 144.817L477.989 145.44L475.846 137.633L475.289 146.181L473.422 146.694L468.569 139.714L470.691 147.444L468.392 148.075zM489.564 142.262L487.343 142.872C 487.214 142.686 487.092 142.443 486.976 142.143C 486.491 142.995 485.724 143.565 484.675 143.853C 483.791 144.096 483.038 144.076 482.419 143.792C 481.796 143.499 481.382 142.976 481.175 142.226C 481.082 141.886 481.041 141.577 481.053 141.297C 481.075 141.014 481.16 140.759 481.307 140.53C 481.465 140.299 481.616 140.103 481.759 139.941C 481.914 139.777 482.14 139.616 482.439 139.456C 482.738 139.297 482.981 139.175 483.168 139.09C 483.352 138.995 483.614 138.879 483.952 138.742C 484.695 138.427 485.18 138.178 485.406 137.994C 485.643 137.808 485.718 137.56 485.634 137.252C 485.439 136.542 484.863 136.318 483.906 136.581C 483.402 136.719 483.058 136.914 482.872 137.164C 482.683 137.404 482.615 137.76 482.667 138.232L482.667 138.232L480.615 138.795C 480.247 136.972 481.231 135.739 483.566 135.098C 485.88 134.463 487.274 135.009 487.749 136.737L487.749 136.737L488.694 140.178C 488.97 141.186 489.261 141.881 489.564 142.262zM486.11 139.046C 485.895 139.271 485.419 139.551 484.681 139.886C 484.061 140.167 483.675 140.411 483.522 140.619C 483.349 140.877 483.309 141.175 483.403 141.514C 483.493 141.844 483.668 142.078 483.927 142.217C 484.194 142.342 484.518 142.353 484.898 142.249C 485.485 142.088 485.91 141.805 486.175 141.4C 486.448 140.983 486.508 140.496 486.355 139.941L486.355 139.941L486.11 139.046zM493.963 132.343L494.518 134.365C 494.192 134.388 493.901 134.434 493.644 134.505C 492.924 134.703 492.458 135.08 492.245 135.636C 492.03 136.181 492.028 136.84 492.24 137.611L492.24 137.611L493.24 141.253L491.049 141.854L488.863 133.893L490.946 133.321L491.348 134.787C 491.571 133.542 492.279 132.756 493.472 132.428C 493.575 132.4 493.738 132.372 493.963 132.343zM502.065 130.268L501.311 139.003C 501.277 139.444 501.245 139.752 501.216 139.926C 501.199 140.107 501.159 140.362 501.094 140.689C 501.039 141.014 500.966 141.25 500.873 141.397C 500.791 141.541 500.667 141.713 500.501 141.914C 500.345 142.112 500.145 142.271 499.902 142.393C 499.67 142.513 499.389 142.617 499.06 142.708C 498.792 142.781 498.302 142.91 497.59 143.095L497.59 143.095L497.094 141.29L498.158 140.997C 498.519 140.898 498.766 140.731 498.9 140.495C 499.045 140.256 499.07 139.967 498.977 139.628C 498.954 139.545 498.906 139.448 498.831 139.336L498.831 139.336L493.857 132.522L496.218 131.874L499.525 136.789L499.797 130.891L502.065 130.268z" stroke="none" fill="#282828" fill-rule="nonzero" />
    <path d="M401.313 184.154L401.617 185.261L398.391 186.147L400.726 194.652L399.457 195L397.122 186.495L393.895 187.381L393.591 186.274L401.313 184.154zM402.46 187.541C 402.889 186.707 403.63 186.145 404.683 185.856C 405.736 185.567 406.643 185.662 407.403 186.14C 408.164 186.619 408.702 187.434 409.018 188.586C 409.342 189.765 409.301 190.763 408.897 191.581C 408.492 192.399 407.759 192.953 406.697 193.245C 405.635 193.536 404.713 193.441 403.932 192.958C 403.151 192.476 402.603 191.659 402.287 190.507C 401.973 189.364 402.03 188.375 402.46 187.541zM406.716 187.127C 406.193 186.739 405.594 186.637 404.919 186.822C 404.244 187.008 403.776 187.402 403.516 188.006C 403.256 188.61 403.24 189.325 403.467 190.153C 403.702 191.008 404.08 191.626 404.6 192.006C 405.127 192.374 405.741 192.462 406.443 192.269C 407.118 192.084 407.578 191.696 407.823 191.106C 408.076 190.514 408.086 189.79 407.851 188.935C 407.624 188.107 407.245 187.505 406.716 187.127zM415.261 180.324L417.9 189.937L416.82 190.233L416.538 189.207C 416.319 190.138 415.666 190.753 414.577 191.052C 413.587 191.324 412.709 191.212 411.943 190.715C 411.185 190.207 410.649 189.387 410.338 188.253C 410.049 187.199 410.079 186.252 410.429 185.411C 410.785 184.558 411.476 183.991 412.503 183.709C 413.502 183.435 414.366 183.604 415.095 184.217L415.095 184.217L414.113 180.639L415.261 180.324zM412.922 184.654C 412.265 184.834 411.808 185.216 411.552 185.8C 411.305 186.38 411.294 187.08 411.519 187.899C 411.751 188.745 412.13 189.367 412.655 189.765C 413.187 190.151 413.782 190.254 414.439 190.074C 415.105 189.891 415.561 189.509 415.808 188.928C 416.053 188.339 416.058 187.616 415.823 186.761C 415.613 185.996 415.257 185.407 414.757 184.992C 414.262 184.567 413.651 184.454 412.922 184.654zM425.812 186.777L426.057 187.668C 425.848 187.822 425.599 187.939 425.311 188.018C 424.654 188.198 424.223 187.949 424.017 187.27C 423.563 188.188 422.822 188.788 421.796 189.07C 421.112 189.258 420.52 189.232 420.018 188.992C 419.526 188.75 419.196 188.323 419.028 187.711C 418.687 186.469 419.311 185.518 420.901 184.859C 421.004 184.811 421.157 184.75 421.359 184.675C 422.117 184.37 422.57 184.134 422.718 183.968C 422.886 183.767 422.921 183.491 422.825 183.14C 422.615 182.375 421.983 182.137 420.93 182.426C 420.39 182.574 420.012 182.799 419.794 183.101C 419.575 183.394 419.507 183.799 419.592 184.318L419.592 184.318L418.471 184.626C 418.284 183.874 418.39 183.22 418.789 182.666C 419.189 182.111 419.838 181.71 420.738 181.463C 421.719 181.193 422.51 181.218 423.111 181.537C 423.303 181.639 423.468 181.797 423.604 182.012C 423.74 182.226 423.834 182.408 423.885 182.559C 423.933 182.7 423.998 182.92 424.08 183.217C 424.174 183.559 424.307 184.079 424.479 184.776C 424.652 185.474 424.785 185.994 424.879 186.336C 424.948 186.588 425.029 186.76 425.121 186.851C 425.22 186.93 425.36 186.945 425.54 186.895C 425.612 186.875 425.703 186.836 425.812 186.777zM423.222 184.585C 423.158 184.67 423.087 184.747 423.01 184.817C 422.932 184.887 422.825 184.955 422.688 185.021C 422.561 185.085 422.472 185.134 422.423 185.167C 422.381 185.188 422.269 185.238 422.087 185.317C 421.903 185.387 421.806 185.423 421.797 185.426C 421.528 185.538 421.351 185.616 421.266 185.659C 421.188 185.69 421.036 185.77 420.81 185.9C 420.593 186.027 420.446 186.145 420.37 186.253C 420.293 186.361 420.227 186.51 420.173 186.699C 420.125 186.877 420.13 187.074 420.19 187.29C 420.288 187.65 420.488 187.9 420.788 188.04C 421.096 188.178 421.467 188.188 421.899 188.069C 422.448 187.918 422.894 187.622 423.237 187.179C 423.58 186.736 423.691 186.295 423.57 185.854L423.57 185.854L423.222 184.585zM431.268 178.775L430.442 187.451C 430.411 187.798 430.374 188.07 430.331 188.266C 430.3 188.468 430.231 188.695 430.126 188.946C 430.033 189.204 429.886 189.409 429.685 189.561C 429.496 189.719 429.254 189.839 428.957 189.921C 428.732 189.982 428.437 190.02 428.073 190.033L428.073 190.033L427.791 189.007C 428.151 189.014 428.412 188.996 428.574 188.951C 428.952 188.848 429.169 188.58 429.225 188.148L429.225 188.148L429.416 186.731L424.747 180.565L426.043 180.209L429.632 185.191L430.067 179.105L431.268 178.775zM434.778 183.691L435.03 184.609C 435.124 184.951 435.185 185.244 435.213 185.488C 435.253 185.738 435.257 185.999 435.224 186.269C 435.192 186.539 435.095 186.784 434.932 187.002C 434.772 187.23 434.541 187.429 434.239 187.599L434.239 187.599L434.054 186.924C 434.496 186.629 434.622 186.12 434.433 185.397L434.433 185.397L433.691 185.601L433.279 184.103L434.778 183.691zM442.834 172.812L445.458 182.37L444.203 182.715L442.301 175.789L439.898 176.449L439.661 175.585C 440.435 175.373 441.012 175.078 441.393 174.703C 441.783 174.325 441.962 173.777 441.929 173.06L441.929 173.06L442.834 172.812zM454.686 178.719L454.972 179.758L448.734 181.471C 448.616 180.932 448.569 180.447 448.596 180.014C 448.622 179.581 448.731 179.168 448.924 178.777C 449.123 178.373 449.329 178.031 449.542 177.75C 449.755 177.469 450.067 177.108 450.478 176.666C 451.119 175.967 451.527 175.463 451.704 175.153C 452.072 174.52 452.173 173.902 452.007 173.299C 451.862 172.768 451.572 172.383 451.139 172.143C 450.703 171.895 450.21 171.847 449.661 171.997C 449.004 172.178 448.595 172.537 448.433 173.075C 448.277 173.602 448.286 174.214 448.458 174.912L448.458 174.912L447.297 175.231L447.227 174.974C 446.967 174.029 447.037 173.192 447.437 172.463C 447.846 171.731 448.514 171.238 449.441 170.984C 450.35 170.734 451.144 170.787 451.822 171.143C 452.5 171.499 452.956 172.099 453.188 172.945C 453.287 173.305 453.318 173.665 453.281 174.023C 453.25 174.371 453.188 174.673 453.094 174.931C 453.01 175.187 452.848 175.478 452.609 175.805C 452.378 176.129 452.183 176.386 452.022 176.576C 451.858 176.756 451.623 177.01 451.316 177.336C 450.699 177.979 450.302 178.456 450.126 178.766C 449.878 179.202 449.76 179.636 449.772 180.068L449.772 180.068L454.686 178.719zM458.376 177.212L458.788 178.711L457.289 179.122L456.878 177.624L458.376 177.212zM456.875 171.744L457.286 173.243L455.788 173.654L455.376 172.156L456.875 171.744zM461.308 167.725C 461.884 167.567 462.404 167.541 462.868 167.645C 463.339 167.739 463.724 167.909 464.024 168.156C 464.324 168.402 464.605 168.756 464.867 169.216C 465.127 169.668 465.324 170.088 465.46 170.476C 465.593 170.856 465.735 171.32 465.886 171.869C 466.024 172.373 466.127 172.834 466.193 173.251C 466.268 173.666 466.299 174.113 466.285 174.591C 466.28 175.066 466.206 175.484 466.062 175.842C 465.916 176.192 465.676 176.515 465.341 176.81C 465.006 177.105 464.573 177.326 464.041 177.471C 463.483 177.625 462.972 177.664 462.506 177.588C 462.046 177.501 461.665 177.345 461.36 177.119C 461.056 176.892 460.776 176.577 460.52 176.173C 460.271 175.758 460.073 175.357 459.929 174.971C 459.782 174.576 459.636 174.117 459.493 173.595C 459.369 173.145 459.271 172.751 459.197 172.413C 459.133 172.073 459.076 171.687 459.025 171.256C 458.981 170.813 458.991 170.428 459.056 170.1C 459.118 169.764 459.226 169.434 459.38 169.111C 459.533 168.789 459.771 168.51 460.094 168.276C 460.426 168.04 460.831 167.856 461.308 167.725zM462.376 168.71C 462.131 168.661 461.868 168.675 461.589 168.752C 461.31 168.828 461.078 168.95 460.891 169.117C 460.702 169.276 460.559 169.441 460.461 169.613C 460.363 169.785 460.302 170.02 460.277 170.317C 460.25 170.605 460.238 170.845 460.243 171.038C 460.256 171.228 460.296 171.497 460.363 171.847C 460.427 172.187 460.479 172.429 460.519 172.573C 460.556 172.708 460.619 172.938 460.708 173.262C 460.794 173.577 460.871 173.837 460.936 174.041C 461.002 174.246 461.099 174.509 461.226 174.833C 461.354 175.156 461.493 175.417 461.645 175.618C 461.795 175.809 461.968 175.999 462.164 176.187C 462.359 176.366 462.589 176.481 462.855 176.534C 463.128 176.575 463.421 176.553 463.736 176.466C 464.007 176.392 464.231 176.277 464.411 176.121C 464.6 175.963 464.743 175.798 464.841 175.626C 464.939 175.454 465 175.234 465.023 174.966C 465.053 174.687 465.066 174.451 465.061 174.259C 465.054 174.057 465.018 173.801 464.952 173.49C 464.892 173.168 464.843 172.935 464.803 172.791C 464.77 172.635 464.714 172.413 464.635 172.125C 464.549 171.81 464.487 171.585 464.45 171.45C 464.413 171.315 464.335 171.085 464.217 170.76C 464.098 170.434 463.992 170.187 463.897 170.02C 463.812 169.85 463.684 169.648 463.513 169.414C 463.343 169.18 463.171 169.014 462.999 168.916C 462.827 168.818 462.62 168.749 462.376 168.71zM469.079 165.592C 469.655 165.434 470.176 165.407 470.64 165.512C 471.111 165.605 471.496 165.775 471.796 166.022C 472.096 166.268 472.377 166.622 472.639 167.082C 472.898 167.534 473.096 167.954 473.232 168.342C 473.365 168.722 473.507 169.186 473.658 169.735C 473.796 170.239 473.898 170.7 473.965 171.117C 474.04 171.532 474.07 171.979 474.057 172.457C 474.052 172.933 473.977 173.35 473.834 173.709C 473.688 174.058 473.448 174.381 473.112 174.676C 472.777 174.971 472.344 175.192 471.813 175.338C 471.255 175.491 470.743 175.53 470.277 175.455C 469.818 175.368 469.436 175.211 469.132 174.985C 468.828 174.759 468.548 174.444 468.292 174.04C 468.042 173.624 467.845 173.223 467.7 172.837C 467.553 172.442 467.408 171.984 467.265 171.462C 467.141 171.012 467.043 170.618 466.969 170.28C 466.905 169.939 466.847 169.553 466.797 169.122C 466.752 168.679 466.763 168.294 466.828 167.967C 466.89 167.63 466.998 167.3 467.151 166.978C 467.305 166.655 467.543 166.377 467.866 166.143C 468.198 165.906 468.602 165.723 469.079 165.592zM470.148 166.576C 469.902 166.527 469.64 166.541 469.361 166.618C 469.082 166.694 468.849 166.816 468.663 166.984C 468.474 167.142 468.331 167.307 468.233 167.479C 468.135 167.651 468.073 167.886 468.049 168.183C 468.021 168.471 468.01 168.712 468.014 168.904C 468.028 169.094 468.068 169.363 468.135 169.713C 468.199 170.053 468.251 170.296 468.291 170.44C 468.328 170.575 468.391 170.804 468.48 171.128C 468.566 171.443 468.642 171.703 468.708 171.907C 468.774 172.112 468.871 172.376 468.998 172.699C 469.126 173.022 469.265 173.284 469.417 173.484C 469.566 173.675 469.739 173.865 469.936 174.053C 470.13 174.232 470.361 174.348 470.627 174.4C 470.899 174.442 471.193 174.419 471.508 174.333C 471.778 174.258 472.003 174.143 472.183 173.988C 472.372 173.829 472.515 173.664 472.613 173.492C 472.711 173.32 472.772 173.1 472.795 172.832C 472.825 172.553 472.837 172.317 472.833 172.125C 472.826 171.924 472.79 171.668 472.724 171.357C 472.664 171.034 472.615 170.801 472.575 170.657C 472.542 170.501 472.486 170.28 472.407 169.992C 472.321 169.677 472.259 169.452 472.222 169.317C 472.185 169.182 472.107 168.951 471.988 168.626C 471.87 168.3 471.764 168.054 471.669 167.886C 471.584 167.716 471.456 167.514 471.285 167.28C 471.114 167.046 470.943 166.88 470.771 166.782C 470.599 166.684 470.391 166.616 470.148 166.576z" stroke="none" fill="#B9C3C8" fill-rule="nonzero" />
    <path d="M348.291 249.491L421.097 229.502C 427.754 227.675 434.632 231.59 436.46 238.247C 438.288 244.904 434.373 251.782 427.715 253.61L427.715 253.61L354.91 273.599L348.291 249.491z" stroke="none" fill="#FFE6D3" fill-rule="nonzero" />
    <path d="M376.517 250.212L376.756 251.082L372.788 252.171L373.435 254.526L376.935 253.565L377.165 254.403L373.665 255.364L374.623 258.854L373.626 259.128L371.553 251.575L376.517 250.212zM380.437 249.136L385.459 255.879L384.345 256.185L382.872 254.102L379.701 254.973L379.476 257.521L378.416 257.813L379.312 249.445L380.437 249.136zM382.357 253.388L380.115 250.251L379.769 254.099L382.357 253.388zM384.366 248.057L385.745 247.678L389.93 253.408L390.518 246.368L391.908 245.986L393.981 253.539L393.037 253.798L391.307 247.497L390.672 254.448L389.802 254.686L385.664 249.047L387.394 255.347L386.44 255.61L384.366 248.057zM394.847 245.179L396.921 252.732L395.924 253.006L393.85 245.453L394.847 245.179zM403.617 249.958L403.856 250.828L398.849 252.202L396.775 244.65L397.773 244.376L399.607 251.059L403.617 249.958zM407.726 241.643L406.035 246.91L406.882 249.997L405.896 250.268L405.048 247.181L400.884 243.522L402.083 243.193L405.329 246.168L406.58 241.958L407.726 241.643z" stroke="none" fill="#282828" fill-rule="nonzero" />
</g>
</svg>