<?xml version="1.0" standalone="no"?>
<!DOCTYPE svg PUBLIC "-//W3C//DTD SVG 1.0//EN" "http://www.w3.org/TR/2001/REC-SVG-20010904/DTD/svg10.dtd">
<svg xmlns="http://www.w3.org/2000/svg" xmlns:xlink="http://www.w3.org/1999/xlink" id="body_1" width="332" height="436">

<g transform="matrix(1 0 0 1 0 0)">
    <path transform="matrix(0.9643152 -0.2647568 0.2647568 0.9643152 4.725117 -0.57704544)"  d="M0.221924 -7.8171005C 0.221924 -13.339948 4.6990767 -17.8171 10.221924 -17.8171L10.221924 -17.8171L697.2219 -17.8171C 702.74475 -17.8171 707.2219 -13.339948 707.2219 -7.8171005L707.2219 -7.8171005L707.2219 442.1829C 707.2219 447.70575 702.74475 452.1829 697.2219 452.1829L697.2219 452.1829L10.221924 452.1829C 4.6990767 452.1829 0.221924 447.70575 0.221924 442.1829L0.221924 442.1829L0.221924 -7.8171005z" stroke="none" fill="none" />
	<g>
        <path transform="matrix(0.9643152 -0.2647568 0.2647568 0.9643152 0.45972252 6.4611416)"  d="M24.1985 11.52515C 24.1985 6.0023026 28.675652 1.52515 34.1985 1.52515L34.1985 1.52515L219.1985 1.52515C 224.72134 1.52515 229.1985 6.0023026 229.1985 11.52515L229.1985 11.52515L229.1985 190.52515C 229.1985 196.048 224.72134 200.52515 219.1985 200.52515L219.1985 200.52515L34.1985 200.52515C 28.675652 200.52515 24.1985 196.048 24.1985 190.52515L24.1985 190.52515L24.1985 11.52515z" stroke="none" fill="#FFFFFF" fill-rule="nonzero" />
	</g>
    <path transform="matrix(0.964315 -0.264757 -0.264757 -0.964315 54.9252 19.0141)"  d="M4 0C 4 1.1045696 3.6094759 2.0473785 2.828427 2.828427C 2.0473785 3.6094759 1.1045696 4 0 4C -1.1045696 4 -2.0473785 3.6094759 -2.828427 2.828427C -3.6094759 2.0473785 -4 1.1045696 -4 0C -4 -1.1045696 -3.6094759 -2.0473785 -2.828427 -2.828427C -2.0473785 -3.6094759 -1.1045696 -4 0 -4C 1.1045696 -4 2.0473785 -3.6094759 2.828427 -2.828427C 3.6094759 -2.0473785 4 -1.1045696 4 0C 4 0.046546843 3.999188 0.09307951 3.9975634 0.13959798" stroke="none" fill="#DB0837" fill-rule="nonzero" />
    <path d="M72.8983 8.92775L75.5374 18.54L74.2684 18.8885L73.0341 14.3928L67.9579 15.7865L69.1922 20.2821L67.9232 20.6306L65.2841 11.0183L66.5531 10.6699L67.654 14.6795L72.7302 13.2858L71.6293 9.27617L72.8983 8.92775zM83.6513 15.3251L83.8959 16.2161C 83.6866 16.3704 83.438 16.4871 83.15 16.5661C 82.493 16.7465 82.0616 16.4972 81.8558 15.8181C 81.4014 16.7365 80.6611 17.3366 79.6351 17.6183C 78.9511 17.8061 78.3584 17.7801 77.857 17.5402C 77.3646 17.298 77.0344 16.8708 76.8664 16.2588C 76.5254 15.0168 77.15 14.0661 78.7402 13.4069C 78.8433 13.3593 78.9958 13.298 79.1979 13.2232C 79.9562 12.9182 80.4093 12.6825 80.5572 12.5161C 80.7246 12.3152 80.7602 12.0393 80.6638 11.6883C 80.4538 10.9233 79.8223 10.6853 78.7692 10.9744C 78.2292 11.1227 77.8506 11.3476 77.6333 11.6492C 77.4136 11.9418 77.346 12.3476 77.4304 12.8664L77.4304 12.8664L76.3098 13.1741C 76.1227 12.4221 76.2289 11.7687 76.6282 11.2138C 77.0275 10.659 77.6772 10.258 78.5773 10.0109C 79.5583 9.74152 80.3491 9.76637 80.9497 10.0854C 81.1422 10.1874 81.3066 10.3455 81.4428 10.5598C 81.5791 10.774 81.6727 10.9564 81.7237 11.1069C 81.7723 11.2485 81.8373 11.4677 81.9189 11.7647C 82.0128 12.1068 82.1458 12.6267 82.3181 13.3247C 82.4904 14.0227 82.6235 14.5427 82.7174 14.8847C 82.7866 15.1367 82.8675 15.308 82.9601 15.3987C 83.0593 15.478 83.1989 15.4929 83.3789 15.4435C 83.4509 15.4237 83.5417 15.3842 83.6513 15.3251zM81.0604 13.1328C 80.9967 13.2181 80.9261 13.2956 80.8484 13.3653C 80.7708 13.435 80.6636 13.5031 80.527 13.5696C 80.3995 13.6337 80.3111 13.6822 80.2621 13.715C 80.2195 13.7363 80.1075 13.7865 79.9259 13.8654C 79.7418 13.9352 79.6453 13.9714 79.6363 13.9739C 79.3672 14.0865 79.1901 14.1642 79.105 14.2069C 79.0265 14.2381 78.8744 14.3186 78.6487 14.4483C 78.4319 14.5756 78.2852 14.6933 78.2084 14.8015C 78.1317 14.9097 78.066 15.0583 78.0115 15.2475C 77.9635 15.4252 77.9692 15.6221 78.0285 15.8381C 78.1273 16.1981 78.3267 16.4483 78.6265 16.5886C 78.9353 16.7264 79.3058 16.736 79.7378 16.6174C 80.2868 16.4666 80.7328 16.1699 81.0759 15.7273C 81.4189 15.2847 81.5299 14.8429 81.4089 14.4019L81.4089 14.4019L81.0604 13.1328zM86.9294 7.74679L87.2556 8.93483C 87.1721 8.94806 87.0719 8.97075 86.9549 9.00287C 86.5859 9.10418 86.2824 9.25041 86.0445 9.44154C 85.8042 9.62368 85.6277 9.82699 85.5151 10.0515C 85.4115 10.2735 85.3473 10.5331 85.3224 10.8303C 85.2976 11.1275 85.3042 11.416 85.3423 11.6959C 85.3895 11.9733 85.46 12.283 85.5539 12.6251L85.5539 12.6251L86.3619 15.5681L85.2144 15.8832L83.3018 8.91699L84.3953 8.61675L84.8067 10.1153C 84.9618 8.88224 85.6694 8.09274 86.9294 7.74679zM93.4219 3.29292L96.061 12.9052L94.981 13.2017L94.6993 12.1757C 94.4807 13.1068 93.8268 13.7219 92.7378 14.0209C 91.7478 14.2927 90.87 14.1804 90.1046 13.684C 89.3458 13.1761 88.8107 12.3552 88.4993 11.2211C 88.2102 10.1681 88.2405 9.22094 88.5902 8.37965C 88.9465 7.5269 89.6377 6.95967 90.6637 6.67797C 91.6627 6.40368 92.527 6.57289 93.2566 7.18559L93.2566 7.18559L92.2744 3.60798L93.4219 3.29292zM91.0828 7.62273C 90.4258 7.80311 89.9692 8.18494 89.7132 8.76821C 89.4661 9.34901 89.4551 10.0489 89.6799 10.8679C 89.9122 11.714 90.291 12.3359 90.8164 12.7336C 91.3483 13.1199 91.9428 13.2229 92.5998 13.0425C 93.2659 12.8596 93.7224 12.4778 93.9694 11.897C 94.214 11.3072 94.2189 10.5848 93.9842 9.72975C 93.7741 8.96473 93.4187 8.37513 92.9178 7.96096C 92.4235 7.53531 91.8118 7.42257 91.0828 7.62273z" stroke="none" fill="#B9C3C8" fill-rule="nonzero" />
    <path d="M102.578 61.9289L100.295 62.5558C 99.903 61.4909 99.0591 61.1364 97.763 61.4922C 97.2076 61.6447 96.8015 61.8779 96.5447 62.1917C 96.2955 62.4925 96.2245 62.8383 96.3318 63.2291C 96.3685 63.3629 96.4216 63.4755 96.491 63.5671C 96.5603 63.6586 96.6643 63.7352 96.8029 63.7967C 96.9386 63.8479 97.0715 63.8888 97.2016 63.9195C 97.3289 63.9399 97.5104 63.9564 97.7462 63.9691C 97.9894 63.9687 98.2055 63.9702 98.3945 63.9736C 98.5938 63.9742 98.8693 63.9705 99.221 63.9624C 99.5728 63.9543 99.882 63.9524 100.149 63.9566C 101.313 63.9686 102.222 64.1341 102.873 64.4529C 103.535 64.7689 103.985 65.359 104.222 66.223C 104.394 66.8504 104.417 67.436 104.29 67.9798C 104.159 68.5133 103.911 68.9796 103.545 69.3788C 103.187 69.7648 102.762 70.0916 102.271 70.359C 101.794 70.6339 101.262 70.8519 100.676 71.0129C 99.1841 71.4223 97.9235 71.4034 96.8936 70.9561C 95.8712 70.4957 95.1841 69.6446 94.8321 68.4028L94.8321 68.4028L97.2236 67.7462C 97.6431 69.1133 98.6604 69.5751 100.275 69.1317C 100.903 68.9595 101.361 68.6953 101.651 68.3393C 101.947 67.9702 102.034 67.5594 101.909 67.1068C 101.805 66.7262 101.559 66.4951 101.172 66.4134C 100.794 66.3289 100.029 66.2792 98.8741 66.2644C 98.8096 66.271 98.7605 66.2734 98.7268 66.2716C 98.6931 66.2698 98.6491 66.2708 98.5949 66.2747C 98.5378 66.2682 98.4873 66.2655 98.4433 66.2665C 98.0448 66.2653 97.7679 66.2639 97.6126 66.2623C 97.4544 66.2504 97.2004 66.2317 96.8505 66.2061C 96.5108 66.1776 96.2563 66.1369 96.0869 66.0839C 95.9175 66.0308 95.7021 65.9517 95.441 65.8464C 95.19 65.7383 94.9943 65.6095 94.8537 65.4601C 94.7103 65.3004 94.5622 65.1032 94.4093 64.8687C 94.2638 64.621 94.1488 64.3429 94.064 64.0343C 93.7901 63.0365 93.957 62.1335 94.5646 61.3251C 95.1723 60.5167 96.1138 59.9374 97.3893 59.5872C 98.6236 59.2483 99.7122 59.2647 100.655 59.6364C 101.595 59.9978 102.236 60.7619 102.578 61.9289zM111.636 59.1767L113.821 67.1381L111.739 67.71L111.429 66.5837C 111.061 67.6583 110.321 68.3481 109.21 68.6531C 108.336 68.8932 107.587 68.8444 106.963 68.5068C 106.347 68.1561 105.91 67.5127 105.653 66.5767L105.653 66.5767L104.183 61.2228L106.39 60.617L107.639 65.1686C 107.721 65.4669 107.798 65.7058 107.869 65.8853C 107.948 66.0517 108.054 66.2161 108.187 66.3787C 108.32 66.5413 108.492 66.6434 108.703 66.6851C 108.921 66.7138 109.179 66.6871 109.477 66.6052C 110.629 66.2889 110.999 65.3799 110.587 63.8782L110.587 63.8782L109.46 59.774L111.636 59.1767zM114.644 55.0988L115.741 59.0949C 116.146 58.154 116.879 57.5382 117.938 57.2473C 118.998 56.9564 119.937 57.1134 120.755 57.7182C 121.574 58.323 122.146 59.2169 122.47 60.3998C 122.821 61.6753 122.775 62.7994 122.334 63.7721C 121.901 64.7318 121.16 65.3557 120.111 65.6437C 119.01 65.9459 118.065 65.7683 117.276 65.1111L117.276 65.1111L117.567 66.1097L115.484 66.6816L112.468 55.6961L114.644 55.0988zM117.721 59.1154C 117.135 59.2764 116.727 59.6261 116.499 60.1644C 116.278 60.6896 116.271 61.3276 116.477 62.0785C 116.689 62.85 117.025 63.4102 117.486 63.7593C 117.947 64.1084 118.476 64.2011 119.072 64.0373C 119.638 63.882 120.028 63.5314 120.244 62.9856C 120.469 62.437 120.477 61.7822 120.268 61.021C 120.068 60.2907 119.732 59.7524 119.261 59.4061C 118.8 59.057 118.287 58.9601 117.721 59.1154zM137.198 60.72L134.976 61.33L133.672 56.5779C 133.528 56.0533 133.335 55.6747 133.094 55.4422C 132.851 55.1993 132.472 55.1485 131.957 55.2897C 130.939 55.5693 130.605 56.3468 130.955 57.6223L130.955 57.6223L132.184 62.0967L129.993 62.6983L128.663 57.8535C 128.527 57.3598 128.34 57.0018 128.102 56.7796C 127.861 56.547 127.504 56.4957 127.031 56.6256C 125.972 56.9165 125.633 57.7563 126.014 59.1449L126.014 59.1449L127.2 63.465L125.009 64.0665L122.823 56.1051L124.906 55.5333L125.207 56.6287C 125.594 55.5821 126.318 54.9134 127.377 54.6225C 128.478 54.3204 129.349 54.5514 129.99 55.3155C 130.388 54.2661 131.137 53.5903 132.237 53.2882C 133.112 53.0481 133.851 53.1217 134.455 53.5089C 135.067 53.883 135.491 54.5021 135.728 55.3661L135.728 55.3661L137.198 60.72zM138.151 48.6448L138.659 50.4963L136.468 51.0978L135.96 49.2463L138.151 48.6448zM138.981 51.6689L141.167 59.6303L138.976 60.2318L136.79 52.2704L138.981 51.6689zM145.088 49.9922L145.495 51.4734L143.875 51.9182L144.904 55.6674C 144.969 55.904 145.022 56.0774 145.064 56.1878C 145.102 56.2878 145.168 56.3859 145.261 56.4821C 145.354 56.5783 145.467 56.63 145.602 56.6373C 145.744 56.6314 145.934 56.596 146.17 56.5311C 146.438 56.4577 146.656 56.3867 146.825 56.3181L146.825 56.3181L147.283 57.9844C 146.759 58.1724 146.322 58.3144 145.973 58.4104C 145.016 58.6731 144.318 58.6878 143.878 58.4547C 143.445 58.2084 143.097 57.607 142.835 56.6504L142.835 56.6504L141.699 52.5154L140.373 52.8797L139.966 51.3986L141.293 51.0343L140.632 48.6273L142.807 48.03L143.468 50.437L145.088 49.9922zM155.556 46.969L156.111 48.9902C 155.785 49.0132 155.494 49.06 155.237 49.1306C 154.516 49.3283 154.05 49.7052 153.838 50.2613C 153.623 50.807 153.621 51.4657 153.833 52.2371L153.833 52.2371L154.833 55.8784L152.642 56.4799L150.456 48.5185L152.539 47.9466L152.941 49.4124C 153.164 48.1678 153.871 47.3816 155.065 47.054C 155.167 47.0258 155.331 46.9975 155.556 46.969zM165.142 50.3932C 165.129 51.3147 164.854 52.1038 164.315 52.7606C 163.787 53.4145 163.065 53.8671 162.149 54.1184C 160.925 54.4545 159.833 54.345 158.873 53.79C 157.924 53.2322 157.277 52.3258 156.932 51.0709C 156.593 49.8366 156.689 48.7152 157.22 47.7067C 157.75 46.6983 158.597 46.0345 159.759 45.7154C 160.963 45.3849 162.032 45.5337 162.968 46.1618C 163.901 46.7795 164.559 47.7878 164.943 49.1867L164.943 49.1867L165.003 49.4027L159.294 50.9701C 159.493 51.6564 159.802 52.1358 160.22 52.4083C 160.648 52.6779 161.155 52.7323 161.741 52.5713C 162.513 52.3595 162.947 51.8255 163.043 50.9693L163.043 50.9693L165.142 50.3932zM162.4 48.6241C 162.204 48.1136 161.917 47.7334 161.539 47.4833C 161.158 47.2229 160.71 47.1633 160.195 47.3045C 159.712 47.4373 159.355 47.7068 159.123 48.1133C 158.892 48.5197 158.822 49.0091 158.913 49.5815L158.913 49.5815L162.4 48.6241zM167.078 43.9549L167.349 44.9424C 167.705 43.9819 168.417 43.3548 169.487 43.0611C 170.557 42.7674 171.522 42.9173 172.381 43.5109C 173.241 44.1044 173.848 45.044 174.201 46.3298C 174.542 47.5744 174.499 48.6648 174.07 49.6011C 173.649 50.5242 172.919 51.1284 171.88 51.4137C 170.81 51.7074 169.884 51.5359 169.1 50.8992L169.1 50.8992L170.147 54.7101L167.971 55.3074L165.01 44.5225L167.078 43.9549zM169.43 44.9683C 168.833 45.1321 168.425 45.4766 168.204 46.0018C 167.993 46.5242 167.994 47.1711 168.206 47.9425C 168.418 48.714 168.752 49.2691 169.211 49.6079C 169.669 49.9468 170.196 50.0343 170.792 49.8705C 171.379 49.7095 171.777 49.3678 171.988 48.8454C 172.209 48.3202 172.216 47.6822 172.01 46.9313C 171.798 46.1599 171.462 45.5996 171.001 45.2505C 170.54 44.9014 170.016 44.8073 169.43 44.9683zM178.298 40.6255C 179.522 40.2894 180.61 40.4054 181.563 40.9736C 182.525 41.5388 183.18 42.4541 183.528 43.7193C 183.878 44.9947 183.783 46.1213 183.244 47.0989C 182.715 48.0737 181.829 48.7319 180.584 49.0736C 179.34 49.4153 178.236 49.3036 177.273 48.7383C 176.311 48.173 175.654 47.2526 175.304 45.9771C 174.957 44.7119 175.058 43.5891 175.607 42.6087C 176.156 41.6283 177.053 40.9672 178.298 40.6255zM178.694 42.3088C 178.107 42.4697 177.707 42.8231 177.491 43.3689C 177.276 43.9147 177.277 44.5836 177.495 45.3756C 177.718 46.1882 178.061 46.7742 178.525 47.1336C 178.989 47.493 179.524 47.5893 180.131 47.4227C 180.738 47.2561 181.144 46.9013 181.349 46.3584C 181.561 45.8023 181.556 45.118 181.332 44.3054C 181.115 43.5133 180.771 42.9442 180.3 42.5979C 179.836 42.2385 179.301 42.1421 178.694 42.3088zM189.005 37.7853L189.56 39.8065C 189.235 39.8295 188.943 39.8763 188.686 39.9469C 187.966 40.1446 187.5 40.5214 187.288 41.0775C 187.072 41.6233 187.071 42.2819 187.283 43.0534L187.283 43.0534L188.282 46.6946L186.091 47.2961L183.906 39.3348L185.988 38.7629L186.391 40.2286C 186.613 38.984 187.321 38.1979 188.514 37.8703C 188.617 37.8421 188.781 37.8137 189.005 37.7853zM194.253 36.4937L194.66 37.9749L193.04 38.4197L194.069 42.169C 194.134 42.4055 194.187 42.579 194.229 42.6893C 194.267 42.7893 194.333 42.8875 194.426 42.9837C 194.519 43.0799 194.632 43.1316 194.767 43.1389C 194.909 43.133 195.099 43.0976 195.335 43.0326C 195.603 42.9592 195.821 42.8882 195.99 42.8196L195.99 42.8196L196.448 44.486C 195.924 44.674 195.487 44.816 195.138 44.912C 194.181 45.1746 193.483 45.1894 193.043 44.9562C 192.61 44.71 192.262 44.1086 192 43.152L192 43.152L190.864 39.017L189.538 39.3813L189.131 37.9001L190.458 37.5358L189.797 35.1289L191.972 34.5316L192.633 36.9385L194.253 36.4937z" stroke="none" fill="#282828" fill-rule="nonzero" />
    <path d="M113.479 84.8942L113.783 86.0013L110.557 86.8872L112.892 95.3924L111.623 95.7408L109.287 87.2356L106.061 88.1214L105.757 87.0144L113.479 84.8942zM114.625 88.2817C 115.055 87.4476 115.796 86.886 116.849 86.5969C 117.902 86.3078 118.808 86.4024 119.569 86.8808C 120.329 87.3592 120.868 88.1745 121.184 89.3265C 121.508 90.5055 121.467 91.5039 121.063 92.3215C 120.658 93.1391 119.925 93.6938 118.863 93.9853C 117.801 94.2769 116.879 94.1815 116.098 93.699C 115.317 93.2166 114.769 92.3993 114.452 91.2473C 114.139 90.1043 114.196 89.1157 114.625 88.2817zM118.882 87.868C 118.359 87.4792 117.76 87.3775 117.085 87.5628C 116.41 87.7482 115.942 88.1427 115.682 88.7465C 115.422 89.3502 115.406 90.0661 115.633 90.8941C 115.868 91.7491 116.245 92.3665 116.766 92.7463C 117.293 93.1146 117.907 93.2023 118.609 93.0096C 119.284 92.8243 119.744 92.4367 119.989 91.8469C 120.242 91.2546 120.252 90.531 120.017 89.676C 119.79 88.8479 119.411 88.2453 118.882 87.868zM127.427 81.0649L130.066 90.6772L128.986 90.9738L128.704 89.9477C 128.485 90.8788 127.832 91.4939 126.742 91.7929C 125.752 92.0647 124.875 91.9524 124.109 91.456C 123.35 90.9481 122.815 90.1272 122.504 88.9931C 122.215 87.9401 122.245 86.9929 122.595 86.1517C 122.951 85.2989 123.642 84.7317 124.668 84.45C 125.667 84.1757 126.532 84.3449 127.261 84.9576L127.261 84.9576L126.279 81.38L127.427 81.0649zM125.087 85.3947C 124.43 85.5751 123.974 85.957 123.718 86.5402C 123.471 87.121 123.46 87.8209 123.685 88.64C 123.917 89.486 124.296 90.1079 124.821 90.5056C 125.353 90.8919 125.947 90.9949 126.605 90.8145C 127.271 90.6316 127.727 90.2498 127.974 89.669C 128.219 89.0792 128.224 88.3568 127.989 87.5018C 127.779 86.7367 127.423 86.1471 126.922 85.733C 126.428 85.3073 125.816 85.1946 125.087 85.3947zM137.978 87.5175L138.223 88.4086C 138.014 88.5628 137.765 88.6795 137.477 88.7586C 136.82 88.9389 136.389 88.6896 136.183 88.0105C 135.728 88.9289 134.988 89.529 133.962 89.8107C 133.278 89.9985 132.685 89.9725 132.184 89.7327C 131.692 89.4904 131.361 89.0632 131.193 88.4512C 130.852 87.2092 131.477 86.2586 133.067 85.5993C 133.17 85.5517 133.323 85.4904 133.525 85.4156C 134.283 85.1106 134.736 84.8749 134.884 84.7085C 135.052 84.5077 135.087 84.2317 134.991 83.8807C 134.781 83.1157 134.149 82.8777 133.096 83.1669C 132.556 83.3151 132.178 83.5401 131.96 83.8417C 131.741 84.1343 131.673 84.54 131.757 85.0588L131.757 85.0588L130.637 85.3665C 130.45 84.6145 130.556 83.9611 130.955 83.4063C 131.355 82.8514 132.004 82.4504 132.904 82.2033C 133.885 81.934 134.676 81.9588 135.277 82.2778C 135.469 82.3798 135.634 82.538 135.77 82.7522C 135.906 82.9664 136 83.1488 136.051 83.2994C 136.099 83.4409 136.164 83.6602 136.246 83.9572C 136.34 84.2992 136.473 84.8192 136.645 85.5171C 136.817 86.2151 136.95 86.7351 137.044 87.0771C 137.114 87.3291 137.194 87.5005 137.287 87.5912C 137.386 87.6704 137.526 87.6853 137.706 87.6359C 137.778 87.6161 137.869 87.5767 137.978 87.5175zM135.387 85.3253C 135.324 85.4105 135.253 85.488 135.175 85.5577C 135.098 85.6274 134.991 85.6955 134.854 85.7621C 134.726 85.8261 134.638 85.8746 134.589 85.9074C 134.547 85.9288 134.434 85.9789 134.253 86.0578C 134.069 86.1277 133.972 86.1639 133.963 86.1663C 133.694 86.2789 133.517 86.3566 133.432 86.3993C 133.353 86.4305 133.201 86.511 132.976 86.6407C 132.759 86.768 132.612 86.8857 132.535 86.9939C 132.459 87.1021 132.393 87.2508 132.339 87.44C 132.291 87.6177 132.296 87.8145 132.355 88.0305C 132.454 88.3905 132.654 88.6407 132.954 88.781C 133.262 88.9188 133.633 88.9284 134.065 88.8098C 134.614 88.6591 135.06 88.3624 135.403 87.9198C 135.746 87.4771 135.857 87.0353 135.736 86.5943L135.736 86.5943L135.387 85.3253zM143.434 79.5156L142.608 88.192C 142.577 88.5391 142.54 88.8105 142.497 89.0063C 142.466 89.2085 142.397 89.4354 142.292 89.6868C 142.198 89.9449 142.051 90.1498 141.851 90.3015C 141.662 90.4598 141.419 90.5798 141.122 90.6613C 140.897 90.7231 140.603 90.7604 140.238 90.7733L140.238 90.7733L139.957 89.7473C 140.317 89.7549 140.578 89.7364 140.74 89.6919C 141.118 89.5882 141.335 89.3205 141.391 88.889L141.391 88.889L141.582 87.4717L136.913 81.3059L138.209 80.95L141.798 85.9316L142.232 79.8455L143.434 79.5156zM146.944 84.4318L147.196 85.3498C 147.29 85.6918 147.351 85.9848 147.379 86.2287C 147.419 86.4791 147.422 86.7394 147.39 87.0096C 147.358 87.2798 147.26 87.5243 147.098 87.7431C 146.938 87.971 146.707 88.1699 146.405 88.3398L146.405 88.3398L146.22 87.6648C 146.661 87.3694 146.788 86.8604 146.599 86.1379L146.599 86.1379L145.857 86.3418L145.445 84.8432L146.944 84.4318zM157.015 73.1735L157.286 74.159C 155.853 77.1174 155.403 80.2558 155.937 83.5743L155.937 83.5743L154.668 83.9227C 154.37 82.417 154.356 80.8482 154.624 79.2163C 154.901 77.5819 155.407 76.0396 156.141 74.5895L156.141 74.5895L151.132 75.9646L150.832 74.8711L157.015 73.1735zM162.77 80.0865L163.182 81.5851L161.683 81.9965L161.272 80.498L162.77 80.0865zM161.269 74.6189L161.681 76.1174L160.182 76.5288L159.771 75.0303L161.269 74.6189zM163.436 74.5612C 163.191 73.5637 163.255 72.7234 163.629 72.04C 164.012 71.3542 164.676 70.8816 165.621 70.6221C 166.467 70.3898 167.209 70.4328 167.848 70.7509C 168.487 71.0691 168.909 71.6017 169.115 72.3487C 169.238 72.7987 169.232 73.2359 169.097 73.6601C 168.969 74.0729 168.721 74.4216 168.354 74.7063C 168.928 74.6841 169.43 74.8367 169.859 75.1642C 170.287 75.4917 170.582 75.948 170.742 76.533C 170.994 77.4126 170.884 78.2121 170.414 78.9316C 169.95 79.6397 169.228 80.1284 168.247 80.3977C 167.275 80.6646 166.423 80.6129 165.692 80.2425C 164.968 79.8606 164.481 79.2151 164.232 78.3061L164.232 78.3061L164.183 78.1306L165.317 77.8193C 165.532 78.4959 165.87 78.9692 166.332 79.2394C 166.793 79.5096 167.343 79.5569 167.982 79.3815C 168.594 79.2135 169.042 78.9066 169.326 78.4608C 169.617 78.0035 169.687 77.5004 169.536 76.9513C 169.383 76.3933 169.067 76.0009 168.589 75.7742C 168.119 75.545 167.561 75.5193 166.913 75.6972C 166.751 75.7417 166.548 75.8165 166.306 75.9217L166.306 75.9217L166.039 74.9497C 166.168 74.9241 166.3 74.8928 166.435 74.8557C 167.029 74.6926 167.458 74.4246 167.724 74.0517C 167.996 73.6673 168.065 73.2321 167.932 72.7461C 167.803 72.2781 167.546 71.9421 167.161 71.7381C 166.785 71.5316 166.345 71.4976 165.841 71.636C 165.265 71.7941 164.866 72.1022 164.643 72.5601C 164.418 73.0091 164.389 73.5736 164.556 74.2535L164.556 74.2535L163.436 74.5612zM173.473 68.4661C 174.05 68.308 174.57 68.2813 175.034 68.3861C 175.505 68.4794 175.89 68.6495 176.19 68.8962C 176.49 69.1429 176.771 69.4964 177.033 69.9569C 177.293 70.4083 177.49 70.8283 177.626 71.2169C 177.759 71.5965 177.901 72.0608 178.052 72.6098C 178.19 73.1138 178.293 73.5745 178.359 73.9919C 178.434 74.4068 178.465 74.8533 178.451 75.3314C 178.446 75.807 178.372 76.2242 178.228 76.5829C 178.082 76.9327 177.842 77.2553 177.507 77.5505C 177.171 77.8458 176.738 78.0663 176.207 78.2121C 175.649 78.3653 175.137 78.4042 174.671 78.3289C 174.212 78.2421 173.83 78.0856 173.526 77.8593C 173.222 77.6331 172.942 77.318 172.686 76.9141C 172.436 76.4986 172.239 76.0979 172.095 75.7117C 171.947 75.3166 171.802 74.858 171.659 74.336C 171.535 73.886 171.437 73.492 171.363 73.1541C 171.299 72.8137 171.241 72.4278 171.191 71.9965C 171.147 71.5537 171.157 71.1685 171.222 70.841C 171.284 70.5044 171.392 70.1748 171.546 69.852C 171.699 69.5292 171.937 69.2509 172.26 69.017C 172.592 68.7807 172.996 68.5971 173.473 68.4661zM174.542 69.4503C 174.297 69.4016 174.034 69.4155 173.755 69.4922C 173.476 69.5688 173.243 69.6907 173.057 69.858C 172.868 70.0163 172.725 70.1815 172.627 70.3536C 172.529 70.5257 172.468 70.7603 172.443 71.0575C 172.415 71.3457 172.404 71.5859 172.408 71.7783C 172.422 71.9682 172.462 72.2378 172.529 72.5873C 172.593 72.9277 172.645 73.1699 172.685 73.3139C 172.722 73.4489 172.785 73.6784 172.874 74.0024C 172.96 74.3174 173.037 74.5772 173.102 74.7818C 173.168 74.9863 173.265 75.2501 173.392 75.5732C 173.52 75.8964 173.659 76.1581 173.811 76.3584C 173.96 76.5497 174.133 76.7393 174.33 76.9272C 174.525 77.1062 174.755 77.222 175.021 77.2748C 175.294 77.3161 175.587 77.2935 175.902 77.207C 176.172 77.1328 176.397 77.0179 176.577 76.862C 176.766 76.7037 176.909 76.5385 177.007 76.3665C 177.105 76.1944 177.166 75.9745 177.189 75.7068C 177.219 75.4276 177.232 75.1918 177.227 74.9994C 177.22 74.7981 177.184 74.5419 177.118 74.231C 177.058 73.9086 177.009 73.6753 176.969 73.5313C 176.936 73.3759 176.88 73.1541 176.801 72.8661C 176.715 72.5511 176.653 72.3261 176.616 72.1911C 176.579 72.0561 176.501 71.8258 176.383 71.5002C 176.264 71.1746 176.158 70.928 176.063 70.7603C 175.978 70.5902 175.85 70.3882 175.679 70.1544C 175.509 69.9206 175.337 69.7547 175.165 69.6567C 174.993 69.5588 174.785 69.49 174.542 69.4503z" stroke="none" fill="#B9C3C8" fill-rule="nonzero" />
    <path d="M189.331 77.5168C 185.662 71.6868 189.089 68.2495 189.089 68.2495C 189.736 71.7203 192.383 73.8359 192.383 73.8359C 193.031 73.4279 194.106 72.0576 194.106 72.0576C 194.439 73.2714 194.453 76.109 194.453 76.109C 194.453 76.109 196.414 73.4918 196.317 70.0658C 196.219 66.64 193.058 64.0415 193.058 64.0415C 193.819 66.2763 193.667 68.7217 192.634 70.8414C 192.685 70.7338 192.722 70.6199 192.742 70.5019C 192.863 69.8867 192.91 68.3612 191.762 65.1736C 190.149 60.6994 185.491 59.9052 185.491 59.9052C 186.611 62.5933 185.72 63.5281 184.672 69.5024C 183.624 75.4756 189.331 77.5168 189.331 77.5168z" stroke="none" fill="#FF851C" fill-rule="nonzero" />
    <path d="M64.7063 149.065L137.512 129.076C 144.169 127.249 151.048 131.164 152.875 137.821C 154.703 144.478 150.788 151.356 144.131 153.184L144.131 153.184L71.3252 173.173L64.7063 149.065z" stroke="none" fill="#D3F6CE" fill-rule="nonzero" />
    <path d="M87.2679 151.341L88.2969 151.059L91.5253 156.96L91.5003 150.179L92.5929 149.879L96.0123 155.728L95.8282 148.991L96.8253 148.717L96.8834 156.823L95.8333 157.111L92.3579 151.267L92.3328 158.072L91.2827 158.361L87.2679 151.341zM101.122 147.343C 102.268 147.029 103.258 147.145 104.093 147.692C 104.925 148.231 105.501 149.081 105.819 150.24C 106.139 151.407 106.089 152.455 105.667 153.385C 105.246 154.314 104.458 154.937 103.306 155.254C 102.719 155.415 102.163 155.453 101.638 155.369C 101.113 155.285 100.65 155.097 100.25 154.804C 99.8576 154.508 99.5174 154.142 99.2298 153.704C 98.9493 153.263 98.7323 152.764 98.579 152.205C 98.2547 151.024 98.3218 149.995 98.7802 149.116C 99.2456 148.235 100.026 147.644 101.122 147.343zM101.361 148.213C 100.52 148.444 99.9543 148.919 99.6648 149.637C 99.3804 150.347 99.3576 151.136 99.5964 152.006C 99.8566 152.953 100.301 153.645 100.93 154.081C 101.565 154.507 102.281 154.611 103.08 154.392C 103.872 154.174 104.428 153.718 104.746 153.022C 105.065 152.326 105.095 151.508 104.837 150.567C 104.58 149.634 104.135 148.954 103.501 148.527C 102.874 148.098 102.16 147.994 101.361 148.213zM106.261 146.127L109.581 145.215C 111.271 144.751 112.308 145.216 112.69 146.609C 112.811 147.047 112.797 147.469 112.65 147.874C 112.508 148.271 112.258 148.579 111.9 148.799C 112.17 148.786 112.397 148.811 112.582 148.874C 112.767 148.937 112.921 149.055 113.044 149.226C 113.167 149.398 113.26 149.555 113.322 149.698C 113.384 149.84 113.461 150.055 113.555 150.341C 113.563 150.369 113.586 150.439 113.624 150.55C 113.66 150.654 113.684 150.727 113.696 150.77C 113.705 150.805 113.727 150.871 113.762 150.969C 113.803 151.064 113.834 151.135 113.855 151.183C 113.875 151.23 113.904 151.294 113.942 151.375C 113.979 151.456 114.016 151.522 114.053 151.573C 114.088 151.617 114.129 151.67 114.177 151.733C 114.223 151.789 114.271 151.84 114.322 151.887C 114.371 151.927 114.422 151.962 114.476 151.993L114.476 151.993L113.331 152.307C 113.262 152.25 113.195 152.173 113.131 152.077C 113.073 151.979 113.018 151.861 112.965 151.723C 112.91 151.579 112.868 151.465 112.837 151.382C 112.805 151.292 112.762 151.163 112.708 150.995C 112.655 150.828 112.625 150.733 112.619 150.712C 112.407 150.078 112.155 149.687 111.864 149.539C 111.579 149.389 111.097 149.407 110.418 149.594L110.418 149.594L108.435 150.138L109.332 153.405L108.335 153.679L106.261 146.127zM107.491 146.701L108.216 149.343L110.094 148.827C 110.327 148.763 110.52 148.703 110.671 148.646C 110.83 148.587 110.998 148.507 111.176 148.405C 111.353 148.303 111.486 148.19 111.574 148.067C 111.668 147.942 111.732 147.784 111.763 147.593C 111.794 147.402 111.777 147.186 111.711 146.946C 111.571 146.437 111.321 146.137 110.961 146.045C 110.607 145.945 110.164 145.967 109.634 146.113L109.634 146.113L107.491 146.701zM119.866 142.391L117.517 146.299L122.067 149.909L120.794 150.258L117.003 147.17L116.077 148.702L116.805 151.353L115.808 151.627L113.735 144.075L114.732 143.801L115.76 147.545L118.561 142.75L119.866 142.391z" stroke="none" fill="#282828" fill-rule="nonzero" />
	<g>
        <path transform="matrix(0.9643152 -0.2647568 0.2647568 0.9643152 24.809967 63.74682)"  d="M248.884 -50.1631C 248.884 -55.685947 253.36116 -60.1631 258.884 -60.1631L258.884 -60.1631L443.884 -60.1631C 449.40686 -60.1631 453.884 -55.685947 453.884 -50.1631L453.884 -50.1631L453.884 128.8369C 453.884 134.35974 449.40686 138.8369 443.884 138.8369L443.884 138.8369L258.884 138.8369C 253.36116 138.8369 248.884 134.35974 248.884 128.8369L248.884 128.8369L248.884 -50.1631z" stroke="none" fill="#FFFFFF" fill-rule="nonzero" />
	</g>
    <path d="M293.305 6.04673L298.505 4.61916C 299.533 4.33675 300.435 4.33803 301.21 4.62298C 301.993 4.89483 302.511 5.49362 302.765 6.41936C 302.907 6.93367 302.899 7.42811 302.741 7.90269C 302.581 8.36698 302.298 8.76553 301.891 9.09834C 303.333 9.11179 304.247 9.82311 304.634 11.2323C 304.92 12.2712 304.792 13.1747 304.25 13.9427C 303.706 14.7005 302.894 15.2276 301.814 15.5242L301.814 15.5242L296.321 17.0322L293.305 6.04673zM296.163 7.26976L296.87 9.84641L299.061 9.24488C 300.275 8.91164 300.765 8.31815 300.53 7.46441C 300.392 6.96039 300.134 6.66614 299.757 6.58165C 299.377 6.48687 298.909 6.51573 298.354 6.66823L298.354 6.66823L296.163 7.26976zM297.319 11.4819L298.141 14.4751L300.564 13.8101C 301.191 13.6378 301.656 13.3994 301.96 13.0948C 302.274 12.7874 302.35 12.3406 302.189 11.7543C 302.025 11.1577 301.721 10.8153 301.277 10.7272C 300.84 10.626 300.287 10.6671 299.618 10.8507L299.618 10.8507L297.319 11.4819zM312.251 4.0972L314.436 12.0586L312.354 12.6305L312.044 11.5041C 311.676 12.5788 310.936 13.2686 309.825 13.5736C 308.951 13.8136 308.202 13.7648 307.578 13.4272C 306.962 13.0765 306.525 12.4331 306.268 11.4971L306.268 11.4971L304.798 6.14324L307.005 5.53748L308.254 10.089C 308.336 10.3873 308.413 10.6262 308.484 10.8057C 308.563 10.9721 308.669 11.1366 308.802 11.2992C 308.936 11.4617 309.107 11.5639 309.318 11.6056C 309.536 11.6342 309.794 11.6076 310.092 11.5257C 311.244 11.2094 311.614 10.3004 311.202 8.79862L311.202 8.79862L310.075 4.69449L312.251 4.0972zM321.165 1.64969L320.411 10.3851C 320.377 10.8258 320.345 11.1331 320.316 11.3072C 320.299 11.4887 320.258 11.7433 320.194 12.0708C 320.139 12.3955 320.065 12.6314 319.973 12.7784C 319.891 12.9227 319.767 13.095 319.601 13.2955C 319.445 13.4932 319.245 13.653 319.002 13.775C 318.769 13.8942 318.489 13.999 318.159 14.0894C 317.892 14.1628 317.402 14.2918 316.689 14.4764L316.689 14.4764L316.194 12.6712L317.258 12.3789C 317.618 12.2801 317.866 12.1127 318 11.8767C 318.144 11.6379 318.17 11.3487 318.077 11.0093C 318.054 10.927 318.006 10.8298 317.931 10.7177L317.931 10.7177L312.957 3.9033L315.318 3.25518L318.625 8.17091L318.897 2.2724L321.165 1.64969zM330.606 -0.942275L331.012 0.538913L329.392 0.983705L330.422 4.73296C 330.487 4.96954 330.54 5.14299 330.581 5.25331C 330.62 5.35335 330.685 5.45147 330.778 5.54767C 330.871 5.64387 330.985 5.6956 331.119 5.70286C 331.262 5.697 331.451 5.6616 331.688 5.59664C 331.955 5.52322 332.173 5.45221 332.343 5.38363L332.343 5.38363L332.8 7.04997C 332.277 7.23797 331.84 7.37997 331.49 7.47599C 330.534 7.73863 329.835 7.75338 329.395 7.52025C 328.962 7.274 328.615 6.67258 328.352 5.71598L328.352 5.71598L327.217 1.581L325.89 1.9453L325.483 0.464112L326.81 0.0998071L326.149 -2.30712L328.325 -2.90441L328.986 -0.497484L330.606 -0.942275zM332.993 -4.84986L334.116 -0.761164C 334.512 -1.77689 335.234 -2.42878 336.284 -2.71683C 338.145 -3.22799 339.346 -2.50125 339.885 -0.536619L339.885 -0.536619L341.317 4.6784L339.126 5.27993L337.838 0.589496C 337.689 0.0443364 337.477 -0.345419 337.202 -0.579771C 336.928 -0.814122 336.518 -0.85646 335.973 -0.706784C 335.314 -0.526044 334.92 -0.190921 334.789 0.298584C 334.668 0.785265 334.703 1.37833 334.895 2.07778L334.895 2.07778L336.01 6.13562L333.849 6.72867L330.833 -4.25681L332.993 -4.84986zM349.785 -0.3013C 349.773 0.620218 349.497 1.40934 348.959 2.06606C 348.43 2.71996 347.708 3.17258 346.793 3.42392C 345.569 3.75998 344.477 3.65051 343.517 3.0955C 342.567 2.53767 341.92 1.63131 341.576 0.37641C 341.237 -0.857913 341.333 -1.97931 341.863 -2.98778C 342.394 -3.99624 343.24 -4.66004 344.403 -4.97916C 345.606 -5.30957 346.676 -5.16077 347.611 -4.53275C 348.544 -3.91501 349.203 -2.9067 349.587 -1.5078L349.587 -1.5078L349.646 -1.29179L343.937 0.27557C 344.137 0.96191 344.445 1.44131 344.863 1.71378C 345.291 1.98342 345.798 2.03775 346.385 1.87678C 347.156 1.66497 347.59 1.13098 347.687 0.27481L347.687 0.27481L349.785 -0.3013zM347.043 -2.0704C 346.848 -2.58087 346.561 -2.96114 346.182 -3.21122C 345.801 -3.47159 345.353 -3.53117 344.839 -3.38997C 344.356 -3.25723 343.998 -2.98766 343.767 -2.58125C 343.536 -2.17484 343.465 -1.68543 343.556 -1.11304L343.556 -1.11304L347.043 -2.0704zM361.585 -9.44785L363.542 -2.31963C 363.901 -1.0133 363.84 0.0322562 363.358 0.817048C 362.88 1.61213 361.982 2.19041 360.666 2.55189C 358.392 3.17601 356.92 2.68969 356.25 1.09295L356.25 1.09295L358.425 0.495658C 358.606 0.833076 358.847 1.04363 359.146 1.12732C 359.449 1.22129 359.836 1.20333 360.309 1.07342C 360.999 0.884207 361.415 0.587404 361.558 0.183012C 361.704 -0.211095 361.685 -0.764428 361.501 -1.47699L361.501 -1.47699L361.27 -2.37611C 360.9 -1.38943 360.2 -0.754888 359.172 -0.472481C 358.133 -0.187249 357.207 -0.31478 356.395 -0.855071C 355.593 -1.39819 355.029 -2.26634 354.701 -3.45951C 354.368 -4.67327 354.42 -5.73284 354.857 -6.63824C 355.292 -7.55393 356.033 -8.1558 357.083 -8.44386C 357.638 -8.59636 358.124 -8.61917 358.54 -8.51229C 358.964 -8.41852 359.388 -8.18629 359.81 -7.8156L359.81 -7.8156L359.518 -8.88021L361.585 -9.44785zM359.581 -6.6575C 359.141 -6.96828 358.634 -7.0446 358.058 -6.88645C 357.482 -6.7283 357.086 -6.39832 356.869 -5.89651C 356.661 -5.40781 356.657 -4.79831 356.857 -4.068C 357.049 -3.36855 357.368 -2.85314 357.812 -2.52179C 358.265 -2.20354 358.774 -2.12208 359.34 -2.2774C 359.905 -2.43273 360.295 -2.76644 360.508 -3.27854C 360.722 -3.79063 360.73 -4.40669 360.532 -5.12671C 360.337 -5.83645 360.02 -6.34671 359.581 -6.6575zM364.803 -13.5832L365.311 -11.7317L363.12 -11.1302L362.612 -12.9817L364.803 -13.5832zM365.633 -10.5591L367.819 -2.59771L365.628 -1.99618L363.442 -9.95757L365.633 -10.5591zM370.863 -15.2472L371.304 -13.6426C 370.846 -13.5389 370.601 -13.4828 370.57 -13.4743C 370.179 -13.367 369.933 -13.2384 369.83 -13.0886C 369.735 -12.9518 369.732 -12.7189 369.823 -12.3897L369.823 -12.3897L369.996 -11.7571L371.555 -12.185L371.961 -10.7038L370.418 -10.2802L372.198 -3.79997L370.007 -3.19844L368.228 -9.67864L366.932 -9.32281L366.525 -10.804L367.821 -11.1598L367.707 -11.5764C 367.45 -12.5124 367.475 -13.2441 367.784 -13.7713C 368.09 -14.3088 368.732 -14.7117 369.709 -14.98C 369.822 -15.0111 369.942 -15.0384 370.068 -15.062C 370.202 -15.0987 370.347 -15.1331 370.504 -15.1652C 370.661 -15.1973 370.781 -15.2246 370.863 -15.2472zM376.878 -13.6465L377.285 -12.1653L375.664 -11.7205L376.694 -7.97122C 376.759 -7.73464 376.812 -7.56119 376.853 -7.45087C 376.892 -7.35083 376.957 -7.25271 377.05 -7.15651C 377.143 -7.06031 377.257 -7.00858 377.392 -7.00133C 377.534 -7.00718 377.723 -7.04258 377.96 -7.10754C 378.227 -7.18096 378.445 -7.25197 378.615 -7.32055L378.615 -7.32055L379.072 -5.65421C 378.549 -5.46622 378.112 -5.32421 377.762 -5.22819C 376.806 -4.96555 376.107 -4.9508 375.667 -5.18393C 375.235 -5.43018 374.887 -6.0316 374.624 -6.9882L374.624 -6.9882L373.489 -11.1232L372.162 -10.7589L371.755 -12.2401L373.082 -12.6044L372.421 -15.0113L374.597 -15.6086L375.258 -13.2017L376.878 -13.6465zM385.72 -19.3261L386.16 -17.7215C 385.702 -17.6178 385.458 -17.5617 385.427 -17.5532C 385.036 -17.4459 384.789 -17.3173 384.686 -17.1675C 384.591 -17.0307 384.589 -16.7978 384.679 -16.4686L384.679 -16.4686L384.853 -15.836L386.411 -16.2639L386.818 -14.7827L385.275 -14.3591L387.054 -7.87888L384.863 -7.27735L383.084 -13.7575L381.788 -13.4017L381.381 -14.8829L382.677 -15.2387L382.563 -15.6553C 382.306 -16.5913 382.332 -17.323 382.641 -17.8502C 382.947 -18.3877 383.588 -18.7906 384.565 -19.0589C 384.678 -19.09 384.798 -19.1173 384.924 -19.1409C 385.058 -19.1776 385.204 -19.212 385.361 -19.2441C 385.518 -19.2762 385.638 -19.3035 385.72 -19.3261zM391.208 -17.8297C 392.432 -18.1658 393.52 -18.0498 394.473 -17.4816C 395.435 -16.9163 396.09 -16.0011 396.438 -14.7359C 396.788 -13.4605 396.693 -12.3339 396.154 -11.3563C 395.626 -10.3815 394.739 -9.72327 393.494 -9.38156C 392.25 -9.03984 391.146 -9.15164 390.183 -9.71693C 389.221 -10.2822 388.564 -11.2026 388.214 -12.4781C 387.867 -13.7433 387.968 -14.8661 388.517 -15.8465C 389.066 -16.8269 389.963 -17.488 391.208 -17.8297zM391.604 -16.1464C 391.017 -15.9855 390.617 -15.6321 390.401 -15.0863C 390.186 -14.5405 390.187 -13.8716 390.405 -13.0796C 390.628 -12.267 390.971 -11.681 391.435 -11.3216C 391.899 -10.9622 392.434 -10.8658 393.041 -11.0325C 393.648 -11.1991 394.054 -11.5539 394.259 -12.0968C 394.471 -12.6529 394.466 -13.3372 394.243 -14.1498C 394.025 -14.9418 393.681 -15.511 393.21 -15.8573C 392.746 -16.2167 392.211 -16.3131 391.604 -16.1464zM401.915 -20.6699L402.47 -18.6487C 402.145 -18.6257 401.853 -18.5789 401.596 -18.5083C 400.876 -18.3106 400.41 -17.9337 400.198 -17.3777C 399.982 -16.8319 399.981 -16.1733 400.193 -15.4018L400.193 -15.4018L401.192 -11.7606L399.001 -11.159L396.816 -19.1204L398.898 -19.6923L399.301 -18.2265C 399.523 -19.4712 400.231 -20.2573 401.424 -20.5849C 401.527 -20.6131 401.691 -20.6415 401.915 -20.6699zM409.493 -14.0396L406.477 -25.025L409.918 -25.9697L414.55 -19.1281L414.978 -27.3591L418.342 -28.2826L421.358 -17.2971L419.09 -16.6744L416.946 -24.4815L416.39 -15.9331L414.523 -15.4205L409.67 -22.4007L411.792 -14.6707L409.493 -14.0396zM430.665 -19.8525L428.443 -19.2425C 428.315 -19.4284 428.193 -19.6714 428.077 -19.9716C 427.592 -19.1194 426.825 -18.5493 425.776 -18.2612C 424.891 -18.0184 424.139 -18.0386 423.519 -18.322C 422.897 -18.6156 422.482 -19.1378 422.276 -19.8887C 422.183 -20.2282 422.142 -20.5378 422.154 -20.8175C 422.176 -21.1001 422.261 -21.3556 422.408 -21.5841C 422.566 -21.8155 422.717 -22.0117 422.86 -22.1729C 423.014 -22.3369 423.241 -22.4986 423.54 -22.6582C 423.839 -22.8177 424.082 -22.9398 424.269 -23.0243C 424.453 -23.1191 424.715 -23.235 425.053 -23.3722C 425.796 -23.6869 426.281 -23.9361 426.507 -24.1198C 426.743 -24.3064 426.819 -24.554 426.734 -24.8626C 426.54 -25.5723 425.964 -25.7958 425.007 -25.5332C 424.503 -25.3948 424.158 -25.2006 423.973 -24.9505C 423.784 -24.7107 423.716 -24.3546 423.768 -23.8822L423.768 -23.8822L421.716 -23.3188C 421.348 -25.1425 422.332 -26.3748 424.667 -27.0159C 426.981 -27.6513 428.375 -27.105 428.85 -25.377L428.85 -25.377L429.794 -21.9363C 430.071 -20.9282 430.361 -20.2336 430.665 -19.8525zM427.21 -23.0686C 426.996 -22.8437 426.519 -22.5636 425.782 -22.2284C 425.162 -21.9476 424.776 -21.7032 424.623 -21.4953C 424.45 -21.2377 424.41 -20.9392 424.503 -20.5998C 424.594 -20.2706 424.769 -20.0366 425.028 -19.8976C 425.295 -19.7718 425.619 -19.7611 425.999 -19.8656C 426.585 -20.0266 427.011 -20.3093 427.276 -20.7139C 427.549 -21.1316 427.609 -21.6182 427.456 -22.1737L427.456 -22.1737L427.21 -23.0686zM435.064 -29.7709L435.619 -27.7497C 435.293 -27.7267 435.002 -27.6799 434.745 -27.6093C 434.025 -27.4116 433.558 -27.0348 433.346 -26.4787C 433.131 -25.9329 433.129 -25.2743 433.341 -24.5028L433.341 -24.5028L434.341 -20.8616L432.15 -20.2601L429.964 -28.2214L432.047 -28.7933L432.449 -27.3276C 432.672 -28.5722 433.379 -29.3583 434.573 -29.6859C 434.676 -29.7141 434.839 -29.7425 435.064 -29.7709zM443.166 -31.8462L442.412 -23.1108C 442.378 -22.6701 442.346 -22.3627 442.317 -22.1886C 442.3 -22.0071 442.259 -21.7526 442.194 -21.425C 442.14 -21.1003 442.066 -20.8644 441.974 -20.7174C 441.892 -20.5732 441.768 -20.4008 441.602 -20.2004C 441.446 -20.0027 441.246 -19.8429 441.003 -19.7208C 440.77 -19.6016 440.489 -19.4968 440.16 -19.4065C 439.893 -19.333 439.403 -19.204 438.69 -19.0195L438.69 -19.0195L438.195 -20.8247L439.259 -21.1169C 439.619 -21.2158 439.866 -21.3832 440.001 -21.6192C 440.145 -21.858 440.171 -22.1471 440.078 -22.4865C 440.055 -22.5688 440.007 -22.666 439.931 -22.7782L439.931 -22.7782L434.958 -29.5926L437.318 -30.2407L440.626 -25.3249L440.898 -31.2235L443.166 -31.8462z" stroke="none" fill="#282828" fill-rule="nonzero" />
    <path d="M289.392 87.3772L362.197 67.3881C 368.855 65.5603 375.733 69.4753 377.561 76.1326C 379.389 82.7898 375.474 89.6682 368.816 91.496L368.816 91.496L296.011 111.485L289.392 87.3772z" stroke="none" fill="#FFE6D3" fill-rule="nonzero" />
    <path d="M317.618 88.0978L317.856 88.9676L313.889 90.0568L314.536 92.4117L318.036 91.4506L318.266 92.2886L314.766 93.2497L315.724 96.7395L314.727 97.0133L312.653 89.4608L317.618 88.0978zM321.537 87.0216L326.56 93.7645L325.446 94.0703L323.973 91.9879L320.802 92.8587L320.577 95.407L319.517 95.6983L320.413 87.3303L321.537 87.0216zM323.458 91.2739L321.216 88.1364L320.87 91.9845L323.458 91.2739zM325.467 85.9428L326.846 85.5642L331.031 91.2935L331.619 84.2536L333.009 83.8721L335.082 91.4246L334.138 91.6838L332.408 85.383L331.773 92.3333L330.903 92.5721L326.765 86.9323L328.495 93.2332L327.54 93.4953L325.467 85.9428zM335.948 83.0651L338.022 90.6176L337.024 90.8914L334.951 83.3389L335.948 83.0651zM344.718 87.8438L344.957 88.7136L339.95 90.0882L337.876 82.5357L338.873 82.2619L340.708 88.9446L344.718 87.8438zM348.827 79.5292L347.136 84.7958L347.983 87.8826L346.997 88.1534L346.149 85.0667L341.985 81.4076L343.184 81.0785L346.43 84.0542L347.681 79.8437L348.827 79.5292z" stroke="none" fill="#282828" fill-rule="nonzero" />
	<g>
        <path transform="matrix(0.9643152 -0.2647568 0.2647568 0.9643152 -53.87567 29.557297)"  d="M82.7097 224.639C 82.7097 219.11617 87.18685 214.639 92.7097 214.639L92.7097 214.639L277.70972 214.639C 283.23254 214.639 287.70972 219.11617 287.70972 224.639L287.70972 224.639L287.70972 403.639C 287.70972 409.16187 283.23254 413.639 277.70972 413.639L277.70972 413.639L92.7097 413.639C 87.18685 413.639 82.7097 409.16187 82.7097 403.639L82.7097 403.639L82.7097 224.639z" stroke="none" fill="#FFFFFF" fill-rule="nonzero" />
	</g>
    <path d="M116.56 230.276C 116.737 231.254 116.609 232.091 116.177 232.788C 115.75 233.475 115.066 233.948 114.125 234.207C 113.051 234.502 112.101 234.382 111.278 233.848C 110.452 233.306 109.874 232.431 109.542 231.222C 109.231 230.09 109.287 229.063 109.711 228.141C 110.14 227.209 110.913 226.59 112.03 226.284C 112.829 226.064 113.592 226.087 114.319 226.351C 115.045 226.615 115.549 227.12 115.829 227.864L115.829 227.864L114.832 228.138C 114.583 227.674 114.23 227.357 113.772 227.186C 113.312 227.008 112.803 226.995 112.245 227.149C 111.403 227.38 110.848 227.851 110.58 228.564C 110.319 229.274 110.308 230.065 110.546 230.934C 110.81 231.896 111.245 232.591 111.849 233.018C 112.453 233.445 113.147 233.551 113.932 233.336C 114.576 233.159 115.038 232.834 115.319 232.362C 115.598 231.882 115.679 231.278 115.563 230.55L115.563 230.55L116.56 230.276zM119.661 224.177C 120.807 223.862 121.797 223.979 122.631 224.525C 123.464 225.065 124.039 225.914 124.358 227.074C 124.678 228.241 124.627 229.289 124.206 230.218C 123.784 231.148 122.997 231.771 121.844 232.087C 121.257 232.248 120.701 232.287 120.176 232.203C 119.651 232.119 119.189 231.93 118.789 231.637C 118.396 231.342 118.056 230.975 117.768 230.537C 117.488 230.097 117.271 229.598 117.118 229.039C 116.793 227.858 116.86 226.828 117.319 225.949C 117.784 225.069 118.565 224.478 119.661 224.177zM119.9 225.047C 119.058 225.278 118.493 225.753 118.203 226.471C 117.919 227.18 117.896 227.97 118.135 228.839C 118.395 229.787 118.84 230.479 119.469 230.914C 120.103 231.341 120.82 231.445 121.619 231.225C 122.411 231.008 122.966 230.551 123.285 229.855C 123.603 229.159 123.633 228.341 123.375 227.401C 123.119 226.467 122.674 225.787 122.039 225.361C 121.412 224.932 120.699 224.827 119.9 225.047zM124.598 223.015L125.977 222.637L130.162 228.366L130.751 221.326L132.14 220.945L134.214 228.497L133.27 228.757L131.54 222.456L130.904 229.406L130.034 229.645L125.897 224.005L127.626 230.306L126.672 230.568L124.598 223.015zM133.87 220.47L136.978 219.616C 137.749 219.405 138.409 219.414 138.959 219.643C 139.507 219.865 139.883 220.351 140.089 221.101C 140.507 222.621 139.856 223.617 138.138 224.089L138.138 224.089L136.09 224.651L136.941 227.749L135.944 228.022L133.87 220.47zM135.103 221.055L135.86 223.813L137.78 223.286C 138.318 223.139 138.708 222.925 138.95 222.645C 139.198 222.357 139.251 221.954 139.109 221.438C 139.03 221.148 138.914 220.921 138.763 220.758C 138.619 220.592 138.442 220.488 138.233 220.447C 138.024 220.406 137.816 220.398 137.61 220.424C 137.403 220.443 137.161 220.49 136.885 220.566L136.885 220.566L135.103 221.055zM147.558 223.898L147.797 224.768L142.79 226.143L140.717 218.59L141.714 218.316L143.548 224.999L147.558 223.898zM151.83 215.539L152.068 216.409L147.836 217.571L148.486 219.936L152.442 218.85L152.672 219.688L148.716 220.774L149.432 223.384L153.717 222.207L153.956 223.077L148.674 224.527L146.6 216.975L151.83 215.539zM158.325 213.756L158.564 214.625L156.028 215.322L157.863 222.004L156.866 222.278L155.031 215.595L152.496 216.291L152.257 215.421L158.325 213.756zM164.405 212.086L164.644 212.956L160.412 214.118L161.061 216.484L165.018 215.397L165.248 216.235L161.291 217.322L162.008 219.931L166.293 218.754L166.532 219.624L161.249 221.075L159.176 213.522L164.405 212.086zM165.66 211.742L168.121 211.066C 169.401 210.715 170.427 210.752 171.198 211.179C 171.969 211.606 172.532 212.464 172.885 213.751C 173.233 215.016 173.213 216.052 172.826 216.858C 172.437 217.657 171.62 218.227 170.375 218.569L170.375 218.569L167.734 219.294L165.66 211.742zM166.893 212.327L168.495 218.161L170.012 217.745C 170.96 217.485 171.583 217.066 171.881 216.49C 172.184 215.905 172.201 215.121 171.931 214.138C 171.647 213.106 171.232 212.41 170.684 212.051C 170.137 211.691 169.365 211.649 168.368 211.922L168.368 211.922L166.893 212.327zM176.099 215.731L176.423 216.909L175.245 217.232L174.922 216.055L176.099 215.731zM174.92 211.435L175.243 212.613L174.066 212.936L173.742 211.758L174.92 211.435z" stroke="none" fill="#000000" fill-rule="nonzero" />
    <path d="M183.231 206.918L184.334 206.615L188.314 212.595L188.704 205.415L189.754 205.127L189.133 213.419L187.988 213.734L183.231 206.918zM191.183 204.734L191.486 205.837L190.574 206.088L190.271 204.985L191.183 204.734zM191.754 206.813L193.257 212.287L192.345 212.537L190.842 207.064L191.754 206.813zM197.651 206.906L196.749 207.153C 196.51 206.504 195.973 206.294 195.139 206.523C 194.792 206.618 194.538 206.76 194.377 206.949C 194.216 207.137 194.167 207.345 194.229 207.571C 194.246 207.635 194.271 207.697 194.302 207.756C 194.332 207.809 194.371 207.855 194.42 207.895C 194.474 207.926 194.52 207.955 194.558 207.983C 194.603 208.008 194.666 208.029 194.747 208.045C 194.832 208.052 194.896 208.061 194.937 208.073C 194.985 208.082 195.063 208.088 195.169 208.089C 195.281 208.081 195.36 208.078 195.407 208.081C 195.451 208.076 195.537 208.071 195.665 208.067C 195.8 208.06 195.886 208.055 195.924 208.053C 196.201 208.037 196.408 208.03 196.545 208.03C 196.689 208.029 196.888 208.047 197.141 208.083C 197.4 208.111 197.604 208.162 197.753 208.235C 197.901 208.301 198.046 208.413 198.188 208.572C 198.335 208.721 198.44 208.909 198.502 209.136C 198.648 209.666 198.557 210.151 198.229 210.591C 197.906 211.022 197.402 211.331 196.716 211.52C 195.973 211.724 195.356 211.718 194.863 211.504C 194.378 211.287 194.037 210.875 193.84 210.268L193.84 210.268L194.731 210.023C 194.992 210.78 195.593 211.03 196.533 210.771C 196.936 210.661 197.236 210.491 197.432 210.262C 197.632 210.025 197.695 209.768 197.619 209.492C 197.569 209.308 197.463 209.174 197.303 209.088C 197.143 209.003 196.978 208.957 196.809 208.95C 196.638 208.937 196.398 208.934 196.088 208.943C 196.044 208.948 196.01 208.949 195.987 208.948C 195.919 208.951 195.774 208.961 195.55 208.977C 195.331 208.983 195.172 208.985 195.072 208.982C 194.973 208.979 194.827 208.974 194.634 208.966C 194.447 208.949 194.302 208.92 194.2 208.88C 194.096 208.832 193.977 208.774 193.844 208.704C 193.716 208.625 193.612 208.524 193.533 208.401C 193.451 208.271 193.386 208.118 193.338 207.941C 193.202 207.446 193.282 207.002 193.577 206.61C 193.879 206.215 194.348 205.93 194.985 205.755C 195.628 205.579 196.193 205.587 196.68 205.78C 197.174 205.972 197.497 206.347 197.651 206.906zM198.839 202.633L199.142 203.736L198.229 203.986L197.926 202.883L198.839 202.633zM199.409 204.712L200.912 210.185L200 210.436L198.497 204.962L199.409 204.712zM203.151 203.684L203.354 204.427L202.262 204.727L203.138 207.92C 203.187 208.097 203.219 208.213 203.235 208.27C 203.257 208.325 203.3 208.396 203.362 208.486C 203.423 208.568 203.499 208.612 203.592 208.617C 203.685 208.622 203.809 208.603 203.964 208.56C 204.099 208.523 204.258 208.468 204.444 208.394L204.444 208.394L204.656 209.169C 204.409 209.267 204.183 209.344 203.978 209.4C 203.724 209.47 203.504 209.5 203.319 209.49C 203.133 209.48 202.985 209.452 202.874 209.407C 202.769 209.36 202.672 209.253 202.581 209.088C 202.488 208.916 202.421 208.771 202.381 208.652C 202.339 208.527 202.279 208.319 202.199 208.029C 202.193 208.008 202.189 207.994 202.187 207.987C 202.183 207.973 202.179 207.955 202.173 207.934C 202.167 207.913 202.162 207.895 202.158 207.881L202.158 207.881L201.36 204.975L200.437 205.228L200.233 204.485L201.156 204.232L200.711 202.609L201.612 202.362L202.058 203.984L203.151 203.684zM209.449 201.955L209.653 202.698L208.56 202.998L209.437 206.191C 209.485 206.367 209.517 206.484 209.533 206.541C 209.555 206.595 209.598 206.667 209.66 206.757C 209.721 206.839 209.798 206.882 209.89 206.887C 209.983 206.892 210.107 206.874 210.263 206.831C 210.397 206.794 210.557 206.739 210.742 206.665L210.742 206.665L210.954 207.439C 210.708 207.538 210.482 207.615 210.277 207.671C 210.022 207.741 209.802 207.771 209.617 207.761C 209.432 207.751 209.283 207.723 209.172 207.678C 209.068 207.63 208.97 207.524 208.879 207.359C 208.786 207.187 208.72 207.042 208.68 206.923C 208.638 206.798 208.577 206.59 208.497 206.3C 208.491 206.279 208.487 206.265 208.485 206.258C 208.482 206.244 208.477 206.226 208.471 206.205C 208.465 206.184 208.46 206.166 208.456 206.152L208.456 206.152L207.658 203.245L206.736 203.499L206.532 202.756L207.455 202.503L207.009 200.88L207.911 200.632L208.356 202.255L209.449 201.955zM210.781 199.354L211.565 202.207C 211.801 201.488 212.315 201.02 213.107 200.803C 214.337 200.465 215.123 200.918 215.465 202.163L215.465 202.163L216.493 205.907L215.591 206.155L214.622 202.623C 214.507 202.205 214.331 201.911 214.094 201.741C 213.863 201.561 213.52 201.533 213.068 201.658C 212.516 201.809 212.169 202.094 212.025 202.514C 211.889 202.932 211.911 203.469 212.092 204.127L212.092 204.127L212.855 206.906L211.953 207.154L209.88 199.601L210.781 199.354zM222.051 202.522C 222.124 203.871 221.503 204.726 220.188 205.087C 219.382 205.308 218.68 205.231 218.083 204.855C 217.492 204.477 217.075 203.843 216.83 202.952C 216.587 202.068 216.625 201.289 216.942 200.617C 217.264 199.935 217.804 199.49 218.56 199.283C 219.402 199.052 220.103 199.167 220.663 199.629C 221.229 200.082 221.631 200.744 221.87 201.614L221.87 201.614L221.904 201.741L217.789 202.871L217.796 202.937C 217.955 203.517 218.232 203.932 218.627 204.181C 219.023 204.429 219.486 204.481 220.016 204.335C 220.412 204.227 220.698 204.049 220.874 203.803C 221.057 203.555 221.155 203.209 221.17 202.764L221.17 202.764L222.051 202.522zM220.77 201.265C 220.584 200.754 220.313 200.391 219.958 200.176C 219.6 199.955 219.196 199.907 218.743 200.031C 218.304 200.151 217.981 200.4 217.773 200.776C 217.564 201.153 217.503 201.607 217.588 202.139L217.588 202.139L220.77 201.265zM229.356 194.254L231.429 201.806L230.581 202.039L230.36 201.233C 230.188 201.965 229.674 202.448 228.818 202.683C 228.04 202.897 227.351 202.808 226.749 202.418C 226.153 202.019 225.733 201.374 225.488 200.483C 225.261 199.656 225.285 198.912 225.56 198.251C 225.839 197.581 226.383 197.135 227.189 196.914C 227.974 196.698 228.653 196.831 229.226 197.312L229.226 197.312L228.454 194.501L229.356 194.254zM227.518 197.656C 227.002 197.798 226.643 198.098 226.442 198.556C 226.248 199.012 226.239 199.562 226.416 200.206C 226.598 200.87 226.896 201.359 227.309 201.672C 227.727 201.975 228.194 202.056 228.71 201.914C 229.233 201.771 229.592 201.471 229.786 201.014C 229.978 200.551 229.982 199.983 229.798 199.311C 229.633 198.71 229.353 198.247 228.96 197.922C 228.571 197.587 228.091 197.499 227.518 197.656zM236.988 198.421C 237.062 199.77 236.441 200.624 235.126 200.986C 234.319 201.207 233.618 201.13 233.02 200.754C 232.43 200.376 232.012 199.742 231.767 198.85C 231.525 197.967 231.562 197.188 231.879 196.516C 232.202 195.834 232.741 195.389 233.498 195.181C 234.339 194.95 235.04 195.066 235.601 195.528C 236.166 195.981 236.568 196.643 236.807 197.512L236.807 197.512L236.842 197.64L232.726 198.77L232.733 198.836C 232.892 199.416 233.17 199.831 233.565 200.079C 233.96 200.328 234.423 200.38 234.953 200.234C 235.349 200.126 235.635 199.948 235.811 199.702C 235.994 199.454 236.093 199.108 236.108 198.663L236.108 198.663L236.988 198.421zM235.708 197.164C 235.521 196.652 235.251 196.29 234.895 196.075C 234.538 195.854 234.133 195.806 233.68 195.93C 233.242 196.05 232.919 196.299 232.71 196.675C 232.502 197.052 232.44 197.506 232.525 198.038L232.525 198.038L235.708 197.164zM237.828 194.164L238.061 195.012C 238.331 194.223 238.862 193.72 239.654 193.503C 240.298 193.326 240.807 193.368 241.184 193.63C 241.565 193.883 241.845 194.335 242.023 194.985L242.023 194.985L243.022 198.624L242.121 198.871L241.235 195.646C 241.161 195.378 241.094 195.172 241.032 195.029C 240.975 194.878 240.888 194.727 240.77 194.576C 240.651 194.419 240.496 194.325 240.305 194.294C 240.114 194.262 239.884 194.284 239.615 194.357C 238.576 194.643 238.236 195.443 238.597 196.759L238.597 196.759L239.384 199.623L238.482 199.87L236.979 194.397L237.828 194.164zM245.218 192.135L245.422 192.877L244.329 193.177L245.206 196.37C 245.254 196.547 245.286 196.664 245.302 196.72C 245.324 196.775 245.367 196.847 245.43 196.936C 245.49 197.018 245.567 197.062 245.659 197.067C 245.752 197.072 245.876 197.053 246.032 197.01C 246.166 196.973 246.326 196.918 246.511 196.844L246.511 196.844L246.724 197.619C 246.477 197.717 246.251 197.794 246.046 197.851C 245.791 197.92 245.571 197.95 245.386 197.94C 245.201 197.93 245.052 197.903 244.941 197.857C 244.837 197.81 244.739 197.704 244.648 197.538C 244.555 197.366 244.489 197.221 244.449 197.103C 244.407 196.977 244.346 196.77 244.266 196.48C 244.26 196.459 244.257 196.444 244.255 196.437C 244.251 196.423 244.246 196.405 244.24 196.384C 244.234 196.363 244.229 196.345 244.225 196.331L244.225 196.331L243.428 193.425L242.505 193.678L242.301 192.936L243.224 192.682L242.778 191.059L243.68 190.812L244.125 192.435L245.218 192.135zM246.603 189.519L246.906 190.622L245.994 190.872L245.691 189.769L246.603 189.519zM247.174 191.598L248.677 197.071L247.765 197.322L246.262 191.848L247.174 191.598zM253.07 191.69L252.169 191.937C 251.93 191.288 251.393 191.078 250.559 191.307C 250.212 191.402 249.958 191.544 249.797 191.733C 249.636 191.922 249.586 192.129 249.649 192.356C 249.666 192.419 249.691 192.481 249.722 192.541C 249.752 192.593 249.791 192.64 249.84 192.679C 249.894 192.71 249.94 192.739 249.978 192.767C 250.023 192.793 250.086 192.813 250.167 192.829C 250.252 192.836 250.315 192.845 250.357 192.857C 250.405 192.867 250.482 192.872 250.589 192.873C 250.701 192.865 250.78 192.862 250.826 192.865C 250.871 192.86 250.957 192.856 251.085 192.851C 251.22 192.844 251.306 192.84 251.344 192.837C 251.621 192.822 251.828 192.814 251.965 192.815C 252.109 192.813 252.308 192.831 252.561 192.868C 252.82 192.896 253.024 192.946 253.173 193.019C 253.32 193.085 253.465 193.197 253.608 193.356C 253.755 193.506 253.86 193.694 253.922 193.92C 254.068 194.45 253.977 194.935 253.649 195.375C 253.326 195.806 252.822 196.116 252.136 196.304C 251.393 196.508 250.776 196.502 250.283 196.288C 249.798 196.071 249.457 195.659 249.26 195.052L249.26 195.052L250.151 194.807C 250.412 195.564 251.013 195.814 251.953 195.556C 252.356 195.445 252.656 195.275 252.851 195.047C 253.052 194.809 253.115 194.552 253.039 194.276C 252.989 194.093 252.883 193.958 252.723 193.873C 252.563 193.787 252.398 193.741 252.229 193.735C 252.058 193.721 251.817 193.718 251.508 193.727C 251.464 193.732 251.43 193.733 251.407 193.732C 251.339 193.736 251.194 193.745 250.97 193.761C 250.751 193.768 250.592 193.77 250.492 193.767C 250.393 193.763 250.247 193.758 250.054 193.75C 249.867 193.733 249.722 193.704 249.62 193.664C 249.516 193.616 249.397 193.558 249.264 193.488C 249.136 193.409 249.032 193.308 248.953 193.185C 248.871 193.056 248.806 192.902 248.758 192.726C 248.622 192.231 248.702 191.787 248.997 191.394C 249.299 190.999 249.768 190.714 250.405 190.54C 251.048 190.363 251.613 190.371 252.1 190.565C 252.594 190.756 252.917 191.131 253.07 191.69zM256.219 189.114L256.423 189.857L255.33 190.157L256.207 193.35C 256.255 193.526 256.287 193.643 256.303 193.7C 256.326 193.754 256.368 193.826 256.431 193.916C 256.491 193.998 256.568 194.041 256.661 194.046C 256.753 194.051 256.877 194.033 257.033 193.99C 257.167 193.953 257.327 193.898 257.512 193.824L257.512 193.824L257.725 194.598C 257.478 194.697 257.252 194.774 257.047 194.83C 256.792 194.9 256.572 194.93 256.387 194.92C 256.202 194.91 256.053 194.882 255.942 194.837C 255.838 194.789 255.74 194.683 255.649 194.518C 255.556 194.346 255.49 194.201 255.45 194.082C 255.408 193.957 255.347 193.749 255.267 193.459C 255.262 193.438 255.258 193.424 255.256 193.417C 255.252 193.403 255.247 193.385 255.241 193.364C 255.235 193.343 255.23 193.325 255.227 193.311L255.227 193.311L254.429 190.404L253.506 190.658L253.302 189.915L254.225 189.662L253.779 188.039L254.681 187.791L255.126 189.414L256.219 189.114zM259.779 192.757L260.102 193.934L258.925 194.257L258.602 193.08L259.779 192.757zM262.731 191.946L263.055 193.124L261.877 193.447L261.554 192.269L262.731 191.946zM265.684 191.136L266.007 192.313L264.829 192.636L264.506 191.459L265.684 191.136z" stroke="none" fill="#00D7FF" fill-rule="nonzero" />
    <path d="M185.908 216.586L267.48 194.19L267.626 194.72L186.053 217.116L185.908 216.586z" stroke="none" fill="#00D7FF" fill-rule="nonzero" />
    <path d="M206.402 365.029C 206.595 366.096 206.456 367.009 205.985 367.769C 205.519 368.519 204.773 369.035 203.746 369.317C 202.574 369.639 201.538 369.508 200.64 368.926C 199.739 368.335 199.108 367.38 198.746 366.061C 198.407 364.826 198.469 363.706 198.931 362.7C 199.398 361.684 200.242 361.008 201.461 360.674C 202.332 360.434 203.164 360.459 203.957 360.747C 204.75 361.036 205.299 361.586 205.605 362.398L205.605 362.398L204.517 362.697C 204.246 362.191 203.86 361.844 203.361 361.658C 202.86 361.464 202.304 361.45 201.695 361.617C 200.777 361.87 200.171 362.384 199.879 363.161C 199.594 363.936 199.582 364.798 199.842 365.747C 200.13 366.797 200.604 367.554 201.263 368.02C 201.921 368.487 202.679 368.602 203.535 368.367C 204.237 368.174 204.742 367.82 205.048 367.305C 205.352 366.781 205.441 366.122 205.314 365.328L205.314 365.328L206.402 365.029zM207.479 362.394C 207.847 361.679 208.482 361.198 209.385 360.95C 210.287 360.702 211.064 360.783 211.716 361.193C 212.368 361.603 212.829 362.302 213.101 363.289C 213.378 364.3 213.343 365.156 212.997 365.857C 212.65 366.557 212.021 367.033 211.111 367.283C 210.2 367.533 209.411 367.451 208.741 367.037C 208.072 366.624 207.602 365.923 207.331 364.936C 207.062 363.956 207.111 363.109 207.479 362.394zM211.127 362.039C 210.679 361.706 210.166 361.619 209.587 361.778C 209.008 361.937 208.608 362.275 208.385 362.792C 208.162 363.31 208.148 363.923 208.343 364.633C 208.544 365.366 208.867 365.895 209.313 366.221C 209.765 366.536 210.292 366.612 210.894 366.446C 211.472 366.287 211.866 365.955 212.076 365.45C 212.293 364.942 212.301 364.322 212.1 363.589C 211.905 362.879 211.581 362.363 211.127 362.039zM214.387 359.763L214.642 360.689C 214.936 359.828 215.516 359.279 216.38 359.042C 217.082 358.849 217.638 358.895 218.048 359.181C 218.464 359.457 218.769 359.949 218.964 360.659L218.964 360.659L220.054 364.628L219.07 364.898L218.104 361.38C 218.024 361.087 217.95 360.863 217.882 360.707C 217.82 360.542 217.725 360.377 217.597 360.213C 217.467 360.041 217.298 359.939 217.089 359.905C 216.881 359.87 216.63 359.894 216.337 359.974C 215.203 360.286 214.833 361.159 215.227 362.594L215.227 362.594L216.085 365.718L215.101 365.988L213.462 360.017L214.387 359.763zM222.449 357.549L222.671 358.359L221.48 358.687L222.436 362.17C 222.489 362.363 222.524 362.49 222.541 362.552C 222.565 362.611 222.612 362.69 222.68 362.787C 222.746 362.877 222.83 362.924 222.931 362.93C 223.032 362.935 223.167 362.915 223.337 362.868C 223.484 362.828 223.658 362.768 223.86 362.687L223.86 362.687L224.092 363.532C 223.822 363.639 223.576 363.723 223.352 363.785C 223.074 363.861 222.835 363.894 222.632 363.883C 222.43 363.872 222.269 363.842 222.147 363.792C 222.033 363.74 221.927 363.625 221.828 363.444C 221.726 363.256 221.654 363.098 221.61 362.969C 221.564 362.832 221.498 362.606 221.411 362.289C 221.405 362.266 221.4 362.251 221.398 362.243C 221.394 362.228 221.389 362.208 221.382 362.185C 221.376 362.162 221.371 362.143 221.366 362.127L221.366 362.127L220.496 358.957L219.489 359.233L219.267 358.423L220.274 358.147L219.787 356.376L220.771 356.106L221.257 357.877L222.449 357.549zM223.961 354.695L224.291 355.899L223.296 356.172L222.965 354.969L223.961 354.695zM224.583 356.964L226.223 362.935L225.227 363.208L223.588 357.237L224.583 356.964zM227.033 356.291L227.287 357.217C 227.582 356.356 228.161 355.807 229.025 355.57C 229.727 355.377 230.283 355.423 230.693 355.709C 231.109 355.985 231.415 356.478 231.609 357.187L231.609 357.187L232.699 361.156L231.716 361.426L230.75 357.909C 230.669 357.615 230.595 357.391 230.528 357.235C 230.465 357.07 230.37 356.905 230.243 356.741C 230.112 356.57 229.943 356.467 229.735 356.433C 229.526 356.399 229.275 356.422 228.982 356.502C 227.848 356.814 227.478 357.687 227.872 359.122L227.872 359.122L228.73 362.246L227.746 362.516L226.107 356.545L227.033 356.291zM237.49 353.42L239.129 359.391L238.215 359.642L237.958 358.705C 237.65 359.577 237.064 360.132 236.2 360.37C 235.567 360.543 235.03 360.504 234.587 360.252C 234.145 360 233.833 359.547 233.653 358.891L233.653 358.891L232.525 354.783L233.509 354.513L234.564 358.355C 234.693 358.825 234.88 359.16 235.125 359.358C 235.376 359.546 235.737 359.576 236.208 359.447C 237.372 359.127 237.758 358.249 237.364 356.814L237.364 356.814L236.506 353.69L237.49 353.42zM245.192 355.698C 245.272 357.169 244.595 358.102 243.16 358.496C 242.281 358.737 241.515 358.653 240.863 358.243C 240.219 357.831 239.763 357.139 239.497 356.167C 239.232 355.202 239.272 354.353 239.619 353.619C 239.97 352.876 240.559 352.391 241.384 352.164C 242.302 351.912 243.067 352.038 243.678 352.542C 244.295 353.037 244.734 353.758 244.994 354.707L244.994 354.707L245.032 354.846L240.543 356.079L240.55 356.151C 240.724 356.784 241.026 357.236 241.457 357.507C 241.889 357.779 242.394 357.835 242.972 357.676C 243.404 357.558 243.716 357.364 243.908 357.096C 244.108 356.825 244.215 356.447 244.231 355.962L244.231 355.962L245.192 355.698zM243.795 354.327C 243.592 353.769 243.296 353.373 242.909 353.139C 242.519 352.898 242.077 352.845 241.583 352.98C 241.105 353.112 240.752 353.383 240.525 353.794C 240.298 354.205 240.23 354.7 240.323 355.28L240.323 355.28L243.795 354.327z" stroke="none" fill="#B9C3C8" fill-rule="nonzero" />
    <path d="M257.36 353.271C 257.294 353.393 257.141 353.435 257.019 353.364C 256.902 353.296 256.859 353.141 256.925 353.022L256.925 353.022L258.169 350.796L252.477 352.359C 252.344 352.395 252.21 352.317 252.173 352.182C 252.136 352.047 252.211 351.908 252.343 351.871L252.343 351.871L258.035 350.309L255.83 349.033C 255.712 348.962 255.669 348.806 255.735 348.688C 255.804 348.565 255.957 348.523 256.076 348.594L256.076 348.594L258.804 350.176C 258.925 350.243 258.967 350.398 258.898 350.518L258.898 350.518L257.36 353.271z" stroke="none" fill="#00D7FF" fill-rule="nonzero" />
    <path d="M254.68 269.826L273.165 264.751C 272.706 263.876 271.794 263.345 270.815 263.364C 270.817 263.145 270.772 262.923 270.712 262.705C 270.317 261.266 268.831 260.408 267.378 260.807C 266.971 260.919 266.607 261.128 266.302 261.384C 265.415 260.315 263.944 259.797 262.52 260.188C 260.994 260.606 259.964 261.921 259.841 263.408C 259.325 263.237 258.773 263.217 258.206 263.372C 256.695 263.787 255.798 265.362 256.213 266.873C 256.249 267.004 256.3 267.131 256.35 267.257C 255.288 267.658 254.621 268.701 254.68 269.826z" stroke="none" fill="#EAEAEA" fill-rule="nonzero" />
    <path d="M148.398 307.054L167.929 301.692C 167.443 300.778 166.472 300.201 165.449 300.232C 165.448 299.998 165.417 299.772 165.349 299.525C 164.93 297.999 163.356 297.103 161.83 297.522C 161.394 297.641 161.015 297.855 160.699 298.129C 159.763 296.995 158.208 296.453 156.696 296.868C 155.083 297.311 153.997 298.703 153.865 300.271C 153.33 300.09 152.73 300.067 152.134 300.23C 150.536 300.669 149.583 302.322 150.026 303.935C 150.066 304.08 150.116 304.207 150.167 304.334C 149.051 304.765 148.337 305.867 148.398 307.054z" stroke="none" fill="#EAEAEA" fill-rule="nonzero" />
    <path d="M239.968 225.576L263.234 219.188C 262.653 218.097 261.497 217.414 260.273 217.453C 260.259 217.176 260.231 216.902 260.155 216.626C 259.657 214.81 257.786 213.745 255.969 214.244C 255.446 214.387 254.999 214.635 254.622 214.973C 253.502 213.624 251.652 212.976 249.864 213.466C 247.946 213.993 246.65 215.646 246.492 217.518C 245.854 217.302 245.144 217.278 244.447 217.47C 242.543 217.992 241.415 219.974 241.938 221.878C 241.982 222.038 242.044 222.208 242.102 222.364C 240.735 222.849 239.896 224.173 239.968 225.576z" stroke="none" fill="#EAEAEA" fill-rule="nonzero" />
    <path d="M128.662 268.7L149.85 262.882C 149.327 261.885 148.281 261.266 147.149 261.296C 147.143 261.047 147.104 260.792 147.036 260.545C 146.582 258.888 144.877 257.918 143.221 258.373C 142.756 258.501 142.333 258.726 141.997 259.038C 140.974 257.818 139.297 257.231 137.67 257.678C 135.926 258.157 134.747 259.668 134.603 261.365C 134.021 261.18 133.373 261.155 132.734 261.331C 130.99 261.809 129.968 263.606 130.446 265.35C 130.486 265.495 130.545 265.651 130.599 265.792C 129.373 266.223 128.593 267.422 128.662 268.7z" stroke="none" fill="#EAEAEA" fill-rule="nonzero" />
    <path d="M155.838 359.598L172.1 355.134C 171.702 354.368 170.887 353.904 170.032 353.92C 170.028 353.734 170.005 353.537 169.949 353.333C 169.602 352.069 168.287 351.32 167.022 351.668C 166.659 351.767 166.349 351.946 166.084 352.175C 165.294 351.236 164.015 350.79 162.751 351.137C 161.414 351.504 160.512 352.658 160.403 353.969C 159.958 353.826 159.467 353.804 158.973 353.94C 157.636 354.307 156.856 355.678 157.223 357.015C 157.255 357.131 157.301 357.243 157.348 357.355C 156.394 357.695 155.79 358.627 155.838 359.598z" stroke="none" fill="#EAEAEA" fill-rule="nonzero" />
    <path d="M170.542 241.371L191.163 235.709C 190.648 234.741 189.64 234.143 188.536 234.164C 188.53 233.916 188.495 233.675 188.428 233.428C 187.985 231.815 186.322 230.881 184.723 231.32C 184.273 231.444 183.865 231.665 183.524 231.962C 182.524 230.767 180.899 230.198 179.3 230.637C 177.6 231.103 176.457 232.574 176.315 234.222C 175.748 234.034 175.115 234.005 174.49 234.176C 172.804 234.639 171.799 236.384 172.266 238.085C 172.305 238.23 172.36 238.371 172.414 238.513C 171.222 238.949 170.481 240.122 170.542 241.371z" stroke="none" fill="#EAEAEA" fill-rule="nonzero" />
    <path d="M275.083 321.655L291.344 317.191C 290.947 316.425 290.132 315.961 289.277 315.977C 289.272 315.79 289.249 315.594 289.194 315.39C 288.846 314.126 287.531 313.377 286.267 313.724C 285.904 313.824 285.594 314.003 285.328 314.232C 284.539 313.293 283.26 312.847 281.996 313.194C 280.659 313.561 279.757 314.715 279.648 316.026C 279.202 315.883 278.712 315.861 278.218 315.997C 276.881 316.364 276.101 317.735 276.468 319.072C 276.5 319.188 276.546 319.3 276.593 319.412C 275.62 319.742 275.031 320.669 275.083 321.655z" stroke="none" fill="#EAEAEA" fill-rule="nonzero" />
    <path d="M225.12 340.718C 224.104 341.856 222.346 342.339 220.891 341.879L220.891 341.879L198.765 334.889L182.731 329.821C 179.859 328.922 180.406 325.396 183.545 324.534L183.545 324.534L215.952 315.636L248.359 306.739C 251.498 305.877 253.765 308.615 251.759 310.869L251.759 310.869L240.56 323.414L225.12 340.718z" stroke="none" fill="#D67412" fill-rule="nonzero" />
    <path d="M213.644 343.259C 213.487 343.599 213.124 343.699 212.815 343.487L212.815 343.487L203.304 336.847L194.573 330.774C 194.086 330.423 194.125 329.599 194.648 329.456L194.648 329.456L208.396 325.681L222.143 321.907C 222.666 321.763 223.139 322.462 222.881 323.001L222.881 323.001L218.475 332.681L213.644 343.259z" stroke="none" fill="#FC842C" fill-rule="nonzero" />
    <path d="M231.597 338.924C 231.434 339.297 231.027 339.409 230.696 339.171L230.696 339.171L220.189 331.867L210.567 325.163C 210.024 324.781 210.083 323.858 210.65 323.703L210.65 323.703L225.792 319.545L240.935 315.388C 241.516 315.228 242.024 315.995 241.753 316.601L241.753 316.601L236.901 327.278L231.597 338.924z" stroke="none" fill="#FC842C" fill-rule="nonzero" />
    <path d="M224.244 346.35C 224.108 346.653 223.788 346.741 223.517 346.549L223.517 346.549L215.076 340.678L207.333 335.303C 206.891 335.002 206.936 334.255 207.401 334.127L207.401 334.127L219.579 330.784L231.757 327.44C 232.222 327.313 232.642 327.932 232.416 328.416L232.416 328.416L228.504 336.991L224.244 346.35z" stroke="none" fill="#FC842C" fill-rule="nonzero" />
    <path d="M232.35 320.948L228.877 321.902C 228.47 322.014 228.032 321.728 227.905 321.263C 227.777 320.798 228.008 320.328 228.414 320.216L228.414 320.216L231.888 319.263C 232.295 319.151 232.733 319.437 232.86 319.902C 232.988 320.367 232.757 320.837 232.35 320.948z" stroke="none" fill="#F99943" fill-rule="nonzero" />
    <path d="M234.661 320.314L234.167 320.45C 233.76 320.561 233.322 320.275 233.195 319.81C 233.067 319.345 233.297 318.876 233.704 318.764L233.704 318.764L234.198 318.628C 234.605 318.516 235.043 318.802 235.171 319.268C 235.299 319.733 235.068 320.202 234.661 320.314z" stroke="none" fill="#F99943" fill-rule="nonzero" />
    <path d="M218.447 327.626L214.349 328.751C 213.869 328.882 213.357 328.554 213.205 328.002C 213.054 327.45 213.326 326.906 213.806 326.774L213.806 326.774L217.904 325.649C 218.384 325.517 218.896 325.846 219.047 326.398C 219.199 326.95 218.926 327.494 218.447 327.626z" stroke="none" fill="#F99943" fill-rule="nonzero" />
    <path d="M221.179 326.875L220.597 327.035C 220.118 327.167 219.606 326.839 219.454 326.286C 219.303 325.734 219.575 325.19 220.055 325.059L220.055 325.059L220.636 324.899C 221.116 324.767 221.628 325.096 221.779 325.648C 221.931 326.2 221.658 326.744 221.179 326.875z" stroke="none" fill="#F99943" fill-rule="nonzero" />
    <path d="M222.615 340.702L220.246 341.353C 219.97 341.428 219.666 341.231 219.582 340.925C 219.498 340.62 219.659 340.295 219.935 340.219L219.935 340.219L222.304 339.569C 222.58 339.493 222.884 339.691 222.968 339.996C 223.052 340.301 222.906 340.622 222.615 340.702z" stroke="none" fill="#F99943" fill-rule="nonzero" />
    <path d="M224.199 340.267L223.865 340.359C 223.589 340.435 223.284 340.237 223.201 339.932C 223.117 339.627 223.277 339.301 223.554 339.226L223.554 339.226L223.888 339.134C 224.164 339.058 224.468 339.256 224.552 339.561C 224.636 339.866 224.49 340.188 224.199 340.267z" stroke="none" fill="#F99943" fill-rule="nonzero" />
    <path d="M206.401 330.027C 206.592 330.724 206.25 331.412 205.625 331.584L205.625 331.584L202.253 332.509C 201.643 332.677 200.979 332.25 200.791 331.567C 200.6 330.869 200.942 330.181 201.567 330.01L201.567 330.01L204.938 329.084C 205.563 328.912 206.209 329.329 206.401 330.027z" stroke="none" fill="#F99943" fill-rule="nonzero" />
    <path d="M209.409 331.138C 209.601 331.836 209.258 332.524 208.633 332.695L208.633 332.695L205.262 333.621C 204.652 333.789 203.987 333.361 203.8 332.678C 203.608 331.981 203.951 331.293 204.576 331.121L204.576 331.121L207.947 330.196C 208.572 330.024 209.218 330.441 209.409 331.138z" stroke="none" fill="#F99943" fill-rule="nonzero" />
    <path d="M229.114 326.807C 228.967 326.269 228.451 325.926 227.971 326.058L227.971 326.058L225.312 326.788C 224.832 326.92 224.559 327.463 224.711 328.016C 224.859 328.553 225.375 328.896 225.854 328.764L225.854 328.764L228.514 328.034C 228.993 327.903 229.266 327.359 229.114 326.807z" stroke="none" fill="#F99943" fill-rule="nonzero" />
    <path d="M230.704 324.854C 230.556 324.317 230.04 323.974 229.56 324.105L229.56 324.105L226.916 324.832C 226.436 324.963 226.163 325.507 226.315 326.059C 226.463 326.597 226.979 326.94 227.458 326.808L227.458 326.808L230.103 326.082C 230.579 325.936 230.851 325.392 230.704 324.854z" stroke="none" fill="#F99943" fill-rule="nonzero" />
    <path d="M230.949 329.96C 230.368 330.119 230.036 330.789 230.215 331.442C 230.267 331.631 230.359 331.794 230.475 331.934L230.475 331.934L229.778 332.125C 229.196 332.285 228.864 332.954 229.044 333.608C 229.228 334.277 229.851 334.668 230.432 334.508L230.432 334.508L234.021 333.523L236.332 328.45L230.941 329.93L230.949 329.96z" stroke="none" fill="#F99943" fill-rule="nonzero" />
    <path d="M210.592 336.471L209.895 336.662C 209.923 336.482 209.919 336.296 209.867 336.107C 209.684 335.439 209.06 335.047 208.479 335.207L208.479 335.207L203.073 336.691L203.307 336.861L207.636 339.876L211.254 338.883C 211.836 338.723 212.168 338.054 211.988 337.4C 211.801 336.717 211.173 336.311 210.592 336.471z" stroke="none" fill="#F99943" fill-rule="nonzero" />
    <path d="M221.298 331.922C 221.47 332.546 221.155 333.164 220.603 333.316L220.603 333.316L215.953 334.593C 215.4 334.744 214.81 334.359 214.643 333.749C 214.471 333.124 214.786 332.506 215.338 332.355L215.338 332.355L219.988 331.078C 220.555 330.922 221.127 331.297 221.298 331.922z" stroke="none" fill="#F99943" fill-rule="nonzero" />
    <path d="M219.954 334.197C 219.854 333.834 220.036 333.471 220.356 333.384L220.356 333.384L218.147 333.99C 218.467 333.902 218.808 334.121 218.908 334.484C 219.008 334.848 218.826 335.21 218.506 335.298L218.506 335.298L220.715 334.691C 220.381 334.783 220.054 334.56 219.954 334.197z" stroke="none" fill="#F99943" fill-rule="nonzero" />
    <path d="M224.372 334.75C 224.524 335.302 224.251 335.846 223.772 335.978L223.772 335.978L218.264 337.49C 217.784 337.621 217.272 337.293 217.121 336.741C 216.969 336.189 217.242 335.645 217.721 335.513L217.721 335.513L223.229 334.001C 223.709 333.869 224.225 334.212 224.372 334.75z" stroke="none" fill="#F99943" fill-rule="nonzero" />
    <path d="M254.584 297.482C 254.39 297.285 254.132 297.2 253.885 297.267L253.885 297.267L173.972 319.208C 173.725 319.275 173.547 319.481 173.48 319.749C 173.413 320.017 173.493 320.308 173.677 320.523L173.677 320.523L181.903 330.048C 182.091 330.278 182.378 330.355 182.625 330.287L182.625 330.287L252.117 311.208C 252.379 311.136 252.568 310.912 252.616 310.633L252.616 310.633L254.825 298.244C 254.859 297.969 254.764 297.682 254.584 297.482z" stroke="none" fill="#BC5800" fill-rule="nonzero" />
    <path d="M195.014 324.526L188.271 326.378C 187.472 326.597 186.633 326.046 186.386 325.145C 186.138 324.244 186.578 323.342 187.377 323.122L187.377 323.122L194.12 321.271C 194.92 321.052 195.758 321.603 196.006 322.504C 196.253 323.405 195.813 324.307 195.014 324.526z" stroke="none" fill="#AA5000" fill-rule="nonzero" />
    <path d="M199.504 323.293L198.545 323.557C 197.746 323.776 196.907 323.225 196.66 322.324C 196.412 321.423 196.852 320.521 197.652 320.302L197.652 320.302L198.611 320.038C 199.41 319.819 200.249 320.37 200.496 321.271C 200.744 322.172 200.304 323.074 199.504 323.293z" stroke="none" fill="#AA5000" fill-rule="nonzero" />
    <path d="M236.754 309.722L242.915 308.03C 243.642 307.831 244.421 308.336 244.645 309.15C 244.868 309.963 244.456 310.795 243.729 310.995L243.729 310.995L237.568 312.687C 236.841 312.886 236.062 312.381 235.838 311.567C 235.615 310.754 236.027 309.922 236.754 309.722z" stroke="none" fill="#AA5000" fill-rule="nonzero" />
    <path d="M232.641 310.851L233.528 310.608C 234.254 310.408 235.034 310.913 235.257 311.727C 235.481 312.541 235.068 313.373 234.342 313.572L234.342 313.572L233.455 313.816C 232.729 314.015 231.949 313.51 231.726 312.697C 231.502 311.883 231.915 311.051 232.641 310.851z" stroke="none" fill="#AA5000" fill-rule="nonzero" />
    <path d="M218.163 315.264C 218.406 316.15 217.966 317.052 217.181 317.268L217.181 317.268L213.185 318.365C 212.4 318.581 211.561 318.03 211.318 317.143C 211.075 316.257 211.515 315.354 212.299 315.139L212.299 315.139L216.296 314.042C 217.08 313.826 217.919 314.377 218.163 315.264z" stroke="none" fill="#AA5000" fill-rule="nonzero" />
    <path d="M222.515 315.976C 222.766 316.891 222.305 317.83 221.492 318.054L221.492 318.054L217.408 319.175C 216.594 319.398 215.722 318.841 215.467 317.911C 215.216 316.995 215.677 316.056 216.49 315.833L216.49 315.833L220.574 314.711C 221.388 314.488 222.264 315.06 222.515 315.976z" stroke="none" fill="#AA5000" fill-rule="nonzero" />
    <path d="M255.955 301.278C 256.047 301.612 255.886 301.938 255.581 302.021L255.581 302.021L174.026 324.413C 173.736 324.492 173.417 324.299 173.325 323.964L173.325 323.964L171.486 317.265C 171.394 316.931 171.555 316.605 171.86 316.522L171.86 316.522L253.414 294.13C 253.705 294.051 254.024 294.244 254.115 294.579L254.115 294.579L255.955 301.278z" stroke="none" fill="#DFDFDF" fill-rule="nonzero" />
    <path d="M253.414 294.13L252.862 294.282L254.566 300.487C 254.657 300.822 254.497 301.147 254.191 301.231L254.191 301.231L173.189 323.47L173.329 323.979C 173.421 324.313 173.725 324.511 174.03 324.427L174.03 324.427L255.585 302.036C 255.875 301.956 256.051 301.627 255.959 301.293L255.959 301.293L254.119 294.593C 254.024 294.244 253.705 294.051 253.414 294.13z" stroke="none" fill="#C3C3C3" fill-rule="nonzero" />
    <path d="M180.062 318.051L176.284 319.089C 175.833 319.213 175.358 318.905 175.219 318.397C 175.079 317.888 175.331 317.381 175.781 317.258L175.781 317.258L179.559 316.22C 180.01 316.097 180.485 316.404 180.625 316.913C 180.764 317.421 180.513 317.928 180.062 318.051z" stroke="none" fill="#FFFFFF" fill-rule="nonzero" />
    <path d="M182.591 317.357L182.053 317.505C 181.603 317.629 181.128 317.321 180.988 316.813C 180.848 316.304 181.1 315.797 181.55 315.674L181.55 315.674L182.088 315.526C 182.539 315.402 183.014 315.71 183.153 316.218C 183.278 316.731 183.027 317.238 182.591 317.357z" stroke="none" fill="#FFFFFF" fill-rule="nonzero" />
    <path d="M230.018 329.527L251.453 323.642C 250.925 322.631 249.865 322.015 248.729 322.03C 248.723 321.782 248.684 321.527 248.612 321.265C 248.153 319.594 246.431 318.614 244.76 319.073C 244.28 319.204 243.862 319.444 243.521 319.741C 242.491 318.492 240.799 317.91 239.128 318.368C 237.37 318.851 236.165 320.385 236.026 322.096C 235.425 321.901 234.777 321.876 234.138 322.051C 232.38 322.534 231.347 324.349 231.829 326.108C 231.873 326.268 231.928 326.409 231.982 326.55C 230.735 327.018 229.944 328.235 230.018 329.527z" stroke="none" fill="#EAEAEA" fill-rule="nonzero" />
    <path d="M186.958 337.99L212.52 330.971C 211.893 329.768 210.626 329.022 209.259 329.054C 209.256 328.758 209.216 328.441 209.132 328.135C 208.585 326.145 206.529 324.974 204.539 325.521C 203.972 325.677 203.47 325.955 203.054 326.319C 201.821 324.845 199.798 324.135 197.821 324.677C 195.714 325.256 194.29 327.069 194.122 329.131C 193.418 328.902 192.642 328.865 191.872 329.077C 189.779 329.651 188.546 331.818 189.12 333.911C 189.172 334.1 189.235 334.27 189.312 334.437C 187.826 335.001 186.879 336.449 186.958 337.99z" stroke="none" fill="#EAEAEA" fill-rule="nonzero" />
    <path d="M212.007 304.968C 230.121 299.994 240.774 281.278 235.801 263.163C 230.828 245.049 212.111 234.396 193.997 239.369C 175.882 244.343 165.229 263.059 170.203 281.174C 175.176 299.288 193.893 309.941 212.007 304.968z" stroke="none" fill="#00D7FF" fill-rule="nonzero" />
    <path d="M227.195 285.935C 234.8 272.575 230.134 255.581 216.774 247.977C 203.414 240.372 186.42 245.038 178.815 258.398C 171.211 271.758 175.877 288.752 189.237 296.357C 202.597 303.961 219.591 299.295 227.195 285.935z" stroke="none" fill="#FFFFFF" fill-rule="nonzero" />
    <path d="M208.592 292.528C 219.836 289.441 226.449 277.823 223.361 266.579C 220.274 255.334 208.656 248.722 197.412 251.809C 186.168 254.896 179.555 266.514 182.642 277.758C 185.729 289.002 197.347 295.615 208.592 292.528z" stroke="none" fill="#00D7FF" fill-rule="nonzero" />
    <path d="M216.325 279.748C 220.512 272.392 217.943 263.034 210.587 258.847C 203.23 254.66 193.873 257.229 189.686 264.585C 185.499 271.942 188.068 281.299 195.424 285.486C 202.78 289.673 212.138 287.104 216.325 279.748z" stroke="none" fill="#FFFFFF" fill-rule="nonzero" />
    <path d="M211.942 274.118C 213.02 269.183 209.893 264.308 204.957 263.23C 200.022 262.152 195.147 265.279 194.069 270.215C 192.991 275.15 196.118 280.025 201.054 281.103C 205.99 282.181 210.864 279.054 211.942 274.118z" stroke="none" fill="#00D7FF" fill-rule="nonzero" />
    <path d="M204.883 276.774C 207.426 275.738 208.649 272.836 207.613 270.292C 206.578 267.749 203.676 266.526 201.132 267.562C 198.588 268.597 197.365 271.499 198.401 274.043C 199.437 276.587 202.339 277.809 204.883 276.774z" stroke="none" fill="#FFFFFF" fill-rule="nonzero" />
    <path d="M219.615 258.684L219.366 246.391L234.768 234.129L234.22 246.079L245.94 247.955L231.053 260.669L219.615 258.684z" stroke="none" fill="#FF7B00" fill-rule="nonzero" />
    <path d="M202.996 274.311C 202.374 274.263 201.778 273.973 201.353 273.449C 200.529 272.441 200.667 270.95 201.675 270.126L201.675 270.126L234.994 242.694C 236.003 241.87 237.494 242.008 238.318 243.016C 239.141 244.024 239.004 245.516 237.995 246.339L237.995 246.339L204.677 273.772C 204.196 274.185 203.586 274.352 202.996 274.311z" stroke="none" fill="#FF9557" fill-rule="nonzero" />
	<g>
        <path transform="matrix(0.9643152 -0.2647568 0.2647568 0.9643152 -29.525238 86.8429)"  d="M307.395 162.95C 307.395 157.42715 311.87213 152.95 317.395 152.95L317.395 152.95L502.395 152.95C 507.91785 152.95 512.395 157.42715 512.395 162.95L512.395 162.95L512.395 341.95C 512.395 347.47284 507.91785 351.95 502.395 351.95L502.395 351.95L317.395 351.95C 311.87213 351.95 307.395 347.47284 307.395 341.95L307.395 341.95L307.395 162.95z" stroke="none" fill="#FFFFFF" fill-rule="nonzero" />
	</g>
</g>
</svg>