<svg width="46" height="46" viewBox="0 0 46 46" fill="none" xmlns="http://www.w3.org/2000/svg">
<g filter="url(#filter0_f_3_316)">
<circle cx="23" cy="23" r="15" fill="#00D7FF"/>
</g>
<circle cx="23" cy="23" r="15" fill="#00D7FF"/>
<path d="M29.5898 17.0104H27.7933C27.7998 16.8115 27.8034 16.6113 27.8034 16.4102C27.8034 16.1836 27.6197 16 27.3933 16H18.6068C18.3803 16 18.1967 16.1836 18.1967 16.4102C18.1967 16.6113 18.2002 16.8115 18.2067 17.0104H16.4102C16.1836 17.0104 16 17.1941 16 17.4206C16 19.2584 16.4803 20.9923 17.3524 22.303C18.2145 23.5987 19.3629 24.3419 20.6033 24.4142C20.8845 24.7203 21.1819 24.9698 21.4915 25.1601V26.9831H20.8034C19.9716 26.9831 19.2949 27.6598 19.2949 28.4916V29.1797H19.2658C19.0392 29.1797 18.8556 29.3634 18.8556 29.5898C18.8556 29.8164 19.0392 30 19.2658 30H26.7342C26.9608 30 27.1444 29.8164 27.1444 29.5898C27.1444 29.3634 26.9608 29.1797 26.7342 29.1797H26.7051V28.4916C26.7051 27.6598 26.0283 26.9831 25.1966 26.9831H24.5085V25.1601C24.8181 24.9698 25.1154 24.7203 25.3966 24.4142C26.6371 24.3419 27.7854 23.5987 28.6476 22.303C29.5197 20.9923 30 19.2584 30 17.4206C30 17.1941 29.8163 17.0104 29.5898 17.0104ZM18.0354 21.8486C17.316 20.7675 16.8934 19.3536 16.829 17.8308H18.2525C18.4005 19.7028 18.8399 21.433 19.5267 22.8066C19.6361 23.0254 19.7505 23.2319 19.8691 23.4267C19.1869 23.169 18.5556 22.6305 18.0354 21.8486ZM27.9646 21.8486C27.4444 22.6305 26.8131 23.169 26.1309 23.4267C26.2496 23.2319 26.3639 23.0254 26.4733 22.8066C27.1601 21.433 27.5994 19.7028 27.7475 17.8308H29.171C29.1066 19.3536 28.684 20.7675 27.9646 21.8486Z" fill="#242A37"/>
<defs>
<filter id="filter0_f_3_316" x="0" y="0" width="46" height="46" filterUnits="userSpaceOnUse" color-interpolation-filters="sRGB">
<feFlood flood-opacity="0" result="BackgroundImageFix"/>
<feBlend mode="normal" in="SourceGraphic" in2="BackgroundImageFix" result="shape"/>
<feGaussianBlur stdDeviation="4" result="effect1_foregroundBlur_3_316"/>
</filter>
</defs>
</svg>
