<svg viewBox="0 0 145 124" fill="none" xmlns="http://www.w3.org/2000/svg">
<path d="M121.223 57.748H140.391C140.18 56.7836 139.442 56.0301 138.493 55.7889C138.553 55.578 138.568 55.3519 138.568 55.1259C138.568 53.6339 137.362 52.4133 135.855 52.4133C135.433 52.4133 135.027 52.5188 134.665 52.6845C134.092 51.4187 132.811 50.5295 131.334 50.5295C129.752 50.5295 128.411 51.5242 127.899 52.9257C127.446 52.6243 126.919 52.4585 126.331 52.4585C124.764 52.4585 123.483 53.7394 123.483 55.3067C123.483 55.4423 123.498 55.578 123.513 55.7136C122.383 55.8191 121.464 56.6479 121.223 57.748Z" fill="#EAEAEA"/>
<path d="M8.87622 65.5089H29.1302C28.9041 64.4992 28.1205 63.6855 27.1259 63.4443C27.1862 63.2183 27.2163 62.9922 27.2163 62.7361C27.2163 61.1537 25.9354 59.8728 24.353 59.8728C23.9009 59.8728 23.479 59.9783 23.1022 60.1591C22.4994 58.8179 21.1431 57.8835 19.5759 57.8835C17.9031 57.8835 16.4865 58.9384 15.944 60.4153C15.4768 60.0988 14.9042 59.918 14.2863 59.918C12.6286 59.918 11.2723 61.2592 11.2723 62.932C11.2723 63.0827 11.2874 63.2183 11.3025 63.3539C10.112 63.4745 9.13241 64.3485 8.87622 65.5089Z" fill="#EAEAEA"/>
<path d="M118.751 11.1818H142.878C142.607 9.97618 141.672 9.01171 140.482 8.72538C140.542 8.45412 140.587 8.18286 140.587 7.89653C140.587 6.01279 139.065 4.49073 137.181 4.49073C136.639 4.49073 136.142 4.61129 135.69 4.83734C134.966 3.23993 133.354 2.12476 131.5 2.12476C129.511 2.12476 127.823 3.37556 127.175 5.13874C126.617 4.76199 125.939 4.55101 125.216 4.55101C123.242 4.55101 121.629 6.16349 121.629 8.13765C121.629 8.30342 121.644 8.48426 121.659 8.65003C120.213 8.75552 119.052 9.81041 118.751 11.1818Z" fill="#EAEAEA"/>
<path d="M0 23.2982H21.9719C21.7308 22.1981 20.8869 21.324 19.7868 21.0528C19.8471 20.8116 19.8772 20.5555 19.8772 20.2993C19.8772 18.5813 18.4908 17.1949 16.7728 17.1949C16.2906 17.1949 15.8234 17.3004 15.4165 17.5113C14.7534 16.0646 13.2917 15.0549 11.6038 15.0549C9.79545 15.0549 8.25832 16.2002 7.67059 17.7977C7.15821 17.4661 6.54035 17.2702 5.87727 17.2702C4.06888 17.2702 2.6071 18.732 2.6071 20.5404C2.6071 20.6911 2.62217 20.8569 2.63724 21.0075C1.34122 21.098 0.271259 22.0474 0 23.2982Z" fill="#EAEAEA"/>
<path d="M2.14001 118.148H19.0033C18.8224 117.304 18.1593 116.641 17.3305 116.43C17.3757 116.249 17.4058 116.053 17.4058 115.843C17.4058 114.531 16.3359 113.461 15.0248 113.461C14.648 113.461 14.3014 113.552 13.985 113.703C13.4726 112.587 12.3574 111.819 11.0463 111.819C9.6599 111.819 8.48445 112.693 8.03235 113.929C7.64053 113.672 7.17337 113.522 6.66099 113.522C5.27456 113.522 4.15938 114.637 4.15938 116.023C4.15938 116.144 4.17445 116.264 4.18952 116.385C3.17984 116.46 2.35099 117.199 2.14001 118.148Z" fill="#EAEAEA"/>
<path d="M47.621 8.03226H69.0052C68.7641 6.9623 67.9503 6.11838 66.8803 5.84713C66.9406 5.60601 66.9707 5.36489 66.9707 5.1087C66.9707 3.43594 65.6145 2.09472 63.9568 2.09472C63.4896 2.09472 63.0375 2.20021 62.6306 2.39612C61.9826 0.979544 60.566 0 58.9083 0C57.1452 0 55.6532 1.11518 55.0806 2.66738C54.5833 2.33584 53.9805 2.13993 53.3325 2.13993C51.5844 2.13993 50.1527 3.5565 50.1527 5.31968C50.1527 5.47038 50.1678 5.62108 50.1829 5.77178C48.917 5.87727 47.8922 6.8116 47.621 8.03226Z" fill="#EAEAEA"/>
<path d="M127.175 113.13H144.038C143.857 112.286 143.194 111.623 142.366 111.412C142.411 111.231 142.441 111.035 142.441 110.824C142.441 109.513 141.371 108.443 140.06 108.443C139.683 108.443 139.336 108.534 139.02 108.684C138.508 107.569 137.392 106.801 136.081 106.801C134.695 106.801 133.519 107.675 133.067 108.91C132.676 108.654 132.208 108.503 131.696 108.503C130.31 108.503 129.194 109.619 129.194 111.005C129.194 111.126 129.209 111.246 129.225 111.367C128.2 111.427 127.386 112.165 127.175 113.13Z" fill="#EAEAEA"/>
<path d="M81.6338 108.79H103.862C103.621 107.674 102.762 106.8 101.662 106.514C101.722 106.273 101.752 106.017 101.752 105.746C101.752 104.012 100.351 102.611 98.6176 102.611C98.1203 102.611 97.6531 102.732 97.2462 102.927C96.5832 101.451 95.1063 100.441 93.3733 100.441C91.5498 100.441 89.9825 101.601 89.3948 103.214C88.8673 102.867 88.2495 102.671 87.5864 102.671C85.7629 102.671 84.2861 104.148 84.2861 105.972C84.2861 106.137 84.3012 106.288 84.3162 106.439C82.9901 106.559 81.905 107.524 81.6338 108.79Z" fill="#EAEAEA"/>
<path d="M37.8707 105.55H64.3787C64.0924 104.223 63.0676 103.169 61.7415 102.837C61.8168 102.551 61.862 102.234 61.862 101.918C61.862 99.8532 60.1893 98.1804 58.1247 98.1804C57.537 98.1804 56.9794 98.316 56.4821 98.5572C55.6834 96.809 53.9202 95.5884 51.8707 95.5884C49.6855 95.5884 47.8319 96.9597 47.1237 98.9038C46.5058 98.4969 45.7674 98.2558 44.9687 98.2558C42.7986 98.2558 41.0354 100.019 41.0354 102.189C41.0354 102.385 41.0505 102.566 41.0806 102.747C39.4983 102.897 38.2023 104.043 37.8707 105.55Z" fill="#EAEAEA"/>
</svg>
