<svg viewBox="0 0 87 44" fill="none" xmlns="http://www.w3.org/2000/svg">
<path d="M45.9481 38.2844C44.6671 39.1132 42.8437 39.1132 41.5627 38.2844L22.0773 25.6859L7.95681 16.5536C5.42506 14.926 6.88684 11.6709 10.1419 11.6709H43.7479H77.3538C80.6089 11.6709 82.0707 14.9109 79.5389 16.5536L65.4184 25.6859L45.9481 38.2844Z" fill="#D67412"/>
<path d="M34.2086 37.6965C33.9675 37.9829 33.5907 37.9829 33.3496 37.6965L25.9352 28.7751L19.1236 20.6072C18.7469 20.1401 19.0031 19.3564 19.5456 19.3564H33.8017H48.0579C48.6004 19.3564 48.8716 20.1551 48.4798 20.6072L41.6682 28.7751L34.2086 37.6965Z" fill="#FC842C"/>
<path d="M52.6694 38.2692C52.4132 38.5857 51.9912 38.5857 51.735 38.2692L43.537 28.4437L36.0322 19.4318C35.6102 18.9195 35.9116 18.0454 36.4993 18.0454H52.2022H67.905C68.5078 18.0454 68.7942 18.9195 68.3722 19.4318L60.8674 28.4437L52.6694 38.2692Z" fill="#FC842C"/>
<path d="M43.6122 43.4837C43.4012 43.7398 43.0697 43.7398 42.8587 43.4837L36.2732 35.587L30.2301 28.3535C29.8835 27.9466 30.1246 27.2383 30.6069 27.2383H43.2355H55.8641C56.3463 27.2383 56.5874 27.9466 56.2408 28.3535L50.1978 35.587L43.6122 43.4837Z" fill="#FC842C"/>
<path d="M58.1547 21.1348H54.553C54.131 21.1348 53.7844 20.743 53.7844 20.2608C53.7844 19.7785 54.131 19.3867 54.553 19.3867H58.1547C58.5767 19.3867 58.9233 19.7785 58.9233 20.2608C58.9233 20.743 58.5767 21.1348 58.1547 21.1348Z" fill="#F99943"/>
<path d="M60.5508 21.1348H60.0385C59.6165 21.1348 59.2699 20.743 59.2699 20.2608C59.2699 19.7785 59.6165 19.3867 60.0385 19.3867H60.5508C60.9728 19.3867 61.3194 19.7785 61.3194 20.2608C61.3194 20.743 60.9728 21.1348 60.5508 21.1348Z" fill="#F99943"/>
<path d="M42.9793 23.8928H38.7296C38.2323 23.8928 37.8254 23.4407 37.8254 22.868C37.8254 22.2954 38.2323 21.8433 38.7296 21.8433H42.9793C43.4767 21.8433 43.8835 22.2954 43.8835 22.868C43.8835 23.4407 43.4767 23.8928 42.9793 23.8928Z" fill="#F99943"/>
<path d="M45.8125 23.8928H45.2097C44.7124 23.8928 44.3055 23.4407 44.3055 22.868C44.3055 22.2954 44.7124 21.8433 45.2097 21.8433H45.8125C46.3098 21.8433 46.7167 22.2954 46.7167 22.868C46.7167 23.4407 46.3098 23.8928 45.8125 23.8928Z" fill="#F99943"/>
<path d="M43.5369 37.6061H41.0805C40.7942 37.6061 40.5531 37.3349 40.5531 37.0184C40.5531 36.7019 40.7942 36.4307 41.0805 36.4307H43.5369C43.8233 36.4307 44.0644 36.7019 44.0644 37.0184C44.0644 37.3349 43.8383 37.6061 43.5369 37.6061Z" fill="#F99943"/>
<path d="M45.1796 37.6061H44.833C44.5467 37.6061 44.3055 37.3349 44.3055 37.0184C44.3055 36.7019 44.5467 36.4307 44.833 36.4307H45.1796C45.4659 36.4307 45.707 36.7019 45.707 37.0184C45.707 37.3349 45.481 37.6061 45.1796 37.6061Z" fill="#F99943"/>
<path d="M30.7275 23.0187C30.7275 23.742 30.2151 24.3147 29.5671 24.3147H26.0709C25.438 24.3147 24.9105 23.727 24.9105 23.0187C24.9105 22.2953 25.4229 21.7227 26.0709 21.7227H29.5671C30.2151 21.7227 30.7275 22.2953 30.7275 23.0187Z" fill="#F99943"/>
<path d="M33.3346 24.8873C33.3346 25.6107 32.8222 26.1833 32.1742 26.1833H28.678C28.045 26.1833 27.5176 25.5956 27.5176 24.8873C27.5176 24.164 28.03 23.5913 28.678 23.5913H32.1742C32.8222 23.5913 33.3346 24.164 33.3346 24.8873Z" fill="#F99943"/>
<path d="M53.4831 25.9271C53.4831 25.3695 53.0762 24.9023 52.5789 24.9023H49.8211C49.3238 24.9023 48.9169 25.3544 48.9169 25.9271C48.9169 26.4847 49.3238 26.9519 49.8211 26.9519H52.5789C53.0762 26.9519 53.4831 26.4998 53.4831 25.9271Z" fill="#F99943"/>
<path d="M55.5326 24.4652C55.5326 23.9076 55.1257 23.4404 54.6284 23.4404H51.8856C51.3883 23.4404 50.9814 23.8925 50.9814 24.4652C50.9814 25.0228 51.3883 25.4899 51.8856 25.4899H54.6284C55.1257 25.4749 55.5326 25.0228 55.5326 24.4652Z" fill="#F99943"/>
<path d="M54.4174 29.4535C53.8146 29.4535 53.3173 30.0111 53.3173 30.6892C53.3173 30.8851 53.3625 31.066 53.4378 31.2317H52.7145C52.1117 31.2317 51.6144 31.7893 51.6144 32.4675C51.6144 33.1607 52.1117 33.7032 52.7145 33.7032H56.4368L60.0083 29.4233H54.4174V29.4535Z" fill="#F99943"/>
<path d="M33.0633 30.3427H32.34C32.4153 30.1769 32.4605 29.9961 32.4605 29.8002C32.4605 29.107 31.9632 28.5645 31.3604 28.5645H25.7544L25.9352 28.7905L29.3109 32.8443H33.0633C33.6661 32.8443 34.1634 32.2867 34.1634 31.6086C34.1634 30.9003 33.6661 30.3427 33.0633 30.3427Z" fill="#F99943"/>
<path d="M44.5917 28.7903C44.5917 29.4383 44.1246 29.9506 43.5519 29.9506H38.7295C38.1569 29.9506 37.6897 29.4232 37.6897 28.7903C37.6897 28.1423 38.1569 27.6299 38.7295 27.6299H43.5519C44.1396 27.6299 44.5917 28.1423 44.5917 28.7903Z" fill="#F99943"/>
<path d="M42.693 30.6288C42.693 30.2521 42.9642 29.9507 43.2958 29.9507H41.0051C41.3367 29.9507 41.6079 30.2521 41.6079 30.6288C41.6079 31.0056 41.3367 31.307 41.0051 31.307H43.2958C42.9491 31.307 42.693 31.0056 42.693 30.6288Z" fill="#F99943"/>
<path d="M46.8071 32.3319C46.8071 32.9045 46.4002 33.3566 45.9029 33.3566H40.1914C39.6941 33.3566 39.2872 32.9045 39.2872 32.3319C39.2872 31.7592 39.6941 31.3071 40.1914 31.3071H45.9029C46.4002 31.3071 46.8071 31.7743 46.8071 32.3319Z" fill="#F99943"/>
<path d="M85.808 4.39181C85.6724 4.1507 85.4463 4 85.1902 4H2.32067C2.06448 4 1.83844 4.1507 1.70281 4.39181C1.56718 4.63293 1.56718 4.93433 1.68774 5.19052L7.09784 16.5532C7.2184 16.8245 7.47459 16.9752 7.73078 16.9752H79.7951C80.0664 16.9752 80.3075 16.8094 80.4281 16.5532L85.8382 5.19052C85.9436 4.93433 85.9286 4.63293 85.808 4.39181Z" fill="#BC5800"/>
<path d="M21.2034 14.6999H14.2109C13.3821 14.6999 12.719 13.9464 12.719 13.0121C12.719 12.0777 13.3821 11.3242 14.2109 11.3242H21.2034C22.0322 11.3242 22.6953 12.0777 22.6953 13.0121C22.6953 13.9464 22.0322 14.6999 21.2034 14.6999Z" fill="#AA5000"/>
<path d="M25.8599 14.6999H24.8653C24.0365 14.6999 23.3734 13.9464 23.3734 13.0121C23.3734 12.0777 24.0365 11.3242 24.8653 11.3242H25.8599C26.6888 11.3242 27.3519 12.0777 27.3519 13.0121C27.3519 13.9464 26.6888 14.6999 25.8599 14.6999Z" fill="#AA5000"/>
<path d="M65.3732 11.4751H71.7628C72.5163 11.4751 73.1342 12.1683 73.1342 13.0122C73.1342 13.8561 72.5163 14.5494 71.7628 14.5494H65.3732C64.6197 14.5494 64.0018 13.8561 64.0018 13.0122C64.0018 12.1683 64.6197 11.4751 65.3732 11.4751Z" fill="#AA5000"/>
<path d="M61.1084 11.4751H62.0277C62.7812 11.4751 63.399 12.1683 63.399 13.0122C63.399 13.8561 62.7812 14.5494 62.0277 14.5494H61.1084C60.3549 14.5494 59.7371 13.8561 59.7371 13.0122C59.7371 12.1683 60.3549 11.4751 61.1084 11.4751Z" fill="#AA5000"/>
<path d="M45.9783 11.8969C45.9783 12.8161 45.3152 13.5696 44.5014 13.5696H40.3572C39.5434 13.5696 38.8804 12.8161 38.8804 11.8969C38.8804 10.9776 39.5434 10.2241 40.3572 10.2241H44.5014C45.3152 10.2241 45.9783 10.9776 45.9783 11.8969Z" fill="#AA5000"/>
<path d="M49.9869 13.7355C49.9869 14.6849 49.2937 15.4685 48.4498 15.4685H44.2151C43.3712 15.4685 42.678 14.7 42.678 13.7355C42.678 12.7861 43.3712 12.0024 44.2151 12.0024H48.4498C49.2937 12.0024 49.9869 12.7861 49.9869 13.7355Z" fill="#AA5000"/>
<path d="M86.1246 8.41569C86.1246 8.76229 85.8834 9.03355 85.567 9.03355H0.9946C0.693202 9.03355 0.437012 8.76229 0.437012 8.41569V1.46845C0.437012 1.12184 0.678132 0.850586 0.9946 0.850586H85.567C85.8684 0.850586 86.1246 1.12184 86.1246 1.46845V8.41569Z" fill="#DFDFDF"/>
<path d="M85.567 0.850586H84.9943V7.28544C84.9943 7.63205 84.7532 7.90331 84.4367 7.90331H0.437012V8.43075C0.437012 8.77736 0.678132 9.04862 0.9946 9.04862H85.567C85.8684 9.04862 86.1246 8.77736 86.1246 8.43075V1.48352C86.1246 1.12185 85.8684 0.850586 85.567 0.850586Z" fill="#C3C3C3"/>
<path d="M8.49927 4.49745H4.58109C4.11393 4.49745 3.73718 4.07549 3.73718 3.54804C3.73718 3.0206 4.11393 2.59863 4.58109 2.59863H8.49927C8.96644 2.59863 9.34319 3.0206 9.34319 3.54804C9.34319 4.07549 8.96644 4.49745 8.49927 4.49745Z" fill="white"/>
<path d="M11.1216 4.49745H10.564C10.0968 4.49745 9.72009 4.07549 9.72009 3.54804C9.72009 3.0206 10.0968 2.59863 10.564 2.59863H11.1216C11.5888 2.59863 11.9655 3.0206 11.9655 3.54804C11.9504 4.07549 11.5737 4.49745 11.1216 4.49745Z" fill="white"/>
</svg>
