<svg width="69" height="69" xmlns="http://www.w3.org/2000/svg" fill="none">

 <g>
  <title>Layer 1</title>
  <g id="svg_2">
   <path id="svg_1" fill="#00D7FF" d="m34.7683,68.3371c18.7848,0 34.0128,-15.228 34.0128,-34.0128c0,-18.7847 -15.228,-34.01278 -34.0128,-34.01278c-18.7848,0 -34.01281,15.22808 -34.01281,34.01278c0,18.7848 15.22801,34.0128 34.01281,34.0128z"/>
   <g>
    <path fill="white" d="m54.1815,54.1815c10.8698,-10.8698 10.8698,-28.4932 0,-39.363c-10.8698,-10.8698 -28.4932,-10.8698 -39.363,0c-10.8698,10.8698 -10.8698,28.4932 0,39.363c10.8698,10.8698 28.4932,10.8698 39.363,0z"/>
   </g>
   <g>
    <path fill="#00D7FF" d="m34.49997,55.61294c11.6604,0 21.113,-9.4526 21.113,-21.1129c0,-11.66039 -9.4526,-21.11299 -21.113,-21.11299c-11.6603,0 -21.11293,9.4526 -21.11293,21.11299c0,11.6603 9.45263,21.1129 21.11293,21.1129z"/>
   </g>
   <g>
    <path fill="white" d="m45.3371,45.33707c5.9851,-5.9852 5.9852,-15.689 0,-21.67417c-5.9852,-5.98516 -15.689,-5.98516 -21.67419,0c-5.98516,5.98517 -5.98516,15.68897 0,21.67417c5.98519,5.9852 15.68899,5.9852 21.67419,0z"/>
   </g>
   <g>
    <path fill="#00D7FF" d="m42.60101,38.74804c2.3461,-4.47402 0.6211,-10.00287 -3.8529,-12.34902c-4.47409,-2.34614 -10.00294,-0.62114 -12.34909,3.8529c-2.34614,4.47405 -0.62114,10.00292 3.8529,12.34902c4.47405,2.3462 10.00289,0.6212 12.34909,-3.8529z"/>
   </g>
   <g>
    <path fill="white" d="m35.08882,39.43827c2.72732,-0.32522 4.67463,-2.79977 4.34943,-5.5271c-0.3252,-2.72733 -2.79973,-4.67464 -5.52706,-4.34945c-2.72732,0.32519 -4.67464,2.79975 -4.34945,5.52707c0.3252,2.72733 2.79975,4.67468 5.52708,4.34948z"/>
   </g>
  </g>
 </g>
</svg>