<svg width="23" height="23" viewBox="0 0 23 23" fill="none" xmlns="http://www.w3.org/2000/svg">
<g clip-path="url(#clip0_106_52)" filter="url(#filter0_d_106_52)">
<path d="M18.3473 6.23278L14.2166 5.84218C13.9562 5.81851 13.7312 5.6528 13.6248 5.40425L12.1452 1.81788C11.9085 1.22607 11.068 1.22607 10.8313 1.81788L9.36359 5.40425C9.2689 5.6528 9.03217 5.81851 8.77177 5.84218L4.64091 6.23278C4.02542 6.29196 3.77686 7.06131 4.23848 7.47558L7.35142 10.2097C7.55264 10.3873 7.63549 10.6477 7.57631 10.9081L6.64124 14.7429C6.49921 15.3466 7.1502 15.8436 7.69467 15.5242L11.139 13.5001C11.3639 13.3699 11.6362 13.3699 11.861 13.5001L15.3055 15.5242C15.85 15.8436 16.501 15.3585 16.3588 14.7429L15.4356 10.9081C15.3764 10.6477 15.4593 10.3873 15.6605 10.2097L18.7734 7.47558C19.2232 7.06131 18.9628 6.29196 18.3473 6.23278Z" fill="#00D7FF"/>
</g>
<defs>
<filter id="filter0_d_106_52" x="0" y="0" width="23" height="23" filterUnits="userSpaceOnUse" color-interpolation-filters="sRGB">
<feFlood flood-opacity="0" result="BackgroundImageFix"/>
<feColorMatrix in="SourceAlpha" type="matrix" values="0 0 0 0 0 0 0 0 0 0 0 0 0 0 0 0 0 0 127 0" result="hardAlpha"/>
<feOffset dy="3"/>
<feGaussianBlur stdDeviation="2"/>
<feColorMatrix type="matrix" values="0 0 0 0 0 0 0 0 0 0.843137 0 0 0 0 1 0 0 0 0.25 0"/>
<feBlend mode="normal" in2="BackgroundImageFix" result="effect1_dropShadow_106_52"/>
<feBlend mode="normal" in="SourceGraphic" in2="effect1_dropShadow_106_52" result="shape"/>
</filter>
<clipPath id="clip0_106_52">
<rect width="15" height="15" fill="white" transform="translate(4 1)"/>
</clipPath>
</defs>
</svg>
